<?xml version="1.0" standalone="no"?>
<!DOCTYPE svg PUBLIC "-//W3C//DTD SVG 20010904//EN"
 "http://www.w3.org/TR/2001/REC-SVG-20010904/DTD/svg10.dtd">
<svg version="1.0" xmlns="http://www.w3.org/2000/svg"
 width="700.000000pt" height="700.000000pt" viewBox="0 0 700.000000 700.000000"
 preserveAspectRatio="xMidYMid meet">
<metadata>
Created by potrace 1.11, written by Peter Selinger 2001-2013
</metadata>
<g transform="translate(0.000000,700.000000) scale(0.100000,-0.100000)"
fill="#000000" stroke="none">
<path d="M3195 6284 c-141 -17 -270 -40 -365 -65 -41 -12 -82 -22 -91 -24
-104 -21 -348 -118 -522 -207 -335 -172 -624 -405 -876 -706 -76 -91 -241
-322 -241 -337 0 -3 -12 -24 -27 -48 -28 -44 -143 -271 -143 -282 0 -3 -8 -25
-19 -48 -46 -104 -131 -371 -147 -462 -2 -16 -11 -61 -19 -100 -30 -157 -40
-274 -40 -505 0 -173 7 -305 19 -365 3 -20 17 -130 17 -140 0 -2 5 -19 10 -37
5 -18 12 -49 15 -68 9 -56 70 -260 109 -367 55 -150 195 -424 284 -558 322
-482 761 -844 1286 -1058 122 -50 309 -110 412 -133 37 -8 77 -17 88 -19 49
-12 183 -32 285 -43 88 -9 458 -9 544 1 90 10 207 26 226 32 8 2 31 6 50 9 71
10 277 69 399 112 141 51 385 167 507 242 657 402 1128 1067 1283 1812 26 125
31 161 50 330 9 76 7 507 -2 546 -3 12 -8 45 -12 75 -8 68 -14 104 -25 154 -5
22 -12 56 -15 75 -40 234 -186 597 -342 855 -50 81 -186 275 -216 307 -7 7
-33 38 -58 68 -272 323 -670 607 -1076 769 -181 72 -449 147 -593 166 -25 3
-62 8 -82 11 -88 13 -135 16 -343 18 -132 2 -264 -3 -330 -10z m535 -205 c110
-11 171 -19 190 -24 8 -2 33 -6 55 -10 115 -17 314 -75 475 -138 325 -127 604
-308 871 -567 51 -49 80 -82 183 -200 89 -103 233 -324 310 -479 112 -224 209
-523 242 -746 2 -16 6 -43 9 -59 27 -160 27 -540 -1 -721 -86 -562 -330 -1052
-725 -1456 -443 -452 -1040 -732 -1654 -776 -244 -17 -463 -4 -715 42 -153 28
-434 124 -605 206 -629 302 -1107 841 -1333 1504 -33 95 -77 258 -87 316 -3
19 -7 45 -10 59 -52 277 -51 644 0 914 76 394 212 715 440 1041 95 135 167
219 309 359 382 375 826 606 1356 705 92 17 109 20 194 27 44 3 82 8 84 9 8 7
335 2 412 -6z"/>
</g>
</svg>
