<?xml version="1.0" encoding="utf-8"?>
<!-- Generator: Adobe Illustrator 23.0.6, SVG Export Plug-In . SVG Version: 6.00 Build 0)  -->
<svg version="1.1" id="Layer_1" xmlns="http://www.w3.org/2000/svg" xmlns:xlink="http://www.w3.org/1999/xlink" x="0px" y="0px"
	 viewBox="0 0 455 87.9" style="enable-background:new 0 0 455 87.9;" xml:space="preserve">
<style type="text/css">
	.st0{fill-rule:evenodd;clip-rule:evenodd;fill:#CFE2F3;}
	.st1{fill:none;stroke:#000000;stroke-linejoin:round;stroke-miterlimit:10;}
	.st2{fill:none;}
</style>
<g>
	<g>
		<g>
			<path class="st0" d="M0.5,0.5H126v84.6H0.5V0.5z"/>
			<path class="st1" d="M0.5,0.5H126v84.6H0.5V0.5z"/>
			<path class="st0" d="M171,0.5h125.5v84.6H171V0.5z"/>
			<path class="st1" d="M171,0.5h125.5v84.6H171V0.5z"/>
			<path class="st0" d="M338.9,0.5h115.7v84.6H338.9V0.5z"/>
			<path class="st1" d="M338.9,0.5h115.7v84.6H338.9V0.5z"/>
		</g>
		<path d="M368.6,30.9l1,0.2c-0.2,0.8-0.6,1.5-1.2,1.9c-0.5,0.4-1.2,0.6-2,0.6c-0.8,0-1.5-0.2-2-0.5c-0.5-0.3-0.9-0.8-1.2-1.5
			c-0.3-0.6-0.4-1.3-0.4-2c0-0.8,0.2-1.5,0.5-2.1c0.3-0.6,0.7-1,1.3-1.3c0.6-0.3,1.2-0.5,1.8-0.5c0.8,0,1.4,0.2,1.9,0.6
			c0.5,0.4,0.9,0.9,1.1,1.6l-1,0.2c-0.2-0.6-0.4-1-0.8-1.2c-0.3-0.2-0.8-0.4-1.3-0.4c-0.6,0-1.1,0.1-1.5,0.4
			c-0.4,0.3-0.7,0.7-0.8,1.1c-0.2,0.5-0.2,1-0.2,1.5c0,0.6,0.1,1.2,0.3,1.7c0.2,0.5,0.5,0.8,0.9,1.1c0.4,0.2,0.8,0.4,1.3,0.4
			c0.6,0,1-0.2,1.4-0.5C368.2,32,368.5,31.5,368.6,30.9z M370.4,30.8c0-1,0.3-1.8,0.8-2.3c0.5-0.4,1.1-0.6,1.7-0.6
			c0.8,0,1.4,0.2,1.9,0.8c0.5,0.5,0.7,1.2,0.7,2.1c0,0.7-0.1,1.3-0.3,1.7c-0.2,0.4-0.5,0.7-0.9,1c-0.4,0.2-0.9,0.3-1.3,0.3
			c-0.8,0-1.4-0.2-1.9-0.7C370.6,32.4,370.4,31.7,370.4,30.8z M371.3,30.8c0,0.7,0.2,1.2,0.5,1.6s0.7,0.5,1.2,0.5
			c0.5,0,0.9-0.2,1.2-0.5c0.3-0.4,0.5-0.9,0.5-1.6c0-0.7-0.2-1.2-0.5-1.5c-0.3-0.4-0.7-0.5-1.2-0.5c-0.5,0-0.8,0.2-1.2,0.5
			C371.5,29.5,371.3,30,371.3,30.8z M376.6,33.5V28h0.8v0.8c0.4-0.6,1-0.9,1.8-0.9c0.3,0,0.6,0.1,0.9,0.2c0.3,0.1,0.5,0.3,0.6,0.5
			c0.1,0.2,0.2,0.4,0.3,0.7c0,0.2,0,0.5,0,0.9v3.4h-0.9v-3.4c0-0.4,0-0.7-0.1-0.9s-0.2-0.3-0.4-0.5c-0.2-0.1-0.4-0.2-0.6-0.2
			c-0.4,0-0.7,0.1-1,0.4c-0.3,0.2-0.4,0.7-0.4,1.4v3H376.6z M384.1,33.5L382,28h1l1.2,3.3c0.1,0.4,0.2,0.7,0.4,1.1
			c0.1-0.3,0.2-0.6,0.3-1l1.2-3.4h1l-2.1,5.5H384.1z M387.6,30.8c0-1,0.3-1.8,0.8-2.3c0.5-0.4,1.1-0.6,1.7-0.6
			c0.8,0,1.4,0.2,1.9,0.8c0.5,0.5,0.7,1.2,0.7,2.1c0,0.7-0.1,1.3-0.3,1.7c-0.2,0.4-0.5,0.7-0.9,1c-0.4,0.2-0.9,0.3-1.3,0.3
			c-0.8,0-1.4-0.2-1.9-0.7C387.8,32.4,387.6,31.7,387.6,30.8z M388.5,30.8c0,0.7,0.2,1.2,0.5,1.6s0.7,0.5,1.2,0.5
			c0.5,0,0.9-0.2,1.2-0.5c0.3-0.4,0.5-0.9,0.5-1.6c0-0.7-0.2-1.2-0.5-1.5c-0.3-0.4-0.7-0.5-1.2-0.5c-0.5,0-0.8,0.2-1.2,0.5
			C388.7,29.5,388.5,30,388.5,30.8z M397.3,35.6v-2.7c-0.1,0.2-0.3,0.4-0.6,0.5c-0.3,0.1-0.5,0.2-0.8,0.2c-0.7,0-1.2-0.3-1.7-0.8
			c-0.5-0.5-0.7-1.2-0.7-2.2c0-0.6,0.1-1,0.3-1.5c0.2-0.4,0.5-0.8,0.8-1c0.4-0.2,0.8-0.3,1.2-0.3c0.7,0,1.2,0.3,1.6,0.9V28h0.8v7.7
			H397.3z M394.5,30.7c0,0.7,0.1,1.2,0.4,1.6c0.3,0.4,0.7,0.5,1.1,0.5c0.4,0,0.7-0.2,1-0.5c0.3-0.3,0.4-0.9,0.4-1.5
			c0-0.7-0.2-1.3-0.5-1.7c-0.3-0.4-0.7-0.6-1.1-0.6s-0.8,0.2-1,0.5S394.5,30,394.5,30.7z M403.4,33.5v-0.8c-0.4,0.6-1,0.9-1.8,0.9
			c-0.3,0-0.6-0.1-0.9-0.2c-0.3-0.1-0.5-0.3-0.6-0.5c-0.1-0.2-0.2-0.4-0.3-0.7c0-0.2,0-0.5,0-0.9V28h0.9v3.1c0,0.5,0,0.8,0,1
			c0.1,0.2,0.2,0.4,0.4,0.6c0.2,0.1,0.4,0.2,0.7,0.2c0.3,0,0.5-0.1,0.8-0.2c0.3-0.1,0.4-0.3,0.5-0.6c0.1-0.2,0.2-0.6,0.2-1.1v-3h0.9
			v5.5H403.4z M409.5,31.7l1,0.1c-0.2,0.6-0.4,1-0.9,1.3c-0.4,0.3-0.9,0.5-1.6,0.5c-0.8,0-1.4-0.2-1.9-0.8c-0.5-0.5-0.7-1.2-0.7-2.1
			c0-0.9,0.2-1.6,0.7-2.2c0.5-0.5,1.1-0.8,1.9-0.8c0.7,0,1.3,0.3,1.8,0.8c0.5,0.5,0.7,1.2,0.7,2.1c0,0.1,0,0.1,0,0.2h-4.1
			c0,0.6,0.2,1.1,0.5,1.4c0.3,0.3,0.7,0.5,1.2,0.5c0.3,0,0.6-0.1,0.9-0.3C409.1,32.4,409.3,32.1,409.5,31.7z M406.4,30.2h3.1
			c0-0.5-0.2-0.8-0.4-1c-0.3-0.4-0.7-0.5-1.2-0.5c-0.4,0-0.8,0.1-1.1,0.4C406.6,29.4,406.4,29.7,406.4,30.2z M411.6,33.5V28h0.8v0.8
			c0.2-0.4,0.4-0.7,0.6-0.8c0.2-0.1,0.4-0.2,0.6-0.2c0.3,0,0.6,0.1,1,0.3l-0.3,0.9c-0.2-0.1-0.5-0.2-0.7-0.2c-0.2,0-0.4,0.1-0.6,0.2
			c-0.2,0.1-0.3,0.3-0.3,0.5c-0.1,0.3-0.2,0.7-0.2,1.1v2.9H411.6z M418.1,33.5v-7.6h0.9v7.6H418.1z M424.3,31.7l1,0.1
			c-0.2,0.6-0.4,1-0.9,1.3c-0.4,0.3-0.9,0.5-1.6,0.5c-0.8,0-1.4-0.2-1.9-0.8c-0.5-0.5-0.7-1.2-0.7-2.1c0-0.9,0.2-1.6,0.7-2.2
			c0.5-0.5,1.1-0.8,1.9-0.8c0.7,0,1.3,0.3,1.8,0.8c0.5,0.5,0.7,1.2,0.7,2.1c0,0.1,0,0.1,0,0.2h-4.1c0,0.6,0.2,1.1,0.5,1.4
			c0.3,0.3,0.7,0.5,1.2,0.5c0.3,0,0.6-0.1,0.9-0.3C423.9,32.4,424.1,32.1,424.3,31.7z M421.2,30.2h3.1c0-0.5-0.2-0.8-0.4-1
			c-0.3-0.4-0.7-0.5-1.2-0.5c-0.4,0-0.8,0.1-1.1,0.4C421.4,29.4,421.2,29.7,421.2,30.2z M426,31.9l0.9-0.1c0.1,0.4,0.2,0.7,0.4,0.9
			c0.2,0.2,0.6,0.3,1,0.3c0.4,0,0.7-0.1,1-0.3c0.2-0.2,0.3-0.4,0.3-0.6c0-0.2-0.1-0.4-0.3-0.5c-0.1-0.1-0.4-0.2-1-0.3
			c-0.7-0.2-1.2-0.3-1.4-0.5c-0.3-0.1-0.5-0.3-0.6-0.5c-0.1-0.2-0.2-0.5-0.2-0.8c0-0.2,0.1-0.5,0.2-0.7c0.1-0.2,0.3-0.4,0.5-0.5
			c0.1-0.1,0.3-0.2,0.6-0.3c0.3-0.1,0.5-0.1,0.8-0.1c0.4,0,0.8,0.1,1.1,0.2c0.3,0.1,0.6,0.3,0.7,0.5c0.2,0.2,0.3,0.5,0.3,0.9
			l-0.9,0.1c0-0.3-0.2-0.5-0.4-0.7c-0.2-0.2-0.5-0.2-0.8-0.2c-0.4,0-0.7,0.1-0.9,0.2c-0.2,0.1-0.3,0.3-0.3,0.5c0,0.1,0,0.2,0.1,0.3
			c0.1,0.1,0.2,0.2,0.4,0.2c0.1,0,0.4,0.1,0.8,0.2c0.7,0.2,1.1,0.3,1.4,0.4c0.3,0.1,0.5,0.3,0.6,0.5c0.2,0.2,0.2,0.5,0.2,0.8
			c0,0.3-0.1,0.6-0.3,0.9c-0.2,0.3-0.4,0.5-0.8,0.6c-0.3,0.1-0.7,0.2-1.2,0.2c-0.7,0-1.3-0.1-1.6-0.4
			C426.4,32.9,426.1,32.5,426,31.9z"/>
		<path d="M364.2,48.6V41h0.9v0.7c0.2-0.3,0.4-0.5,0.7-0.6c0.3-0.1,0.6-0.2,0.9-0.2c0.5,0,0.9,0.1,1.2,0.4c0.4,0.2,0.6,0.6,0.8,1
			c0.2,0.4,0.3,0.9,0.3,1.5c0,0.6-0.1,1.1-0.3,1.5c-0.2,0.4-0.5,0.8-0.9,1c-0.4,0.2-0.8,0.4-1.2,0.4c-0.3,0-0.6-0.1-0.8-0.2
			c-0.2-0.1-0.5-0.3-0.6-0.5v2.7H364.2z M365.1,43.8c0,0.7,0.1,1.2,0.4,1.6c0.3,0.3,0.6,0.5,1,0.5c0.4,0,0.8-0.2,1.1-0.5
			c0.3-0.4,0.5-0.9,0.5-1.6c0-0.7-0.1-1.2-0.4-1.6c-0.3-0.4-0.6-0.5-1-0.5c-0.4,0-0.8,0.2-1.1,0.6C365.2,42.5,365.1,43.1,365.1,43.8
			z M373.7,45.8c-0.4,0.3-0.7,0.5-1,0.6c-0.3,0.1-0.7,0.2-1,0.2c-0.6,0-1.1-0.1-1.4-0.4c-0.3-0.3-0.5-0.7-0.5-1.1
			c0-0.3,0.1-0.5,0.2-0.7c0.1-0.2,0.3-0.4,0.5-0.5c0.2-0.1,0.4-0.2,0.7-0.3c0.2,0,0.5-0.1,0.8-0.1c0.8-0.1,1.3-0.2,1.7-0.3
			c0-0.1,0-0.2,0-0.2c0-0.4-0.1-0.7-0.3-0.8c-0.2-0.2-0.6-0.3-1.1-0.3c-0.4,0-0.8,0.1-1,0.2c-0.2,0.2-0.4,0.4-0.5,0.8l-0.9-0.1
			c0.1-0.4,0.2-0.7,0.4-0.9c0.2-0.2,0.5-0.4,0.8-0.6c0.4-0.1,0.8-0.2,1.2-0.2c0.5,0,0.9,0.1,1.2,0.2c0.3,0.1,0.5,0.3,0.6,0.4
			c0.1,0.2,0.2,0.4,0.3,0.6c0,0.2,0,0.4,0,0.9v1.2c0,0.9,0,1.4,0.1,1.7c0,0.2,0.1,0.4,0.2,0.7h-1C373.8,46.3,373.8,46.1,373.7,45.8z
			 M373.7,43.8c-0.3,0.1-0.9,0.2-1.5,0.3c-0.4,0.1-0.7,0.1-0.8,0.2c-0.2,0.1-0.3,0.2-0.4,0.3c-0.1,0.1-0.1,0.3-0.1,0.4
			c0,0.2,0.1,0.5,0.3,0.6c0.2,0.2,0.5,0.2,0.8,0.2c0.4,0,0.7-0.1,1-0.2s0.5-0.4,0.6-0.7c0.1-0.2,0.2-0.5,0.2-0.9V43.8z M376.1,46.5
			V41h0.8v0.8c0.2-0.4,0.4-0.7,0.6-0.8c0.2-0.1,0.4-0.2,0.6-0.2c0.3,0,0.6,0.1,1,0.3l-0.3,0.9c-0.2-0.1-0.5-0.2-0.7-0.2
			c-0.2,0-0.4,0.1-0.6,0.2c-0.2,0.1-0.3,0.3-0.3,0.5c-0.1,0.3-0.2,0.7-0.2,1.1v2.9H376.1z M381.7,45.7l0.1,0.8
			c-0.3,0.1-0.5,0.1-0.7,0.1c-0.3,0-0.6-0.1-0.8-0.2c-0.2-0.1-0.3-0.3-0.4-0.4c-0.1-0.2-0.1-0.5-0.1-1.1v-3.2h-0.7V41h0.7v-1.4
			l0.9-0.6V41h0.9v0.7h-0.9V45c0,0.3,0,0.4,0,0.5c0,0.1,0.1,0.1,0.2,0.2c0.1,0,0.2,0.1,0.3,0.1C381.4,45.7,381.5,45.7,381.7,45.7z
			 M382.6,40v-1.1h0.9V40H382.6z M382.6,46.5V41h0.9v5.5H382.6z M388.6,44.5l0.9,0.1c-0.1,0.6-0.4,1.1-0.8,1.5
			c-0.4,0.4-0.9,0.5-1.5,0.5c-0.8,0-1.4-0.2-1.8-0.7c-0.5-0.5-0.7-1.2-0.7-2.1c0-0.6,0.1-1.1,0.3-1.6c0.2-0.4,0.5-0.8,0.9-1
			c0.4-0.2,0.8-0.3,1.3-0.3c0.6,0,1.1,0.2,1.5,0.5c0.4,0.3,0.6,0.7,0.7,1.3l-0.9,0.1c-0.1-0.4-0.2-0.6-0.5-0.8s-0.5-0.3-0.8-0.3
			c-0.5,0-0.9,0.2-1.2,0.5c-0.3,0.3-0.4,0.9-0.4,1.6c0,0.7,0.1,1.3,0.4,1.6c0.3,0.3,0.7,0.5,1.1,0.5c0.4,0,0.7-0.1,0.9-0.3
			C388.3,45.3,388.5,45,388.6,44.5z M390.3,40v-1.1h0.9V40H390.3z M390.3,46.5V41h0.9v5.5H390.3z M392.6,48.6V41h0.9v0.7
			c0.2-0.3,0.4-0.5,0.7-0.6c0.3-0.1,0.6-0.2,0.9-0.2c0.5,0,0.9,0.1,1.2,0.4c0.4,0.2,0.6,0.6,0.8,1c0.2,0.4,0.3,0.9,0.3,1.5
			c0,0.6-0.1,1.1-0.3,1.5c-0.2,0.4-0.5,0.8-0.9,1c-0.4,0.2-0.8,0.4-1.2,0.4c-0.3,0-0.6-0.1-0.8-0.2c-0.3-0.1-0.5-0.3-0.6-0.5v2.7
			H392.6z M393.5,43.8c0,0.7,0.1,1.2,0.4,1.6c0.3,0.3,0.6,0.5,1,0.5c0.4,0,0.8-0.2,1.1-0.5c0.3-0.4,0.5-0.9,0.5-1.6
			c0-0.7-0.1-1.2-0.4-1.6c-0.3-0.4-0.6-0.5-1-0.5c-0.4,0-0.8,0.2-1.1,0.6C393.6,42.5,393.5,43.1,393.5,43.8z M402.2,45.8
			c-0.4,0.3-0.7,0.5-1,0.6c-0.3,0.1-0.7,0.2-1,0.2c-0.6,0-1.1-0.1-1.4-0.4c-0.3-0.3-0.5-0.7-0.5-1.1c0-0.3,0.1-0.5,0.2-0.7
			c0.1-0.2,0.3-0.4,0.5-0.5c0.2-0.1,0.4-0.2,0.7-0.3c0.2,0,0.5-0.1,0.8-0.1c0.7-0.1,1.3-0.2,1.7-0.3c0-0.1,0-0.2,0-0.2
			c0-0.4-0.1-0.7-0.3-0.8c-0.2-0.2-0.6-0.3-1.1-0.3c-0.4,0-0.8,0.1-1,0.2c-0.2,0.2-0.4,0.4-0.5,0.8l-0.9-0.1
			c0.1-0.4,0.2-0.7,0.4-0.9c0.2-0.2,0.5-0.4,0.8-0.6c0.4-0.1,0.8-0.2,1.2-0.2c0.5,0,0.9,0.1,1.2,0.2c0.3,0.1,0.5,0.3,0.6,0.4
			c0.1,0.2,0.2,0.4,0.3,0.6c0,0.2,0,0.4,0,0.9v1.2c0,0.9,0,1.4,0.1,1.7c0,0.2,0.1,0.4,0.2,0.7h-1C402.3,46.3,402.2,46.1,402.2,45.8z
			 M402.1,43.8c-0.3,0.1-0.9,0.2-1.5,0.3c-0.4,0.1-0.7,0.1-0.8,0.2c-0.2,0.1-0.3,0.2-0.4,0.3c-0.1,0.1-0.1,0.3-0.1,0.4
			c0,0.2,0.1,0.5,0.3,0.6c0.2,0.2,0.5,0.2,0.8,0.2c0.4,0,0.7-0.1,1-0.2c0.3-0.2,0.5-0.4,0.6-0.7c0.1-0.2,0.2-0.5,0.2-0.9V43.8z
			 M404.5,46.5V41h0.8v0.8c0.4-0.6,1-0.9,1.8-0.9c0.3,0,0.6,0.1,0.9,0.2c0.3,0.1,0.5,0.3,0.6,0.5c0.1,0.2,0.2,0.4,0.3,0.7
			c0,0.2,0,0.5,0,0.9v3.4H408v-3.4c0-0.4,0-0.7-0.1-0.9c-0.1-0.2-0.2-0.3-0.4-0.5c-0.2-0.1-0.4-0.2-0.6-0.2c-0.4,0-0.7,0.1-1,0.4
			c-0.3,0.2-0.4,0.7-0.4,1.4v3H404.5z M412.5,45.7l0.1,0.8c-0.3,0.1-0.5,0.1-0.7,0.1c-0.3,0-0.6-0.1-0.8-0.2
			c-0.2-0.1-0.3-0.3-0.4-0.4c-0.1-0.2-0.1-0.5-0.1-1.1v-3.2h-0.7V41h0.7v-1.4l0.9-0.6V41h0.9v0.7h-0.9V45c0,0.3,0,0.4,0,0.5
			c0,0.1,0.1,0.1,0.2,0.2c0.1,0,0.2,0.1,0.3,0.1C412.2,45.7,412.3,45.7,412.5,45.7z M413,44.9l0.9-0.1c0.1,0.4,0.2,0.7,0.4,0.9
			c0.2,0.2,0.6,0.3,1,0.3c0.4,0,0.7-0.1,1-0.3c0.2-0.2,0.3-0.4,0.3-0.6c0-0.2-0.1-0.4-0.3-0.5c-0.1-0.1-0.4-0.2-1-0.3
			c-0.7-0.2-1.2-0.3-1.4-0.5c-0.3-0.1-0.5-0.3-0.6-0.5c-0.1-0.2-0.2-0.5-0.2-0.8c0-0.2,0.1-0.5,0.2-0.7c0.1-0.2,0.3-0.4,0.5-0.5
			c0.1-0.1,0.3-0.2,0.6-0.3c0.3-0.1,0.5-0.1,0.8-0.1c0.4,0,0.8,0.1,1.1,0.2c0.3,0.1,0.6,0.3,0.7,0.5c0.2,0.2,0.3,0.5,0.3,0.9
			l-0.9,0.1c0-0.3-0.2-0.5-0.4-0.7c-0.2-0.2-0.5-0.2-0.8-0.2c-0.4,0-0.8,0.1-0.9,0.2c-0.2,0.1-0.3,0.3-0.3,0.5c0,0.1,0,0.2,0.1,0.3
			c0.1,0.1,0.2,0.2,0.4,0.2c0.1,0,0.4,0.1,0.8,0.2c0.7,0.2,1.1,0.3,1.4,0.4c0.3,0.1,0.5,0.3,0.6,0.5c0.2,0.2,0.2,0.5,0.2,0.8
			c0,0.3-0.1,0.6-0.3,0.9c-0.2,0.3-0.4,0.5-0.8,0.6c-0.3,0.1-0.7,0.2-1.2,0.2c-0.7,0-1.3-0.1-1.6-0.4
			C413.3,45.9,413.1,45.5,413,44.9z M425.4,44.7l1,0.1c-0.2,0.6-0.4,1-0.9,1.3c-0.4,0.3-0.9,0.5-1.6,0.5c-0.8,0-1.4-0.2-1.9-0.8
			c-0.5-0.5-0.7-1.2-0.7-2.1c0-0.9,0.2-1.6,0.7-2.2c0.5-0.5,1.1-0.8,1.9-0.8c0.7,0,1.3,0.3,1.8,0.8c0.5,0.5,0.7,1.2,0.7,2.1
			c0,0.1,0,0.1,0,0.2h-4.1c0,0.6,0.2,1.1,0.5,1.4c0.3,0.3,0.7,0.5,1.2,0.5c0.3,0,0.6-0.1,0.9-0.3C425.1,45.4,425.3,45.1,425.4,44.7z
			 M422.4,43.2h3.1c0-0.5-0.2-0.8-0.4-1c-0.3-0.4-0.7-0.5-1.2-0.5c-0.4,0-0.8,0.1-1.1,0.4C422.6,42.4,422.4,42.7,422.4,43.2z
			 M429.6,45.7l0.1,0.8c-0.3,0.1-0.5,0.1-0.7,0.1c-0.3,0-0.6-0.1-0.8-0.2c-0.2-0.1-0.3-0.3-0.4-0.4c-0.1-0.2-0.1-0.5-0.1-1.1v-3.2
			h-0.7V41h0.7v-1.4l0.9-0.6V41h0.9v0.7h-0.9V45c0,0.3,0,0.4,0,0.5c0,0.1,0.1,0.1,0.2,0.2c0.1,0,0.2,0.1,0.3,0.1
			C429.3,45.7,429.5,45.7,429.6,45.7z"/>
		<path d="M353.3,59.5v-0.7c-0.3,0.6-0.9,0.8-1.5,0.8c-0.4,0-0.8-0.1-1.2-0.4c-0.4-0.2-0.7-0.6-0.9-1c-0.2-0.4-0.3-0.9-0.3-1.5
			c0-0.6,0.1-1.1,0.3-1.5c0.2-0.5,0.5-0.8,0.8-1c0.4-0.2,0.8-0.4,1.2-0.4c0.3,0,0.6,0.1,0.9,0.2c0.3,0.1,0.5,0.3,0.6,0.5v-2.7h0.9
			v7.6H353.3z M350.3,56.8c0,0.7,0.1,1.2,0.4,1.6c0.3,0.4,0.7,0.5,1.1,0.5s0.8-0.2,1-0.5c0.3-0.3,0.4-0.9,0.4-1.5
			c0-0.8-0.1-1.3-0.4-1.7c-0.3-0.4-0.7-0.5-1.1-0.5c-0.4,0-0.8,0.2-1,0.5C350.5,55.5,350.3,56,350.3,56.8z M359.4,57.7l1,0.1
			c-0.2,0.6-0.4,1-0.9,1.3c-0.4,0.3-0.9,0.5-1.6,0.5c-0.8,0-1.4-0.2-1.9-0.8c-0.5-0.5-0.7-1.2-0.7-2.1c0-0.9,0.2-1.6,0.7-2.2
			c0.5-0.5,1.1-0.8,1.9-0.8c0.7,0,1.3,0.3,1.8,0.8c0.5,0.5,0.7,1.2,0.7,2.1c0,0.1,0,0.1,0,0.2h-4.1c0,0.6,0.2,1.1,0.5,1.4
			c0.3,0.3,0.7,0.5,1.2,0.5c0.3,0,0.6-0.1,0.9-0.3C359.1,58.4,359.3,58.1,359.4,57.7z M356.3,56.2h3.1c0-0.5-0.2-0.8-0.4-1
			c-0.3-0.4-0.7-0.5-1.2-0.5c-0.4,0-0.8,0.1-1.1,0.4C356.5,55.4,356.4,55.7,356.3,56.2z M357.1,53.3l0.7-1.5h1.2l-1.1,1.5H357.1z
			 M361.8,59.5v-4.8h-0.8V54h0.8v-0.6c0-0.4,0-0.7,0.1-0.8c0.1-0.2,0.2-0.4,0.5-0.6c0.2-0.2,0.5-0.2,1-0.2c0.3,0,0.6,0,0.9,0.1
			l-0.1,0.8c-0.2,0-0.4-0.1-0.5-0.1c-0.3,0-0.5,0.1-0.6,0.2c-0.1,0.1-0.2,0.4-0.2,0.7V54h1.1v0.7h-1.1v4.8H361.8z M364.5,53v-1.1
			h0.9V53H364.5z M364.5,59.5V54h0.9v5.5H364.5z M366.9,59.5V54h0.8v0.8c0.4-0.6,1-0.9,1.8-0.9c0.3,0,0.6,0.1,0.9,0.2
			c0.3,0.1,0.5,0.3,0.6,0.5c0.1,0.2,0.2,0.4,0.3,0.7c0,0.2,0,0.5,0,0.9v3.4h-0.9v-3.4c0-0.4,0-0.7-0.1-0.9c-0.1-0.2-0.2-0.3-0.4-0.5
			c-0.2-0.1-0.4-0.2-0.6-0.2c-0.4,0-0.7,0.1-1,0.4c-0.3,0.2-0.4,0.7-0.4,1.4v3H366.9z M372.8,53v-1.1h0.9V53H372.8z M372.8,59.5V54
			h0.9v5.5H372.8z M375.2,59.5V54h0.8v0.8c0.2-0.4,0.4-0.7,0.6-0.8c0.2-0.1,0.4-0.2,0.6-0.2c0.3,0,0.6,0.1,1,0.3l-0.3,0.9
			c-0.2-0.1-0.5-0.2-0.7-0.2c-0.2,0-0.4,0.1-0.6,0.2c-0.2,0.1-0.3,0.3-0.3,0.5c-0.1,0.3-0.2,0.7-0.2,1.1v2.9H375.2z M381.7,59.5
			v-7.6h0.9v7.6H381.7z M387.7,58.8c-0.4,0.3-0.7,0.5-1,0.6c-0.3,0.1-0.7,0.2-1,0.2c-0.6,0-1.1-0.1-1.4-0.4
			c-0.3-0.3-0.5-0.7-0.5-1.1c0-0.3,0.1-0.5,0.2-0.7c0.1-0.2,0.3-0.4,0.5-0.5c0.2-0.1,0.4-0.2,0.7-0.3c0.2,0,0.5-0.1,0.8-0.1
			c0.8-0.1,1.3-0.2,1.7-0.3c0-0.1,0-0.2,0-0.2c0-0.4-0.1-0.7-0.3-0.8c-0.2-0.2-0.6-0.3-1.1-0.3c-0.4,0-0.8,0.1-1,0.2
			c-0.2,0.2-0.4,0.4-0.5,0.8l-0.9-0.1c0.1-0.4,0.2-0.7,0.4-0.9c0.2-0.2,0.5-0.4,0.8-0.6c0.4-0.1,0.8-0.2,1.2-0.2
			c0.5,0,0.9,0.1,1.2,0.2c0.3,0.1,0.5,0.3,0.6,0.4c0.1,0.2,0.2,0.4,0.3,0.6c0,0.2,0,0.4,0,0.9v1.2c0,0.9,0,1.4,0.1,1.7
			c0,0.2,0.1,0.4,0.2,0.7h-1C387.7,59.3,387.7,59.1,387.7,58.8z M387.6,56.8c-0.3,0.1-0.9,0.2-1.5,0.3c-0.4,0.1-0.7,0.1-0.8,0.2
			c-0.2,0.1-0.3,0.2-0.4,0.3c-0.1,0.1-0.1,0.3-0.1,0.4c0,0.2,0.1,0.5,0.3,0.6c0.2,0.2,0.5,0.2,0.8,0.2c0.4,0,0.7-0.1,1-0.2
			s0.5-0.4,0.6-0.7c0.1-0.2,0.2-0.5,0.2-0.9V56.8z M392.9,61.6V54h0.9v0.7c0.2-0.3,0.4-0.5,0.7-0.6c0.3-0.1,0.6-0.2,0.9-0.2
			c0.5,0,0.9,0.1,1.2,0.4c0.4,0.2,0.6,0.6,0.8,1c0.2,0.4,0.3,0.9,0.3,1.5c0,0.6-0.1,1.1-0.3,1.5c-0.2,0.4-0.5,0.8-0.9,1
			c-0.4,0.2-0.8,0.4-1.2,0.4c-0.3,0-0.6-0.1-0.8-0.2c-0.2-0.1-0.5-0.3-0.6-0.5v2.7H392.9z M393.8,56.8c0,0.7,0.1,1.2,0.4,1.6
			c0.3,0.3,0.6,0.5,1,0.5c0.4,0,0.8-0.2,1.1-0.5c0.3-0.4,0.5-0.9,0.5-1.6c0-0.7-0.1-1.2-0.4-1.6c-0.3-0.4-0.6-0.5-1-0.5
			c-0.4,0-0.7,0.2-1.1,0.6C393.9,55.5,393.8,56.1,393.8,56.8z M398.8,59.5V54h0.8v0.8c0.2-0.4,0.4-0.7,0.6-0.8
			c0.2-0.1,0.4-0.2,0.6-0.2c0.3,0,0.6,0.1,1,0.3l-0.3,0.9c-0.2-0.1-0.5-0.2-0.7-0.2c-0.2,0-0.4,0.1-0.6,0.2
			c-0.2,0.1-0.3,0.3-0.3,0.5c-0.1,0.3-0.2,0.7-0.2,1.1v2.9H398.8z M406.2,57.7l1,0.1c-0.2,0.6-0.4,1-0.9,1.3
			c-0.4,0.3-0.9,0.5-1.6,0.5c-0.8,0-1.4-0.2-1.9-0.8c-0.5-0.5-0.7-1.2-0.7-2.1c0-0.9,0.2-1.6,0.7-2.2c0.5-0.5,1.1-0.8,1.9-0.8
			c0.7,0,1.3,0.3,1.8,0.8c0.5,0.5,0.7,1.2,0.7,2.1c0,0.1,0,0.1,0,0.2h-4.1c0,0.6,0.2,1.1,0.5,1.4c0.3,0.3,0.7,0.5,1.2,0.5
			c0.3,0,0.6-0.1,0.9-0.3C405.9,58.4,406,58.1,406.2,57.7z M403.1,56.2h3.1c0-0.5-0.2-0.8-0.4-1c-0.3-0.4-0.7-0.5-1.2-0.5
			c-0.4,0-0.8,0.1-1.1,0.4C403.3,55.4,403.1,55.7,403.1,56.2z M403.9,53.3l0.7-1.5h1.2l-1.1,1.5H403.9z M408,57.9l0.9-0.1
			c0.1,0.4,0.2,0.7,0.4,0.9c0.2,0.2,0.6,0.3,1,0.3c0.4,0,0.7-0.1,1-0.3c0.2-0.2,0.3-0.4,0.3-0.6c0-0.2-0.1-0.4-0.3-0.5
			c-0.1-0.1-0.4-0.2-1-0.3c-0.7-0.2-1.2-0.3-1.4-0.5c-0.3-0.1-0.5-0.3-0.6-0.5c-0.1-0.2-0.2-0.5-0.2-0.8c0-0.2,0.1-0.5,0.2-0.7
			c0.1-0.2,0.3-0.4,0.5-0.5c0.1-0.1,0.3-0.2,0.6-0.3c0.3-0.1,0.5-0.1,0.8-0.1c0.4,0,0.8,0.1,1.1,0.2c0.3,0.1,0.6,0.3,0.7,0.5
			c0.2,0.2,0.3,0.5,0.3,0.9l-0.9,0.1c0-0.3-0.2-0.5-0.4-0.7c-0.2-0.2-0.5-0.2-0.8-0.2c-0.4,0-0.7,0.1-0.9,0.2
			c-0.2,0.1-0.3,0.3-0.3,0.5c0,0.1,0,0.2,0.1,0.3c0.1,0.1,0.2,0.2,0.4,0.2c0.1,0,0.4,0.1,0.8,0.2c0.7,0.2,1.1,0.3,1.4,0.4
			c0.3,0.1,0.5,0.3,0.6,0.5c0.2,0.2,0.2,0.5,0.2,0.8c0,0.3-0.1,0.6-0.3,0.9c-0.2,0.3-0.4,0.5-0.8,0.6c-0.3,0.1-0.7,0.2-1.2,0.2
			c-0.7,0-1.3-0.1-1.6-0.4C408.3,58.9,408.1,58.5,408,57.9z M413.7,53v-1.1h0.9V53H413.7z M413.7,59.5V54h0.9v5.5H413.7z
			 M419.6,59.5v-0.7c-0.3,0.6-0.9,0.8-1.5,0.8c-0.4,0-0.8-0.1-1.2-0.4c-0.4-0.2-0.7-0.6-0.9-1c-0.2-0.4-0.3-0.9-0.3-1.5
			c0-0.6,0.1-1.1,0.3-1.5c0.2-0.5,0.5-0.8,0.8-1c0.4-0.2,0.8-0.4,1.2-0.4c0.3,0,0.6,0.1,0.9,0.2c0.3,0.1,0.5,0.3,0.6,0.5v-2.7h0.9
			v7.6H419.6z M416.7,56.8c0,0.7,0.1,1.2,0.4,1.6c0.3,0.4,0.7,0.5,1.1,0.5s0.8-0.2,1-0.5c0.3-0.3,0.4-0.9,0.4-1.5
			c0-0.8-0.1-1.3-0.4-1.7c-0.3-0.4-0.7-0.5-1.1-0.5c-0.4,0-0.8,0.2-1,0.5C416.8,55.5,416.7,56,416.7,56.8z M425.7,57.7l1,0.1
			c-0.2,0.6-0.4,1-0.9,1.3c-0.4,0.3-0.9,0.5-1.6,0.5c-0.8,0-1.4-0.2-1.9-0.8c-0.5-0.5-0.7-1.2-0.7-2.1c0-0.9,0.2-1.6,0.7-2.2
			c0.5-0.5,1.1-0.8,1.9-0.8c0.7,0,1.3,0.3,1.8,0.8c0.5,0.5,0.7,1.2,0.7,2.1c0,0.1,0,0.1,0,0.2h-4.1c0,0.6,0.2,1.1,0.5,1.4
			c0.3,0.3,0.7,0.5,1.2,0.5c0.3,0,0.6-0.1,0.9-0.3C425.4,58.4,425.6,58.1,425.7,57.7z M422.7,56.2h3.1c0-0.5-0.2-0.8-0.4-1
			c-0.3-0.4-0.7-0.5-1.2-0.5c-0.4,0-0.8,0.1-1.1,0.4C422.9,55.4,422.7,55.7,422.7,56.2z M427.9,59.5V54h0.8v0.8
			c0.4-0.6,1-0.9,1.8-0.9c0.3,0,0.6,0.1,0.9,0.2c0.3,0.1,0.5,0.3,0.6,0.5c0.1,0.2,0.2,0.4,0.3,0.7c0,0.2,0,0.5,0,0.9v3.4h-0.9v-3.4
			c0-0.4,0-0.7-0.1-0.9c-0.1-0.2-0.2-0.3-0.4-0.5c-0.2-0.1-0.4-0.2-0.6-0.2c-0.4,0-0.7,0.1-1,0.4c-0.3,0.2-0.4,0.7-0.4,1.4v3H427.9z
			 M437.4,57.5l0.9,0.1c-0.1,0.6-0.4,1.1-0.8,1.5c-0.4,0.4-0.9,0.5-1.5,0.5c-0.7,0-1.4-0.2-1.8-0.7c-0.5-0.5-0.7-1.2-0.7-2.1
			c0-0.6,0.1-1.1,0.3-1.6c0.2-0.4,0.5-0.8,0.9-1c0.4-0.2,0.8-0.3,1.3-0.3c0.6,0,1.1,0.2,1.5,0.5c0.4,0.3,0.6,0.7,0.7,1.3l-0.9,0.1
			c-0.1-0.4-0.2-0.6-0.5-0.8c-0.2-0.2-0.5-0.3-0.8-0.3c-0.5,0-0.9,0.2-1.2,0.5c-0.3,0.3-0.4,0.9-0.4,1.6c0,0.7,0.1,1.3,0.4,1.6
			c0.3,0.3,0.7,0.5,1.1,0.5c0.4,0,0.7-0.1,0.9-0.3C437.2,58.3,437.4,58,437.4,57.5z M442.9,57.7l1,0.1c-0.2,0.6-0.4,1-0.9,1.3
			c-0.4,0.3-0.9,0.5-1.6,0.5c-0.8,0-1.4-0.2-1.9-0.8c-0.5-0.5-0.7-1.2-0.7-2.1c0-0.9,0.2-1.6,0.7-2.2c0.5-0.5,1.1-0.8,1.9-0.8
			c0.7,0,1.3,0.3,1.8,0.8c0.5,0.5,0.7,1.2,0.7,2.1c0,0.1,0,0.1,0,0.2h-4.1c0,0.6,0.2,1.1,0.5,1.4c0.3,0.3,0.7,0.5,1.2,0.5
			c0.3,0,0.6-0.1,0.9-0.3C442.6,58.4,442.8,58.1,442.9,57.7z M439.8,56.2h3.1c0-0.5-0.2-0.8-0.4-1c-0.3-0.4-0.7-0.5-1.2-0.5
			c-0.4,0-0.8,0.1-1.1,0.4C440,55.4,439.9,55.7,439.8,56.2z"/>
		<path class="st2" d="M2.5,1.5H128v86.4H2.5V1.5z"/>
		<path d="M29,35.5v-7.6h2.6c0.6,0,1,0,1.4,0.1c0.4,0.1,0.8,0.3,1.1,0.5c0.4,0.3,0.7,0.8,0.9,1.3c0.2,0.5,0.3,1.1,0.3,1.8
			c0,0.6-0.1,1.1-0.2,1.5c-0.1,0.4-0.3,0.8-0.5,1.1c-0.2,0.3-0.4,0.5-0.7,0.7c-0.2,0.2-0.6,0.3-0.9,0.4c-0.4,0.1-0.8,0.1-1.2,0.1H29
			z M30,34.5h1.6c0.5,0,0.9,0,1.2-0.1c0.3-0.1,0.5-0.2,0.7-0.4c0.2-0.2,0.4-0.6,0.6-1c0.1-0.4,0.2-0.9,0.2-1.5
			c0-0.8-0.1-1.4-0.4-1.8c-0.3-0.4-0.6-0.7-1-0.9c-0.3-0.1-0.7-0.2-1.3-0.2H30V34.5z M40.4,33.7l1,0.1c-0.2,0.6-0.4,1-0.9,1.3
			c-0.4,0.3-0.9,0.5-1.6,0.5c-0.8,0-1.4-0.2-1.9-0.8c-0.5-0.5-0.7-1.2-0.7-2.1c0-0.9,0.2-1.6,0.7-2.2c0.5-0.5,1.1-0.8,1.9-0.8
			c0.7,0,1.3,0.3,1.8,0.8c0.5,0.5,0.7,1.2,0.7,2.1c0,0.1,0,0.1,0,0.2h-4.1c0,0.6,0.2,1.1,0.5,1.4c0.3,0.3,0.7,0.5,1.2,0.5
			c0.3,0,0.6-0.1,0.9-0.3C40.1,34.4,40.2,34.1,40.4,33.7z M37.3,32.2h3.1c0-0.5-0.2-0.8-0.4-1c-0.3-0.4-0.7-0.5-1.2-0.5
			c-0.4,0-0.8,0.1-1.1,0.4C37.5,31.3,37.3,31.7,37.3,32.2z M38.1,29.2l0.7-1.5H40l-1.1,1.5H38.1z M42.8,35.5v-4.8h-0.8v-0.7h0.8
			v-0.6c0-0.4,0-0.7,0.1-0.8c0.1-0.2,0.2-0.4,0.5-0.6c0.2-0.2,0.5-0.2,1-0.2c0.3,0,0.6,0,0.9,0.1L45,28.6c-0.2,0-0.4-0.1-0.5-0.1
			c-0.3,0-0.5,0.1-0.6,0.2c-0.1,0.1-0.2,0.4-0.2,0.7v0.5h1.1v0.7h-1.1v4.8H42.8z M45.5,28.9v-1.1h0.9v1.1H45.5z M45.5,35.5v-5.5h0.9
			v5.5H45.5z M47.9,35.5v-5.5h0.8v0.8c0.4-0.6,1-0.9,1.8-0.9c0.3,0,0.6,0.1,0.9,0.2c0.3,0.1,0.5,0.3,0.6,0.5
			c0.1,0.2,0.2,0.4,0.3,0.7c0,0.2,0,0.5,0,0.9v3.4h-0.9v-3.4c0-0.4,0-0.7-0.1-0.9c-0.1-0.2-0.2-0.3-0.4-0.5
			c-0.2-0.1-0.4-0.2-0.6-0.2c-0.4,0-0.7,0.1-1,0.4c-0.3,0.2-0.4,0.7-0.4,1.4v3H47.9z M53.8,28.9v-1.1h0.9v1.1H53.8z M53.8,35.5v-5.5
			h0.9v5.5H53.8z M56.1,35.5v-5.5H57v0.8c0.2-0.4,0.4-0.7,0.6-0.8c0.2-0.1,0.4-0.2,0.6-0.2c0.3,0,0.6,0.1,1,0.3L58.8,31
			c-0.2-0.1-0.5-0.2-0.7-0.2c-0.2,0-0.4,0.1-0.6,0.2c-0.2,0.1-0.3,0.3-0.3,0.5c-0.1,0.3-0.2,0.7-0.2,1.1v2.9H56.1z M62.7,35.5v-7.6
			h0.9v7.6H62.7z M68.8,33.7l1,0.1c-0.2,0.6-0.4,1-0.9,1.3c-0.4,0.3-0.9,0.5-1.6,0.5c-0.8,0-1.4-0.2-1.9-0.8
			c-0.5-0.5-0.7-1.2-0.7-2.1c0-0.9,0.2-1.6,0.7-2.2c0.5-0.5,1.1-0.8,1.9-0.8c0.7,0,1.3,0.3,1.8,0.8c0.5,0.5,0.7,1.2,0.7,2.1
			c0,0.1,0,0.1,0,0.2h-4.1c0,0.6,0.2,1.1,0.5,1.4c0.3,0.3,0.7,0.5,1.2,0.5c0.3,0,0.6-0.1,0.9-0.3C68.5,34.4,68.7,34.1,68.8,33.7z
			 M65.7,32.2h3.1c0-0.5-0.2-0.8-0.4-1c-0.3-0.4-0.7-0.5-1.2-0.5c-0.4,0-0.8,0.1-1.1,0.4C65.9,31.3,65.8,31.7,65.7,32.2z M74.8,35.5
			h-0.9v-7.6h0.9v2.7c0.4-0.5,0.9-0.8,1.5-0.8c0.3,0,0.7,0.1,1,0.2c0.3,0.1,0.6,0.3,0.8,0.6c0.2,0.2,0.3,0.5,0.5,0.9
			c0.1,0.4,0.2,0.7,0.2,1.1c0,0.9-0.2,1.7-0.7,2.2c-0.5,0.5-1,0.8-1.7,0.8c-0.6,0-1.2-0.3-1.5-0.8V35.5z M74.8,32.7
			c0,0.7,0.1,1.1,0.3,1.4c0.3,0.5,0.7,0.7,1.2,0.7c0.4,0,0.8-0.2,1.1-0.5c0.3-0.4,0.5-0.9,0.5-1.6c0-0.7-0.1-1.2-0.4-1.6
			c-0.3-0.3-0.6-0.5-1-0.5s-0.8,0.2-1.1,0.5C74.9,31.5,74.8,32,74.8,32.7z M83.5,35.5v-0.8c-0.4,0.6-1,0.9-1.8,0.9
			c-0.3,0-0.6-0.1-0.9-0.2s-0.5-0.3-0.6-0.5c-0.1-0.2-0.2-0.4-0.3-0.7c0-0.2,0-0.5,0-0.9v-3.4h0.9V33c0,0.5,0,0.8,0,1
			c0.1,0.2,0.2,0.4,0.4,0.6c0.2,0.1,0.4,0.2,0.7,0.2c0.3,0,0.5-0.1,0.8-0.2c0.2-0.1,0.4-0.3,0.5-0.6c0.1-0.2,0.2-0.6,0.2-1.1v-3h0.9
			v5.5H83.5z M87.8,34.6l0.1,0.8c-0.3,0.1-0.5,0.1-0.7,0.1c-0.3,0-0.6-0.1-0.8-0.2c-0.2-0.1-0.3-0.3-0.4-0.4
			c-0.1-0.2-0.1-0.5-0.1-1.1v-3.2h-0.7v-0.7h0.7v-1.4l0.9-0.6v1.9h0.9v0.7h-0.9v3.2c0,0.3,0,0.4,0,0.5c0,0.1,0.1,0.1,0.2,0.2
			c0.1,0,0.2,0.1,0.3,0.1C87.5,34.7,87.7,34.6,87.8,34.6z M89,35.5v-1.1h1.1v1.1c0,0.4-0.1,0.7-0.2,1c-0.1,0.2-0.4,0.4-0.7,0.6
			l-0.2-0.4c0.2-0.1,0.3-0.2,0.4-0.4c0.1-0.2,0.1-0.4,0.2-0.7H89z M94.6,35.5v-7.6h0.9v7.6H94.6z M100.6,34.8
			c-0.4,0.3-0.7,0.5-1,0.6c-0.3,0.1-0.7,0.2-1,0.2c-0.6,0-1.1-0.1-1.4-0.4c-0.3-0.3-0.5-0.7-0.5-1.1c0-0.3,0.1-0.5,0.2-0.7
			c0.1-0.2,0.3-0.4,0.5-0.5c0.2-0.1,0.4-0.2,0.7-0.3c0.2,0,0.5-0.1,0.8-0.1c0.8-0.1,1.3-0.2,1.7-0.3c0-0.1,0-0.2,0-0.2
			c0-0.4-0.1-0.7-0.3-0.8c-0.2-0.2-0.6-0.3-1.1-0.3c-0.4,0-0.8,0.1-1,0.2c-0.2,0.2-0.4,0.4-0.5,0.8l-0.9-0.1
			c0.1-0.4,0.2-0.7,0.4-0.9c0.2-0.2,0.5-0.4,0.8-0.6c0.4-0.1,0.8-0.2,1.2-0.2c0.5,0,0.9,0.1,1.2,0.2c0.3,0.1,0.5,0.3,0.6,0.4
			c0.1,0.2,0.2,0.4,0.3,0.6c0,0.2,0,0.4,0,0.9v1.2c0,0.9,0,1.4,0.1,1.7c0,0.2,0.1,0.4,0.2,0.7h-1C100.7,35.3,100.7,35,100.6,34.8z
			 M100.6,32.7c-0.3,0.1-0.9,0.2-1.5,0.3c-0.4,0.1-0.7,0.1-0.8,0.2c-0.2,0.1-0.3,0.2-0.4,0.3c-0.1,0.1-0.1,0.3-0.1,0.4
			c0,0.2,0.1,0.5,0.3,0.6c0.2,0.2,0.5,0.2,0.8,0.2c0.4,0,0.7-0.1,1-0.2s0.5-0.4,0.6-0.7c0.1-0.2,0.2-0.5,0.2-0.9V32.7z"/>
		<path d="M30.6,46.8l0.9-0.1c0.1,0.4,0.2,0.7,0.4,0.9c0.2,0.2,0.6,0.3,1,0.3c0.4,0,0.7-0.1,1-0.3c0.2-0.2,0.3-0.4,0.3-0.6
			c0-0.2-0.1-0.4-0.3-0.5c-0.1-0.1-0.4-0.2-1-0.3c-0.7-0.2-1.2-0.3-1.4-0.5c-0.3-0.1-0.5-0.3-0.6-0.5c-0.1-0.2-0.2-0.5-0.2-0.8
			c0-0.2,0.1-0.5,0.2-0.7c0.1-0.2,0.3-0.4,0.5-0.5c0.1-0.1,0.3-0.2,0.6-0.3c0.3-0.1,0.5-0.1,0.8-0.1c0.4,0,0.8,0.1,1.1,0.2
			c0.3,0.1,0.6,0.3,0.7,0.5c0.2,0.2,0.3,0.5,0.3,0.9l-0.9,0.1c0-0.3-0.2-0.5-0.4-0.7c-0.2-0.2-0.5-0.2-0.8-0.2
			c-0.4,0-0.8,0.1-0.9,0.2c-0.2,0.1-0.3,0.3-0.3,0.5c0,0.1,0,0.2,0.1,0.3c0.1,0.1,0.2,0.2,0.4,0.2c0.1,0,0.4,0.1,0.8,0.2
			c0.7,0.2,1.1,0.3,1.4,0.4c0.3,0.1,0.5,0.3,0.6,0.5c0.2,0.2,0.2,0.5,0.2,0.8c0,0.3-0.1,0.6-0.3,0.9c-0.2,0.3-0.4,0.5-0.8,0.6
			c-0.3,0.1-0.7,0.2-1.2,0.2c-0.7,0-1.3-0.1-1.6-0.4C31,47.8,30.7,47.4,30.6,46.8z M38.4,47.6l0.1,0.8c-0.3,0.1-0.5,0.1-0.7,0.1
			c-0.3,0-0.6-0.1-0.8-0.2c-0.2-0.1-0.3-0.3-0.4-0.4c-0.1-0.2-0.1-0.5-0.1-1.1v-3.2h-0.7v-0.7h0.7v-1.4l0.9-0.6v1.9h0.9v0.7h-0.9
			v3.2c0,0.3,0,0.4,0,0.5c0,0.1,0.1,0.1,0.2,0.2c0.1,0,0.2,0.1,0.3,0.1C38.1,47.7,38.2,47.6,38.4,47.6z M39.3,48.5v-5.5h0.8v0.8
			c0.2-0.4,0.4-0.7,0.6-0.8c0.2-0.1,0.4-0.2,0.6-0.2c0.3,0,0.6,0.1,1,0.3L42,44c-0.2-0.1-0.5-0.2-0.7-0.2c-0.2,0-0.4,0.1-0.6,0.2
			c-0.2,0.1-0.3,0.3-0.3,0.5c-0.1,0.3-0.2,0.7-0.2,1.1v2.9H39.3z M46.5,48.5v-0.8c-0.4,0.6-1,0.9-1.8,0.9c-0.3,0-0.6-0.1-0.9-0.2
			s-0.5-0.3-0.6-0.5c-0.1-0.2-0.2-0.4-0.3-0.7c0-0.2,0-0.5,0-0.9v-3.4h0.9V46c0,0.5,0,0.8,0,1c0.1,0.2,0.2,0.4,0.4,0.6
			c0.2,0.1,0.4,0.2,0.7,0.2c0.3,0,0.5-0.1,0.8-0.2c0.2-0.1,0.4-0.3,0.5-0.6c0.1-0.2,0.2-0.6,0.2-1.1v-3h0.9v5.5H46.5z M52.4,46.4
			l0.9,0.1c-0.1,0.6-0.4,1.1-0.8,1.5c-0.4,0.4-0.9,0.5-1.5,0.5c-0.8,0-1.4-0.2-1.8-0.7c-0.5-0.5-0.7-1.2-0.7-2.1
			c0-0.6,0.1-1.1,0.3-1.6c0.2-0.4,0.5-0.8,0.9-1c0.4-0.2,0.8-0.3,1.3-0.3c0.6,0,1.1,0.2,1.5,0.5c0.4,0.3,0.6,0.7,0.7,1.3l-0.9,0.1
			c-0.1-0.4-0.2-0.6-0.5-0.8s-0.5-0.3-0.8-0.3c-0.5,0-0.9,0.2-1.2,0.5c-0.3,0.3-0.4,0.9-0.4,1.6c0,0.7,0.1,1.3,0.4,1.6
			c0.3,0.3,0.7,0.5,1.1,0.5c0.4,0,0.7-0.1,0.9-0.3C52.1,47.2,52.3,46.9,52.4,46.4z M56.1,47.6l0.1,0.8c-0.3,0.1-0.5,0.1-0.7,0.1
			c-0.3,0-0.6-0.1-0.8-0.2c-0.2-0.1-0.3-0.3-0.4-0.4c-0.1-0.2-0.1-0.5-0.1-1.1v-3.2h-0.7v-0.7h0.7v-1.4l0.9-0.6v1.9h0.9v0.7h-0.9
			v3.2c0,0.3,0,0.4,0,0.5c0,0.1,0.1,0.1,0.2,0.2c0.1,0,0.2,0.1,0.3,0.1C55.8,47.7,56,47.6,56.1,47.6z M60.7,48.5v-0.8
			c-0.4,0.6-1,0.9-1.8,0.9c-0.3,0-0.6-0.1-0.9-0.2s-0.5-0.3-0.6-0.5c-0.1-0.2-0.2-0.4-0.3-0.7c0-0.2,0-0.5,0-0.9v-3.4H58V46
			c0,0.5,0,0.8,0,1c0.1,0.2,0.2,0.4,0.4,0.6c0.2,0.1,0.4,0.2,0.7,0.2c0.3,0,0.5-0.1,0.8-0.2c0.2-0.1,0.4-0.3,0.5-0.6
			c0.1-0.2,0.2-0.6,0.2-1.1v-3h0.9v5.5H60.7z M63,48.5v-5.5h0.8v0.8c0.2-0.4,0.4-0.7,0.6-0.8c0.2-0.1,0.4-0.2,0.6-0.2
			c0.3,0,0.6,0.1,1,0.3L65.6,44c-0.2-0.1-0.5-0.2-0.7-0.2c-0.2,0-0.4,0.1-0.6,0.2c-0.2,0.1-0.3,0.3-0.3,0.5
			c-0.1,0.3-0.2,0.7-0.2,1.1v2.9H63z M70.3,46.7l1,0.1c-0.2,0.6-0.4,1-0.9,1.3c-0.4,0.3-0.9,0.5-1.6,0.5c-0.8,0-1.4-0.2-1.9-0.8
			c-0.5-0.5-0.7-1.2-0.7-2.1c0-0.9,0.2-1.6,0.7-2.2c0.5-0.5,1.1-0.8,1.9-0.8c0.7,0,1.3,0.3,1.8,0.8c0.5,0.5,0.7,1.2,0.7,2.1
			c0,0.1,0,0.1,0,0.2h-4.1c0,0.6,0.2,1.1,0.5,1.4c0.3,0.3,0.7,0.5,1.2,0.5c0.3,0,0.6-0.1,0.9-0.3C70,47.4,70.2,47.1,70.3,46.7z
			 M67.2,45.2h3.1c0-0.5-0.2-0.8-0.4-1c-0.3-0.4-0.7-0.5-1.2-0.5c-0.4,0-0.8,0.1-1.1,0.4C67.4,44.3,67.3,44.7,67.2,45.2z M79.2,46.7
			l1,0.1c-0.2,0.6-0.4,1-0.9,1.3c-0.4,0.3-0.9,0.5-1.6,0.5c-0.8,0-1.4-0.2-1.9-0.8c-0.5-0.5-0.7-1.2-0.7-2.1c0-0.9,0.2-1.6,0.7-2.2
			c0.5-0.5,1.1-0.8,1.9-0.8c0.7,0,1.3,0.3,1.8,0.8c0.5,0.5,0.7,1.2,0.7,2.1c0,0.1,0,0.1,0,0.2h-4.1c0,0.6,0.2,1.1,0.5,1.4
			c0.3,0.3,0.7,0.5,1.2,0.5c0.3,0,0.6-0.1,0.9-0.3C78.9,47.4,79,47.1,79.2,46.7z M76.1,45.2h3.1c0-0.5-0.2-0.8-0.4-1
			c-0.3-0.4-0.7-0.5-1.2-0.5c-0.4,0-0.8,0.1-1.1,0.4C76.3,44.3,76.1,44.7,76.1,45.2z M83.4,47.6l0.1,0.8c-0.3,0.1-0.5,0.1-0.7,0.1
			c-0.3,0-0.6-0.1-0.8-0.2c-0.2-0.1-0.3-0.3-0.4-0.4c-0.1-0.2-0.1-0.5-0.1-1.1v-3.2h-0.7v-0.7h0.7v-1.4l0.9-0.6v1.9h0.9v0.7h-0.9
			v3.2c0,0.3,0,0.4,0,0.5c0,0.1,0.1,0.1,0.2,0.2c0.1,0,0.2,0.1,0.3,0.1C83.1,47.7,83.2,47.6,83.4,47.6z M87.2,48.5v-7.6h0.9v7.6
			H87.2z M93.4,46.7l1,0.1c-0.2,0.6-0.4,1-0.9,1.3c-0.4,0.3-0.9,0.5-1.6,0.5c-0.8,0-1.4-0.2-1.9-0.8c-0.5-0.5-0.7-1.2-0.7-2.1
			c0-0.9,0.2-1.6,0.7-2.2c0.5-0.5,1.1-0.8,1.9-0.8c0.7,0,1.3,0.3,1.8,0.8c0.5,0.5,0.7,1.2,0.7,2.1c0,0.1,0,0.1,0,0.2h-4.1
			c0,0.6,0.2,1.1,0.5,1.4c0.3,0.3,0.7,0.5,1.2,0.5c0.3,0,0.6-0.1,0.9-0.3C93.1,47.4,93.3,47.1,93.4,46.7z M90.3,45.2h3.1
			c0-0.5-0.2-0.8-0.4-1c-0.3-0.4-0.7-0.5-1.2-0.5c-0.4,0-0.8,0.1-1.1,0.4C90.5,44.3,90.4,44.7,90.3,45.2z M95.2,46.8l0.9-0.1
			c0.1,0.4,0.2,0.7,0.4,0.9c0.2,0.2,0.6,0.3,1,0.3s0.7-0.1,1-0.3c0.2-0.2,0.3-0.4,0.3-0.6c0-0.2-0.1-0.4-0.3-0.5
			c-0.1-0.1-0.4-0.2-1-0.3c-0.7-0.2-1.2-0.3-1.4-0.5c-0.3-0.1-0.5-0.3-0.6-0.5c-0.1-0.2-0.2-0.5-0.2-0.8c0-0.2,0.1-0.5,0.2-0.7
			c0.1-0.2,0.3-0.4,0.5-0.5c0.1-0.1,0.3-0.2,0.6-0.3c0.3-0.1,0.5-0.1,0.8-0.1c0.4,0,0.8,0.1,1.1,0.2c0.3,0.1,0.6,0.3,0.7,0.5
			c0.2,0.2,0.3,0.5,0.3,0.9l-0.9,0.1c0-0.3-0.2-0.5-0.4-0.7c-0.2-0.2-0.5-0.2-0.8-0.2c-0.4,0-0.8,0.1-0.9,0.2
			c-0.2,0.1-0.3,0.3-0.3,0.5c0,0.1,0,0.2,0.1,0.3c0.1,0.1,0.2,0.2,0.4,0.2c0.1,0,0.4,0.1,0.8,0.2c0.7,0.2,1.1,0.3,1.4,0.4
			c0.3,0.1,0.5,0.3,0.6,0.5c0.2,0.2,0.2,0.5,0.2,0.8c0,0.3-0.1,0.6-0.3,0.9c-0.2,0.3-0.4,0.5-0.8,0.6c-0.3,0.1-0.7,0.2-1.2,0.2
			c-0.7,0-1.3-0.1-1.6-0.4C95.5,47.8,95.3,47.4,95.2,46.8z"/>
		<path d="M38.7,63.6v-7.7h0.9v0.7c0.2-0.3,0.4-0.5,0.7-0.6c0.3-0.1,0.6-0.2,0.9-0.2c0.5,0,0.9,0.1,1.2,0.4c0.4,0.2,0.6,0.6,0.8,1
			c0.2,0.4,0.3,0.9,0.3,1.5c0,0.6-0.1,1.1-0.3,1.5c-0.2,0.4-0.5,0.8-0.9,1c-0.4,0.2-0.8,0.4-1.2,0.4c-0.3,0-0.6-0.1-0.8-0.2
			c-0.2-0.1-0.5-0.3-0.6-0.5v2.7H38.7z M39.5,58.7c0,0.7,0.1,1.2,0.4,1.6c0.3,0.3,0.6,0.5,1,0.5c0.4,0,0.8-0.2,1.1-0.5
			c0.3-0.4,0.5-0.9,0.5-1.6c0-0.7-0.1-1.2-0.4-1.6c-0.3-0.4-0.6-0.5-1-0.5c-0.4,0-0.8,0.2-1.1,0.6C39.7,57.5,39.5,58,39.5,58.7z
			 M48.2,60.8c-0.4,0.3-0.7,0.5-1,0.6c-0.3,0.1-0.7,0.2-1,0.2c-0.6,0-1.1-0.1-1.4-0.4c-0.3-0.3-0.5-0.7-0.5-1.1
			c0-0.3,0.1-0.5,0.2-0.7c0.1-0.2,0.3-0.4,0.5-0.5c0.2-0.1,0.4-0.2,0.7-0.3c0.2,0,0.5-0.1,0.8-0.1c0.8-0.1,1.3-0.2,1.7-0.3
			c0-0.1,0-0.2,0-0.2c0-0.4-0.1-0.7-0.3-0.8c-0.2-0.2-0.6-0.3-1.1-0.3c-0.4,0-0.8,0.1-1,0.2c-0.2,0.2-0.4,0.4-0.5,0.8l-0.9-0.1
			c0.1-0.4,0.2-0.7,0.4-0.9c0.2-0.2,0.5-0.4,0.8-0.6c0.4-0.1,0.8-0.2,1.2-0.2c0.5,0,0.9,0.1,1.2,0.2c0.3,0.1,0.5,0.3,0.6,0.4
			c0.1,0.2,0.2,0.4,0.3,0.6c0,0.2,0,0.4,0,0.9v1.2c0,0.9,0,1.4,0.1,1.7c0,0.2,0.1,0.4,0.2,0.7h-1C48.3,61.3,48.2,61,48.2,60.8z
			 M48.1,58.7c-0.3,0.1-0.9,0.2-1.5,0.3c-0.4,0.1-0.7,0.1-0.8,0.2c-0.2,0.1-0.3,0.2-0.4,0.3c-0.1,0.1-0.1,0.3-0.1,0.4
			c0,0.2,0.1,0.5,0.3,0.6c0.2,0.2,0.5,0.2,0.8,0.2c0.4,0,0.7-0.1,1-0.2s0.5-0.4,0.6-0.7c0.1-0.2,0.2-0.5,0.2-0.9V58.7z M50.5,61.5
			v-5.5h0.8v0.8c0.2-0.4,0.4-0.7,0.6-0.8c0.2-0.1,0.4-0.2,0.6-0.2c0.3,0,0.6,0.1,1,0.3L53.2,57c-0.2-0.1-0.5-0.2-0.7-0.2
			c-0.2,0-0.4,0.1-0.6,0.2c-0.2,0.1-0.3,0.3-0.3,0.5c-0.1,0.3-0.2,0.7-0.2,1.1v2.9H50.5z M56.1,60.6l0.1,0.8
			c-0.3,0.1-0.5,0.1-0.7,0.1c-0.3,0-0.6-0.1-0.8-0.2c-0.2-0.1-0.3-0.3-0.4-0.4c-0.1-0.2-0.1-0.5-0.1-1.1v-3.2h-0.7v-0.7h0.7v-1.4
			l0.9-0.6v1.9h0.9v0.7h-0.9v3.2c0,0.3,0,0.4,0,0.5c0,0.1,0.1,0.1,0.2,0.2c0.1,0,0.2,0.1,0.3,0.1C55.8,60.7,56,60.6,56.1,60.6z
			 M57.1,54.9v-1.1H58v1.1H57.1z M57.1,61.5v-5.5H58v5.5H57.1z M63,59.4l0.9,0.1c-0.1,0.6-0.4,1.1-0.8,1.5c-0.4,0.4-0.9,0.5-1.5,0.5
			c-0.8,0-1.4-0.2-1.8-0.7c-0.5-0.5-0.7-1.2-0.7-2.1c0-0.6,0.1-1.1,0.3-1.6c0.2-0.4,0.5-0.8,0.9-1c0.4-0.2,0.8-0.3,1.3-0.3
			c0.6,0,1.1,0.2,1.5,0.5c0.4,0.3,0.6,0.7,0.7,1.3l-0.9,0.1c-0.1-0.4-0.2-0.6-0.5-0.8s-0.5-0.3-0.8-0.3c-0.5,0-0.9,0.2-1.2,0.5
			c-0.3,0.3-0.4,0.9-0.4,1.6c0,0.7,0.1,1.3,0.4,1.6c0.3,0.3,0.7,0.5,1.1,0.5c0.4,0,0.7-0.1,0.9-0.3C62.8,60.2,63,59.9,63,59.4z
			 M64.7,54.9v-1.1h0.9v1.1H64.7z M64.7,61.5v-5.5h0.9v5.5H64.7z M67.1,63.6v-7.7H68v0.7c0.2-0.3,0.4-0.5,0.7-0.6
			c0.3-0.1,0.6-0.2,0.9-0.2c0.5,0,0.9,0.1,1.2,0.4c0.4,0.2,0.6,0.6,0.8,1c0.2,0.4,0.3,0.9,0.3,1.5c0,0.6-0.1,1.1-0.3,1.5
			c-0.2,0.4-0.5,0.8-0.9,1c-0.4,0.2-0.8,0.4-1.2,0.4c-0.3,0-0.6-0.1-0.8-0.2c-0.2-0.1-0.5-0.3-0.6-0.5v2.7H67.1z M68,58.7
			c0,0.7,0.1,1.2,0.4,1.6c0.3,0.3,0.6,0.5,1,0.5c0.4,0,0.8-0.2,1.1-0.5c0.3-0.4,0.5-0.9,0.5-1.6c0-0.7-0.1-1.2-0.4-1.6
			c-0.3-0.4-0.6-0.5-1-0.5c-0.4,0-0.8,0.2-1.1,0.6C68.1,57.5,68,58,68,58.7z M76.6,60.8c-0.4,0.3-0.7,0.5-1,0.6
			c-0.3,0.1-0.7,0.2-1,0.2c-0.6,0-1.1-0.1-1.4-0.4c-0.3-0.3-0.5-0.7-0.5-1.1c0-0.3,0.1-0.5,0.2-0.7c0.1-0.2,0.3-0.4,0.5-0.5
			c0.2-0.1,0.4-0.2,0.7-0.3c0.2,0,0.5-0.1,0.8-0.1c0.8-0.1,1.3-0.2,1.7-0.3c0-0.1,0-0.2,0-0.2c0-0.4-0.1-0.7-0.3-0.8
			c-0.2-0.2-0.6-0.3-1.1-0.3c-0.4,0-0.8,0.1-1,0.2c-0.2,0.2-0.4,0.4-0.5,0.8l-0.9-0.1c0.1-0.4,0.2-0.7,0.4-0.9
			c0.2-0.2,0.5-0.4,0.8-0.6c0.4-0.1,0.8-0.2,1.2-0.2c0.5,0,0.9,0.1,1.2,0.2c0.3,0.1,0.5,0.3,0.6,0.4c0.1,0.2,0.2,0.4,0.3,0.6
			c0,0.2,0,0.4,0,0.9v1.2c0,0.9,0,1.4,0.1,1.7c0,0.2,0.1,0.4,0.2,0.7h-1C76.7,61.3,76.7,61,76.6,60.8z M76.6,58.7
			c-0.3,0.1-0.9,0.2-1.5,0.3c-0.4,0.1-0.7,0.1-0.8,0.2c-0.2,0.1-0.3,0.2-0.4,0.3c-0.1,0.1-0.1,0.3-0.1,0.4c0,0.2,0.1,0.5,0.3,0.6
			c0.2,0.2,0.5,0.2,0.8,0.2c0.4,0,0.7-0.1,1-0.2s0.5-0.4,0.6-0.7c0.1-0.2,0.2-0.5,0.2-0.9V58.7z M79,61.5v-5.5h0.8v0.8
			c0.4-0.6,1-0.9,1.8-0.9c0.3,0,0.6,0.1,0.9,0.2c0.3,0.1,0.5,0.3,0.6,0.5c0.1,0.2,0.2,0.4,0.3,0.7c0,0.2,0,0.5,0,0.9v3.4h-0.9v-3.4
			c0-0.4,0-0.7-0.1-0.9c-0.1-0.2-0.2-0.3-0.4-0.5c-0.2-0.1-0.4-0.2-0.6-0.2c-0.4,0-0.7,0.1-1,0.4c-0.3,0.2-0.4,0.7-0.4,1.4v3H79z
			 M86.9,60.6l0.1,0.8c-0.3,0.1-0.5,0.1-0.7,0.1c-0.3,0-0.6-0.1-0.8-0.2c-0.2-0.1-0.3-0.3-0.4-0.4c-0.1-0.2-0.1-0.5-0.1-1.1v-3.2
			h-0.7v-0.7h0.7v-1.4L86,54v1.9h0.9v0.7H86v3.2c0,0.3,0,0.4,0,0.5c0,0.1,0.1,0.1,0.2,0.2c0.1,0,0.2,0.1,0.3,0.1
			C86.6,60.7,86.8,60.6,86.9,60.6z M87.5,59.8l0.9-0.1c0.1,0.4,0.2,0.7,0.4,0.9c0.2,0.2,0.6,0.3,1,0.3c0.4,0,0.7-0.1,1-0.3
			c0.2-0.2,0.3-0.4,0.3-0.6c0-0.2-0.1-0.4-0.3-0.5c-0.1-0.1-0.4-0.2-1-0.3c-0.7-0.2-1.2-0.3-1.4-0.5c-0.3-0.1-0.5-0.3-0.6-0.5
			c-0.1-0.2-0.2-0.5-0.2-0.8c0-0.2,0.1-0.5,0.2-0.7c0.1-0.2,0.3-0.4,0.5-0.5c0.1-0.1,0.3-0.2,0.6-0.3c0.3-0.1,0.5-0.1,0.8-0.1
			c0.4,0,0.8,0.1,1.1,0.2c0.3,0.1,0.6,0.3,0.7,0.5c0.2,0.2,0.3,0.5,0.3,0.9l-0.9,0.1c0-0.3-0.2-0.5-0.4-0.7
			c-0.2-0.2-0.5-0.2-0.8-0.2c-0.4,0-0.8,0.1-0.9,0.2c-0.2,0.1-0.3,0.3-0.3,0.5c0,0.1,0,0.2,0.1,0.3c0.1,0.1,0.2,0.2,0.4,0.2
			c0.1,0,0.4,0.1,0.8,0.2c0.7,0.2,1.1,0.3,1.4,0.4c0.3,0.1,0.5,0.3,0.6,0.5c0.2,0.2,0.2,0.5,0.2,0.8c0,0.3-0.1,0.6-0.3,0.9
			c-0.2,0.3-0.4,0.5-0.8,0.6c-0.3,0.1-0.7,0.2-1.2,0.2c-0.7,0-1.3-0.1-1.6-0.4C87.8,60.8,87.6,60.4,87.5,59.8z"/>
		<path class="st2" d="M171,0.5h122.8v84.6H171V0.5z"/>
		<path d="M182.9,40v-7.6h5.5v0.9h-4.5v2.3h4.2v0.9h-4.2v2.6h4.7V40H182.9z M185.2,31.8l0.7-1.5h1.2l-1.1,1.5H185.2z M191.9,39.2
			l0.1,0.8c-0.3,0.1-0.5,0.1-0.7,0.1c-0.3,0-0.6-0.1-0.8-0.2c-0.2-0.1-0.3-0.3-0.4-0.4c-0.1-0.2-0.1-0.5-0.1-1.1v-3.2h-0.7v-0.7h0.7
			v-1.4l0.9-0.6v1.9h0.9v0.7H191v3.2c0,0.3,0,0.4,0,0.5c0,0.1,0.1,0.1,0.2,0.2c0.1,0,0.2,0.1,0.3,0.1
			C191.6,39.2,191.8,39.2,191.9,39.2z M196.5,39.3c-0.4,0.3-0.7,0.5-1,0.6c-0.3,0.1-0.7,0.2-1,0.2c-0.6,0-1.1-0.1-1.4-0.4
			c-0.3-0.3-0.5-0.7-0.5-1.1c0-0.3,0.1-0.5,0.2-0.7c0.1-0.2,0.3-0.4,0.5-0.5c0.2-0.1,0.4-0.2,0.7-0.3c0.2,0,0.5-0.1,0.8-0.1
			c0.7-0.1,1.3-0.2,1.7-0.3c0-0.1,0-0.2,0-0.2c0-0.4-0.1-0.7-0.3-0.8c-0.2-0.2-0.6-0.3-1.1-0.3c-0.4,0-0.8,0.1-1,0.2
			c-0.2,0.2-0.4,0.4-0.5,0.8l-0.9-0.1c0.1-0.4,0.2-0.7,0.4-0.9c0.2-0.2,0.5-0.4,0.8-0.6c0.4-0.1,0.8-0.2,1.2-0.2
			c0.5,0,0.9,0.1,1.2,0.2c0.3,0.1,0.5,0.3,0.6,0.4c0.1,0.2,0.2,0.4,0.3,0.6c0,0.2,0,0.4,0,0.9v1.2c0,0.9,0,1.4,0.1,1.7
			c0,0.2,0.1,0.4,0.2,0.7h-1C196.5,39.8,196.5,39.6,196.5,39.3z M196.4,37.3c-0.3,0.1-0.9,0.2-1.5,0.3c-0.4,0.1-0.7,0.1-0.8,0.2
			c-0.2,0.1-0.3,0.2-0.4,0.3c-0.1,0.1-0.1,0.3-0.1,0.4c0,0.2,0.1,0.5,0.3,0.6c0.2,0.2,0.5,0.2,0.8,0.2c0.4,0,0.7-0.1,1-0.2
			c0.3-0.2,0.5-0.4,0.6-0.7c0.1-0.2,0.2-0.5,0.2-0.9V37.3z M199.6,40h-0.9v-7.6h0.9v2.7c0.4-0.5,0.9-0.8,1.5-0.8
			c0.3,0,0.7,0.1,1,0.2c0.3,0.1,0.6,0.3,0.8,0.6c0.2,0.2,0.3,0.5,0.5,0.9c0.1,0.4,0.2,0.7,0.2,1.1c0,0.9-0.2,1.7-0.7,2.2
			c-0.5,0.5-1,0.8-1.7,0.8c-0.6,0-1.2-0.3-1.5-0.8V40z M199.6,37.2c0,0.7,0.1,1.1,0.3,1.4c0.3,0.5,0.7,0.7,1.2,0.7
			c0.4,0,0.8-0.2,1.1-0.5c0.3-0.4,0.5-0.9,0.5-1.6c0-0.7-0.1-1.2-0.4-1.6c-0.3-0.3-0.6-0.5-1-0.5s-0.8,0.2-1.1,0.5
			C199.8,36,199.6,36.5,199.6,37.2z M204.7,40v-7.6h0.9V40H204.7z M207.1,33.5v-1.1h0.9v1.1H207.1z M207.1,40v-5.5h0.9V40H207.1z
			 M209.4,40v-5.5h0.8v0.8c0.2-0.4,0.4-0.7,0.6-0.8c0.2-0.1,0.4-0.2,0.6-0.2c0.3,0,0.6,0.1,1,0.3l-0.3,0.9c-0.2-0.1-0.5-0.2-0.7-0.2
			c-0.2,0-0.4,0.1-0.6,0.2c-0.2,0.1-0.3,0.3-0.3,0.5c-0.1,0.3-0.2,0.7-0.2,1.1V40H209.4z M215.9,40v-7.6h0.9V40H215.9z M218.3,33.4
			v-1.1h1v0.9c0,0.5-0.1,0.8-0.2,1c-0.1,0.3-0.4,0.5-0.7,0.6l-0.2-0.4c0.2-0.1,0.3-0.2,0.4-0.4s0.1-0.4,0.2-0.7H218.3z M220.3,37.3
			c0-1,0.3-1.8,0.8-2.3c0.5-0.4,1.1-0.6,1.7-0.6c0.8,0,1.4,0.2,1.9,0.8c0.5,0.5,0.7,1.2,0.7,2.1c0,0.7-0.1,1.3-0.3,1.7
			c-0.2,0.4-0.5,0.7-0.9,1c-0.4,0.2-0.9,0.3-1.3,0.3c-0.8,0-1.4-0.2-1.9-0.7C220.6,38.9,220.3,38.2,220.3,37.3z M221.3,37.3
			c0,0.7,0.2,1.2,0.5,1.6s0.7,0.5,1.2,0.5c0.5,0,0.9-0.2,1.2-0.5c0.3-0.4,0.5-0.9,0.5-1.6c0-0.7-0.2-1.2-0.5-1.5
			c-0.3-0.4-0.7-0.5-1.2-0.5c-0.5,0-0.8,0.2-1.2,0.5C221.5,36,221.3,36.5,221.3,37.3z M226.6,40v-5.5h0.8v0.8
			c0.2-0.4,0.4-0.7,0.6-0.8c0.2-0.1,0.4-0.2,0.6-0.2c0.3,0,0.6,0.1,1,0.3l-0.3,0.9c-0.2-0.1-0.5-0.2-0.7-0.2c-0.2,0-0.4,0.1-0.6,0.2
			c-0.2,0.1-0.3,0.3-0.3,0.5c-0.1,0.3-0.2,0.7-0.2,1.1V40H226.6z M233.7,40v-0.7c-0.3,0.6-0.9,0.8-1.5,0.8c-0.4,0-0.8-0.1-1.2-0.4
			c-0.4-0.2-0.7-0.6-0.9-1c-0.2-0.4-0.3-0.9-0.3-1.5c0-0.6,0.1-1.1,0.3-1.5c0.2-0.5,0.5-0.8,0.8-1s0.8-0.4,1.2-0.4
			c0.3,0,0.6,0.1,0.9,0.2c0.3,0.1,0.5,0.3,0.6,0.5v-2.7h0.9V40H233.7z M230.8,37.3c0,0.7,0.1,1.2,0.4,1.6c0.3,0.4,0.7,0.5,1.1,0.5
			s0.8-0.2,1-0.5c0.3-0.3,0.4-0.9,0.4-1.5c0-0.8-0.1-1.3-0.4-1.7s-0.7-0.5-1.1-0.5c-0.4,0-0.8,0.2-1,0.5
			C230.9,36,230.8,36.5,230.8,37.3z M236.1,40v-5.5h0.8v0.8c0.2-0.4,0.4-0.7,0.6-0.8c0.2-0.1,0.4-0.2,0.6-0.2c0.3,0,0.6,0.1,1,0.3
			l-0.3,0.9c-0.2-0.1-0.5-0.2-0.7-0.2c-0.2,0-0.4,0.1-0.6,0.2c-0.2,0.1-0.3,0.3-0.3,0.5c-0.1,0.3-0.2,0.7-0.2,1.1V40H236.1z
			 M243.4,38.2l1,0.1c-0.2,0.6-0.4,1-0.9,1.3c-0.4,0.3-0.9,0.5-1.6,0.5c-0.8,0-1.4-0.2-1.9-0.8c-0.5-0.5-0.7-1.2-0.7-2.1
			c0-0.9,0.2-1.6,0.7-2.2c0.5-0.5,1.1-0.8,1.9-0.8c0.7,0,1.3,0.3,1.8,0.8c0.5,0.5,0.7,1.2,0.7,2.1c0,0.1,0,0.1,0,0.2h-4.1
			c0,0.6,0.2,1.1,0.5,1.4s0.7,0.5,1.2,0.5c0.3,0,0.6-0.1,0.9-0.3C243.1,38.9,243.3,38.6,243.4,38.2z M240.3,36.7h3.1
			c0-0.5-0.2-0.8-0.4-1c-0.3-0.4-0.7-0.5-1.2-0.5c-0.4,0-0.8,0.1-1.1,0.4C240.5,35.9,240.4,36.2,240.3,36.7z M252.1,40v-0.7
			c-0.3,0.6-0.9,0.8-1.5,0.8c-0.4,0-0.8-0.1-1.2-0.4c-0.4-0.2-0.7-0.6-0.9-1c-0.2-0.4-0.3-0.9-0.3-1.5c0-0.6,0.1-1.1,0.3-1.5
			c0.2-0.5,0.5-0.8,0.8-1s0.8-0.4,1.2-0.4c0.3,0,0.6,0.1,0.9,0.2c0.3,0.1,0.5,0.3,0.6,0.5v-2.7h0.9V40H252.1z M249.1,37.3
			c0,0.7,0.1,1.2,0.4,1.6c0.3,0.4,0.7,0.5,1.1,0.5s0.8-0.2,1-0.5c0.3-0.3,0.4-0.9,0.4-1.5c0-0.8-0.1-1.3-0.4-1.7s-0.7-0.5-1.1-0.5
			c-0.4,0-0.8,0.2-1,0.5C249.3,36,249.1,36.5,249.1,37.3z M258.1,40v-0.8c-0.4,0.6-1,0.9-1.8,0.9c-0.3,0-0.6-0.1-0.9-0.2
			s-0.5-0.3-0.6-0.5s-0.2-0.4-0.3-0.7c0-0.2,0-0.5,0-0.9v-3.4h0.9v3.1c0,0.5,0,0.8,0,1c0.1,0.2,0.2,0.4,0.4,0.6
			c0.2,0.1,0.4,0.2,0.7,0.2c0.3,0,0.5-0.1,0.8-0.2c0.2-0.1,0.4-0.3,0.5-0.6c0.1-0.2,0.2-0.6,0.2-1.1v-3h0.9V40H258.1z M263.3,33.5
			v-1.1h0.9v1.1H263.3z M262.1,42.2l0.2-0.8c0.2,0.1,0.3,0.1,0.4,0.1c0.2,0,0.3-0.1,0.4-0.2s0.1-0.4,0.1-1v-5.8h0.9v5.8
			c0,0.7-0.1,1.2-0.3,1.4c-0.2,0.4-0.6,0.5-1.1,0.5C262.6,42.3,262.4,42.2,262.1,42.2z M265.4,37.3c0-1,0.3-1.8,0.8-2.3
			c0.5-0.4,1.1-0.6,1.7-0.6c0.8,0,1.4,0.2,1.9,0.8c0.5,0.5,0.7,1.2,0.7,2.1c0,0.7-0.1,1.3-0.3,1.7c-0.2,0.4-0.5,0.7-0.9,1
			c-0.4,0.2-0.9,0.3-1.3,0.3c-0.8,0-1.4-0.2-1.9-0.7C265.6,38.9,265.4,38.2,265.4,37.3z M266.3,37.3c0,0.7,0.2,1.2,0.5,1.6
			s0.7,0.5,1.2,0.5c0.5,0,0.9-0.2,1.2-0.5c0.3-0.4,0.5-0.9,0.5-1.6c0-0.7-0.2-1.2-0.5-1.5c-0.3-0.4-0.7-0.5-1.2-0.5
			c-0.5,0-0.8,0.2-1.2,0.5C266.5,36,266.3,36.5,266.3,37.3z M275.3,40v-0.8c-0.4,0.6-1,0.9-1.8,0.9c-0.3,0-0.6-0.1-0.9-0.2
			s-0.5-0.3-0.6-0.5c-0.1-0.2-0.2-0.4-0.3-0.7c0-0.2,0-0.5,0-0.9v-3.4h0.9v3.1c0,0.5,0,0.8,0,1c0.1,0.2,0.2,0.4,0.4,0.6
			c0.2,0.1,0.4,0.2,0.7,0.2c0.3,0,0.5-0.1,0.8-0.2c0.2-0.1,0.4-0.3,0.5-0.6c0.1-0.2,0.2-0.6,0.2-1.1v-3h0.9V40H275.3z M277.5,40
			v-5.5h0.8v0.8c0.2-0.4,0.4-0.7,0.6-0.8c0.2-0.1,0.4-0.2,0.6-0.2c0.3,0,0.6,0.1,1,0.3l-0.3,0.9c-0.2-0.1-0.5-0.2-0.7-0.2
			c-0.2,0-0.4,0.1-0.6,0.2c-0.2,0.1-0.3,0.3-0.3,0.5c-0.1,0.3-0.2,0.7-0.2,1.1V40H277.5z M280.8,40V39h1.1V40c0,0.4-0.1,0.7-0.2,1
			c-0.1,0.2-0.4,0.4-0.7,0.6l-0.2-0.4c0.2-0.1,0.3-0.2,0.4-0.4c0.1-0.2,0.1-0.4,0.2-0.7H280.8z"/>
		<path d="M192.8,53v-7.6h0.9V53H192.8z M199,51.2l1,0.1c-0.2,0.6-0.4,1-0.9,1.3c-0.4,0.3-0.9,0.5-1.6,0.5c-0.8,0-1.4-0.2-1.9-0.8
			c-0.5-0.5-0.7-1.2-0.7-2.1c0-0.9,0.2-1.6,0.7-2.2c0.5-0.5,1.1-0.8,1.9-0.8c0.7,0,1.3,0.3,1.8,0.8c0.5,0.5,0.7,1.2,0.7,2.1
			c0,0.1,0,0.1,0,0.2h-4.1c0,0.6,0.2,1.1,0.5,1.4c0.3,0.3,0.7,0.5,1.2,0.5c0.3,0,0.6-0.1,0.9-0.3C198.7,51.9,198.9,51.6,199,51.2z
			 M195.9,49.7h3.1c0-0.5-0.2-0.8-0.4-1c-0.3-0.4-0.7-0.5-1.2-0.5c-0.4,0-0.8,0.1-1.1,0.4C196.1,48.9,196,49.2,195.9,49.7z
			 M204.1,53v-7.6h0.9V53H204.1z M206.5,46.5v-1.1h0.9v1.1H206.5z M206.5,53v-5.5h0.9V53H206.5z M212.6,51.2l1,0.1
			c-0.2,0.6-0.4,1-0.9,1.3c-0.4,0.3-0.9,0.5-1.6,0.5c-0.8,0-1.4-0.2-1.9-0.8c-0.5-0.5-0.7-1.2-0.7-2.1c0-0.9,0.2-1.6,0.7-2.2
			c0.5-0.5,1.1-0.8,1.9-0.8c0.7,0,1.3,0.3,1.8,0.8c0.5,0.5,0.7,1.2,0.7,2.1c0,0.1,0,0.1,0,0.2h-4.1c0,0.6,0.2,1.1,0.5,1.4
			c0.3,0.3,0.7,0.5,1.2,0.5c0.3,0,0.6-0.1,0.9-0.3C212.3,51.9,212.5,51.6,212.6,51.2z M209.5,49.7h3.1c0-0.5-0.2-0.8-0.4-1
			c-0.3-0.4-0.7-0.5-1.2-0.5c-0.4,0-0.8,0.1-1.1,0.4C209.7,48.9,209.6,49.2,209.5,49.7z M218.4,53v-0.8c-0.4,0.6-1,0.9-1.8,0.9
			c-0.3,0-0.6-0.1-0.9-0.2s-0.5-0.3-0.6-0.5c-0.1-0.2-0.2-0.4-0.3-0.7c0-0.2,0-0.5,0-0.9v-3.4h0.9v3.1c0,0.5,0,0.8,0,1
			c0.1,0.2,0.2,0.4,0.4,0.6c0.2,0.1,0.4,0.2,0.7,0.2c0.3,0,0.5-0.1,0.8-0.2c0.2-0.1,0.4-0.3,0.5-0.6c0.1-0.2,0.2-0.6,0.2-1.1v-3h0.9
			V53H218.4z M227.4,51.2l1,0.1c-0.2,0.6-0.4,1-0.9,1.3c-0.4,0.3-0.9,0.5-1.6,0.5c-0.8,0-1.4-0.2-1.9-0.8c-0.5-0.5-0.7-1.2-0.7-2.1
			c0-0.9,0.2-1.6,0.7-2.2c0.5-0.5,1.1-0.8,1.9-0.8c0.7,0,1.3,0.3,1.8,0.8c0.5,0.5,0.7,1.2,0.7,2.1c0,0.1,0,0.1,0,0.2h-4.1
			c0,0.6,0.2,1.1,0.5,1.4c0.3,0.3,0.7,0.5,1.2,0.5c0.3,0,0.6-0.1,0.9-0.3C227.1,51.9,227.3,51.6,227.4,51.2z M224.4,49.7h3.1
			c0-0.5-0.2-0.8-0.4-1c-0.3-0.4-0.7-0.5-1.2-0.5c-0.4,0-0.8,0.1-1.1,0.4C224.6,48.9,224.4,49.2,224.4,49.7z M231.6,52.2l0.1,0.8
			c-0.3,0.1-0.5,0.1-0.7,0.1c-0.3,0-0.6-0.1-0.8-0.2c-0.2-0.1-0.3-0.3-0.4-0.4c-0.1-0.2-0.1-0.5-0.1-1.1v-3.2h-0.7v-0.7h0.7v-1.4
			l0.9-0.6v1.9h0.9v0.7h-0.9v3.2c0,0.3,0,0.4,0,0.5c0,0.1,0.1,0.1,0.2,0.2c0.1,0,0.2,0.1,0.3,0.1C231.3,52.2,231.5,52.2,231.6,52.2z
			 M235.5,53v-7.6h0.9V53H235.5z M237.8,46.4v-1.1h1v0.9c0,0.5-0.1,0.8-0.2,1c-0.1,0.3-0.4,0.5-0.7,0.6l-0.2-0.4
			c0.2-0.1,0.3-0.2,0.4-0.4c0.1-0.2,0.1-0.4,0.2-0.7H237.8z M240.2,53v-7.6h0.9v2.7c0.4-0.5,1-0.8,1.7-0.8c0.4,0,0.8,0.1,1.1,0.2
			c0.3,0.2,0.5,0.4,0.6,0.7c0.1,0.3,0.2,0.7,0.2,1.2V53h-0.9v-3.5c0-0.5-0.1-0.8-0.3-1c-0.2-0.2-0.5-0.3-0.9-0.3
			c-0.3,0-0.5,0.1-0.8,0.2c-0.2,0.1-0.4,0.3-0.5,0.6c-0.1,0.2-0.2,0.6-0.2,1v3H240.2z M245.8,50.3c0-1,0.3-1.8,0.8-2.3
			c0.5-0.4,1.1-0.6,1.7-0.6c0.8,0,1.4,0.2,1.9,0.8c0.5,0.5,0.7,1.2,0.7,2.1c0,0.7-0.1,1.3-0.3,1.7c-0.2,0.4-0.5,0.7-0.9,1
			c-0.4,0.2-0.9,0.3-1.3,0.3c-0.8,0-1.4-0.2-1.9-0.7C246.1,51.9,245.8,51.2,245.8,50.3z M246.8,50.3c0,0.7,0.2,1.2,0.5,1.6
			c0.3,0.4,0.7,0.5,1.2,0.5c0.5,0,0.9-0.2,1.2-0.5c0.3-0.4,0.5-0.9,0.5-1.6c0-0.7-0.2-1.2-0.5-1.5c-0.3-0.4-0.7-0.5-1.2-0.5
			c-0.5,0-0.8,0.2-1.2,0.5C246.9,49,246.8,49.5,246.8,50.3z M252.1,53v-5.5h0.8v0.8c0.2-0.4,0.4-0.7,0.6-0.8
			c0.2-0.1,0.4-0.2,0.6-0.2c0.3,0,0.6,0.1,1,0.3l-0.3,0.9c-0.2-0.1-0.5-0.2-0.7-0.2c-0.2,0-0.4,0.1-0.6,0.2
			c-0.2,0.1-0.3,0.3-0.3,0.5c-0.1,0.3-0.2,0.7-0.2,1.1V53H252.1z M259.3,52.3c-0.4,0.3-0.7,0.5-1,0.6c-0.3,0.1-0.7,0.2-1,0.2
			c-0.6,0-1.1-0.1-1.4-0.4c-0.3-0.3-0.5-0.7-0.5-1.1c0-0.3,0.1-0.5,0.2-0.7c0.1-0.2,0.3-0.4,0.5-0.5c0.2-0.1,0.4-0.2,0.7-0.3
			c0.2,0,0.5-0.1,0.8-0.1c0.8-0.1,1.3-0.2,1.7-0.3c0-0.1,0-0.2,0-0.2c0-0.4-0.1-0.7-0.3-0.8c-0.2-0.2-0.6-0.3-1.1-0.3
			c-0.4,0-0.8,0.1-1,0.2c-0.2,0.2-0.4,0.4-0.5,0.8l-0.9-0.1c0.1-0.4,0.2-0.7,0.4-0.9c0.2-0.2,0.5-0.4,0.8-0.6
			c0.4-0.1,0.8-0.2,1.2-0.2c0.5,0,0.9,0.1,1.2,0.2c0.3,0.1,0.5,0.3,0.6,0.4c0.1,0.2,0.2,0.4,0.3,0.6c0,0.2,0,0.4,0,0.9v1.2
			c0,0.9,0,1.4,0.1,1.7c0,0.2,0.1,0.4,0.2,0.7h-1C259.3,52.8,259.3,52.6,259.3,52.3z M259.2,50.3c-0.3,0.1-0.9,0.2-1.5,0.3
			c-0.4,0.1-0.7,0.1-0.8,0.2c-0.2,0.1-0.3,0.2-0.4,0.3c-0.1,0.1-0.1,0.3-0.1,0.4c0,0.2,0.1,0.5,0.3,0.6c0.2,0.2,0.5,0.2,0.8,0.2
			c0.4,0,0.7-0.1,1-0.2s0.5-0.4,0.6-0.7c0.1-0.2,0.2-0.5,0.2-0.9V50.3z M261.6,46.5v-1.1h0.9v1.1H261.6z M261.6,53v-5.5h0.9V53
			H261.6z M263.9,53v-5.5h0.8v0.8c0.2-0.4,0.4-0.7,0.6-0.8c0.2-0.1,0.4-0.2,0.6-0.2c0.3,0,0.6,0.1,1,0.3l-0.3,0.9
			c-0.2-0.1-0.5-0.2-0.7-0.2c-0.2,0-0.4,0.1-0.6,0.2c-0.2,0.1-0.3,0.3-0.3,0.5c-0.1,0.3-0.2,0.7-0.2,1.1V53H263.9z M271.3,51.2
			l1,0.1c-0.2,0.6-0.4,1-0.9,1.3c-0.4,0.3-0.9,0.5-1.6,0.5c-0.8,0-1.4-0.2-1.9-0.8c-0.5-0.5-0.7-1.2-0.7-2.1c0-0.9,0.2-1.6,0.7-2.2
			c0.5-0.5,1.1-0.8,1.9-0.8c0.7,0,1.3,0.3,1.8,0.8c0.5,0.5,0.7,1.2,0.7,2.1c0,0.1,0,0.1,0,0.2h-4.1c0,0.6,0.2,1.1,0.5,1.4
			c0.3,0.3,0.7,0.5,1.2,0.5c0.3,0,0.6-0.1,0.9-0.3C270.9,51.9,271.1,51.6,271.3,51.2z M268.2,49.7h3.1c0-0.5-0.2-0.8-0.4-1
			c-0.3-0.4-0.7-0.5-1.2-0.5c-0.4,0-0.8,0.1-1.1,0.4C268.4,48.9,268.2,49.2,268.2,49.7z"/>
		<path class="st0" d="M126,40.5h36.6v-4.2l8.4,8.4l-8.4,8.4v-4.2H126V40.5z"/>
		<path class="st1" d="M126,40.5h36.6v-4.2l8.4,8.4l-8.4,8.4v-4.2H126V40.5z"/>
		<path class="st0" d="M293.8,40.5h36.6v-4.2l8.4,8.4l-8.4,8.4v-4.2h-36.6V40.5z"/>
		<path class="st1" d="M293.8,40.5h36.6v-4.2l8.4,8.4l-8.4,8.4v-4.2h-36.6V40.5z"/>
	</g>
</g>
</svg>
