<?xml version="1.0" encoding="utf-8"?>
<!-- Generator: Adobe Illustrator 23.0.6, SVG Export Plug-In . SVG Version: 6.00 Build 0)  -->
<svg version="1.1" id="Layer_1" xmlns="http://www.w3.org/2000/svg" xmlns:xlink="http://www.w3.org/1999/xlink" x="0px" y="0px"
	 viewBox="0 0 457.7 87.9" style="enable-background:new 0 0 457.7 87.9;" xml:space="preserve">
<style type="text/css">
	.st0{fill-rule:evenodd;clip-rule:evenodd;fill:#CFE2F3;}
	.st1{fill:none;stroke:#000000;stroke-linejoin:round;stroke-miterlimit:10;}
	.st2{fill-rule:evenodd;clip-rule:evenodd;fill-opacity:0;}
</style>
<g>
	<g>
		<path class="st0" d="M0.5,0.5H126v84.6H0.5V0.5z"/>
		<path class="st1" d="M0.5,0.5H126v84.6H0.5V0.5z"/>
		<path class="st0" d="M171,0.5h125.5v84.6H171V0.5z"/>
		<path class="st1" d="M171,0.5h125.5v84.6H171V0.5z"/>
		<path class="st0" d="M341.6,0.5h115.7v84.6H341.6V0.5z"/>
		<path class="st1" d="M341.6,0.5h115.7v84.6H341.6V0.5z"/>
		<path d="M355.8,33.5v-7.6h5.5v0.9h-4.5v2.3h4.2V30h-4.2v2.6h4.7v0.9H355.8z M358.1,25.3l0.7-1.5h1.2l-1.1,1.5H358.1z M364.3,33.5
			l-2.1-5.5h1l1.2,3.3c0.1,0.4,0.2,0.7,0.4,1.1c0.1-0.3,0.2-0.6,0.3-1l1.2-3.4h1l-2.1,5.5H364.3z M371.7,32.8
			c-0.4,0.3-0.7,0.5-1,0.6c-0.3,0.1-0.7,0.2-1,0.2c-0.6,0-1.1-0.1-1.4-0.4c-0.3-0.3-0.5-0.7-0.5-1.1c0-0.3,0.1-0.5,0.2-0.7
			c0.1-0.2,0.3-0.4,0.5-0.5c0.2-0.1,0.4-0.2,0.7-0.3c0.2,0,0.5-0.1,0.8-0.1c0.8-0.1,1.3-0.2,1.7-0.3c0-0.1,0-0.2,0-0.2
			c0-0.4-0.1-0.7-0.3-0.8c-0.2-0.2-0.6-0.3-1.1-0.3c-0.4,0-0.8,0.1-1,0.2c-0.2,0.2-0.4,0.4-0.5,0.8l-0.9-0.1
			c0.1-0.4,0.2-0.7,0.4-0.9c0.2-0.2,0.5-0.4,0.8-0.6c0.4-0.1,0.8-0.2,1.2-0.2c0.5,0,0.9,0.1,1.2,0.2c0.3,0.1,0.5,0.3,0.6,0.4
			c0.1,0.2,0.2,0.4,0.3,0.6c0,0.2,0,0.4,0,0.9v1.2c0,0.9,0,1.4,0.1,1.7c0,0.2,0.1,0.4,0.2,0.7h-1C371.8,33.3,371.7,33.1,371.7,32.8z
			 M371.6,30.8c-0.3,0.1-0.9,0.2-1.5,0.3c-0.4,0.1-0.7,0.1-0.8,0.2c-0.2,0.1-0.3,0.2-0.4,0.3c-0.1,0.1-0.1,0.3-0.1,0.4
			c0,0.2,0.1,0.5,0.3,0.6s0.5,0.2,0.8,0.2c0.4,0,0.7-0.1,1-0.2s0.5-0.4,0.6-0.7c0.1-0.2,0.2-0.5,0.2-0.9V30.8z M374,33.5v-7.6h0.9
			v7.6H374z M380,33.5v-0.8c-0.4,0.6-1,0.9-1.8,0.9c-0.3,0-0.6-0.1-0.9-0.2c-0.3-0.1-0.5-0.3-0.6-0.5c-0.1-0.2-0.2-0.4-0.3-0.7
			c0-0.2,0-0.5,0-0.9V28h0.9v3.1c0,0.5,0,0.8,0,1c0.1,0.2,0.2,0.4,0.4,0.6c0.2,0.1,0.4,0.2,0.7,0.2c0.3,0,0.5-0.1,0.8-0.2
			c0.2-0.1,0.4-0.3,0.5-0.6c0.1-0.2,0.2-0.6,0.2-1.1v-3h0.9v5.5H380z M386.1,31.7l1,0.1c-0.2,0.6-0.4,1-0.9,1.3
			c-0.4,0.3-0.9,0.5-1.6,0.5c-0.8,0-1.4-0.2-1.9-0.8c-0.5-0.5-0.7-1.2-0.7-2.1c0-0.9,0.2-1.6,0.7-2.2c0.5-0.5,1.1-0.8,1.9-0.8
			c0.7,0,1.3,0.3,1.8,0.8c0.5,0.5,0.7,1.2,0.7,2.1c0,0.1,0,0.1,0,0.2H383c0,0.6,0.2,1.1,0.5,1.4s0.7,0.5,1.2,0.5
			c0.3,0,0.6-0.1,0.9-0.3C385.8,32.4,386,32.1,386.1,31.7z M383,30.2h3.1c0-0.5-0.2-0.8-0.4-1c-0.3-0.4-0.7-0.5-1.2-0.5
			c-0.4,0-0.8,0.1-1.1,0.4C383.2,29.4,383.1,29.7,383,30.2z M388.2,33.5V28h0.8v0.8c0.2-0.4,0.4-0.7,0.6-0.8
			c0.2-0.1,0.4-0.2,0.6-0.2c0.3,0,0.6,0.1,1,0.3l-0.3,0.9c-0.2-0.1-0.5-0.2-0.7-0.2c-0.2,0-0.4,0.1-0.6,0.2
			c-0.2,0.1-0.3,0.3-0.3,0.5c-0.1,0.3-0.2,0.7-0.2,1.1v2.9H388.2z M394.7,33.5v-7.6h0.9v7.6H394.7z M400.7,32.8
			c-0.4,0.3-0.7,0.5-1,0.6c-0.3,0.1-0.7,0.2-1,0.2c-0.6,0-1.1-0.1-1.4-0.4c-0.3-0.3-0.5-0.7-0.5-1.1c0-0.3,0.1-0.5,0.2-0.7
			c0.1-0.2,0.3-0.4,0.5-0.5c0.2-0.1,0.4-0.2,0.7-0.3c0.2,0,0.5-0.1,0.8-0.1c0.7-0.1,1.3-0.2,1.7-0.3c0-0.1,0-0.2,0-0.2
			c0-0.4-0.1-0.7-0.3-0.8c-0.2-0.2-0.6-0.3-1.1-0.3c-0.4,0-0.8,0.1-1,0.2c-0.2,0.2-0.4,0.4-0.5,0.8l-0.9-0.1
			c0.1-0.4,0.2-0.7,0.4-0.9c0.2-0.2,0.5-0.4,0.8-0.6c0.4-0.1,0.8-0.2,1.2-0.2c0.5,0,0.9,0.1,1.2,0.2c0.3,0.1,0.5,0.3,0.6,0.4
			c0.1,0.2,0.2,0.4,0.3,0.6c0,0.2,0,0.4,0,0.9v1.2c0,0.9,0,1.4,0.1,1.7c0,0.2,0.1,0.4,0.2,0.7h-1C400.8,33.3,400.8,33.1,400.7,32.8z
			 M400.7,30.8c-0.3,0.1-0.9,0.2-1.5,0.3c-0.4,0.1-0.7,0.1-0.8,0.2c-0.2,0.1-0.3,0.2-0.4,0.3c-0.1,0.1-0.1,0.3-0.1,0.4
			c0,0.2,0.1,0.5,0.3,0.6c0.2,0.2,0.5,0.2,0.8,0.2c0.4,0,0.7-0.1,1-0.2c0.3-0.2,0.5-0.4,0.6-0.7c0.1-0.2,0.2-0.5,0.2-0.9V30.8z
			 M406,33.5V28h0.8v0.8c0.2-0.4,0.4-0.7,0.6-0.8c0.2-0.1,0.4-0.2,0.6-0.2c0.3,0,0.6,0.1,1,0.3l-0.3,0.9c-0.2-0.1-0.5-0.2-0.7-0.2
			c-0.2,0-0.4,0.1-0.6,0.2c-0.2,0.1-0.3,0.3-0.3,0.5c-0.1,0.3-0.2,0.7-0.2,1.1v2.9H406z M413.3,31.7l1,0.1c-0.2,0.6-0.4,1-0.9,1.3
			c-0.4,0.3-0.9,0.5-1.6,0.5c-0.8,0-1.4-0.2-1.9-0.8c-0.5-0.5-0.7-1.2-0.7-2.1c0-0.9,0.2-1.6,0.7-2.2c0.5-0.5,1.1-0.8,1.9-0.8
			c0.7,0,1.3,0.3,1.8,0.8c0.5,0.5,0.7,1.2,0.7,2.1c0,0.1,0,0.1,0,0.2h-4.1c0,0.6,0.2,1.1,0.5,1.4s0.7,0.5,1.2,0.5
			c0.3,0,0.6-0.1,0.9-0.3C413,32.4,413.2,32.1,413.3,31.7z M410.3,30.2h3.1c0-0.5-0.2-0.8-0.4-1c-0.3-0.4-0.7-0.5-1.2-0.5
			c-0.4,0-0.8,0.1-1.1,0.4C410.5,29.4,410.3,29.7,410.3,30.2z M411,27.3l0.7-1.5h1.2l-1.1,1.5H411z M419.1,33.5v-0.8
			c-0.4,0.6-1,0.9-1.8,0.9c-0.3,0-0.6-0.1-0.9-0.2s-0.5-0.3-0.6-0.5s-0.2-0.4-0.3-0.7c0-0.2,0-0.5,0-0.9V28h0.9v3.1c0,0.5,0,0.8,0,1
			c0.1,0.2,0.2,0.4,0.4,0.6c0.2,0.1,0.4,0.2,0.7,0.2c0.3,0,0.5-0.1,0.8-0.2c0.2-0.1,0.4-0.3,0.5-0.6c0.1-0.2,0.2-0.6,0.2-1.1v-3h0.9
			v5.5H419.1z M421.4,33.5V28h0.8v0.8c0.4-0.6,1-0.9,1.8-0.9c0.3,0,0.6,0.1,0.9,0.2c0.3,0.1,0.5,0.3,0.6,0.5
			c0.1,0.2,0.2,0.4,0.3,0.7c0,0.2,0,0.5,0,0.9v3.4H425v-3.4c0-0.4,0-0.7-0.1-0.9s-0.2-0.3-0.4-0.5c-0.2-0.1-0.4-0.2-0.6-0.2
			c-0.4,0-0.7,0.1-1,0.4c-0.3,0.2-0.4,0.7-0.4,1.4v3H421.4z M427.3,27v-1.1h0.9V27H427.3z M427.3,33.5V28h0.9v5.5H427.3z
			 M429.4,30.8c0-1,0.3-1.8,0.8-2.3c0.5-0.4,1.1-0.6,1.7-0.6c0.8,0,1.4,0.2,1.9,0.8c0.5,0.5,0.7,1.2,0.7,2.1c0,0.7-0.1,1.3-0.3,1.7
			c-0.2,0.4-0.5,0.7-0.9,1c-0.4,0.2-0.9,0.3-1.3,0.3c-0.8,0-1.4-0.2-1.9-0.7C429.6,32.4,429.4,31.7,429.4,30.8z M430.3,30.8
			c0,0.7,0.2,1.2,0.5,1.6s0.7,0.5,1.2,0.5c0.5,0,0.9-0.2,1.2-0.5c0.3-0.4,0.5-0.9,0.5-1.6c0-0.7-0.2-1.2-0.5-1.5
			c-0.3-0.4-0.7-0.5-1.2-0.5c-0.5,0-0.8,0.2-1.2,0.5C430.5,29.5,430.3,30,430.3,30.8z M435.6,33.5V28h0.8v0.8c0.4-0.6,1-0.9,1.8-0.9
			c0.3,0,0.6,0.1,0.9,0.2c0.3,0.1,0.5,0.3,0.6,0.5c0.1,0.2,0.2,0.4,0.3,0.7c0,0.2,0,0.5,0,0.9v3.4h-0.9v-3.4c0-0.4,0-0.7-0.1-0.9
			s-0.2-0.3-0.4-0.5c-0.2-0.1-0.4-0.2-0.6-0.2c-0.4,0-0.7,0.1-1,0.4c-0.3,0.2-0.4,0.7-0.4,1.4v3H435.6z M441.8,33.5v-1.1h1.1v1.1
			c0,0.4-0.1,0.7-0.2,1c-0.1,0.2-0.4,0.4-0.7,0.6l-0.2-0.4c0.2-0.1,0.3-0.2,0.4-0.4c0.1-0.2,0.1-0.4,0.2-0.7H441.8z"/>
		<path d="M362.7,44.9l0.9-0.1c0.1,0.4,0.2,0.7,0.4,0.9c0.2,0.2,0.6,0.3,1,0.3c0.4,0,0.7-0.1,1-0.3c0.2-0.2,0.3-0.4,0.3-0.6
			c0-0.2-0.1-0.4-0.3-0.5c-0.1-0.1-0.4-0.2-1-0.3c-0.7-0.2-1.2-0.3-1.4-0.5c-0.3-0.1-0.5-0.3-0.6-0.5c-0.1-0.2-0.2-0.5-0.2-0.8
			c0-0.2,0.1-0.5,0.2-0.7c0.1-0.2,0.3-0.4,0.5-0.5c0.1-0.1,0.3-0.2,0.6-0.3c0.3-0.1,0.5-0.1,0.8-0.1c0.4,0,0.8,0.1,1.1,0.2
			c0.3,0.1,0.6,0.3,0.7,0.5c0.2,0.2,0.3,0.5,0.3,0.9l-0.9,0.1c0-0.3-0.2-0.5-0.4-0.7c-0.2-0.2-0.5-0.2-0.8-0.2
			c-0.4,0-0.8,0.1-0.9,0.2c-0.2,0.1-0.3,0.3-0.3,0.5c0,0.1,0,0.2,0.1,0.3c0.1,0.1,0.2,0.2,0.4,0.2c0.1,0,0.4,0.1,0.8,0.2
			c0.7,0.2,1.1,0.3,1.4,0.4c0.3,0.1,0.5,0.3,0.6,0.5c0.2,0.2,0.2,0.5,0.2,0.8c0,0.3-0.1,0.6-0.3,0.9c-0.2,0.3-0.4,0.5-0.8,0.6
			c-0.3,0.1-0.7,0.2-1.2,0.2c-0.7,0-1.3-0.1-1.6-0.4C363,45.9,362.8,45.5,362.7,44.9z M372.2,44.7l1,0.1c-0.2,0.6-0.4,1-0.9,1.3
			c-0.4,0.3-0.9,0.5-1.6,0.5c-0.8,0-1.4-0.2-1.9-0.8c-0.5-0.5-0.7-1.2-0.7-2.1c0-0.9,0.2-1.6,0.7-2.2c0.5-0.5,1.1-0.8,1.9-0.8
			c0.7,0,1.3,0.3,1.8,0.8c0.5,0.5,0.7,1.2,0.7,2.1c0,0.1,0,0.1,0,0.2h-4.1c0,0.6,0.2,1.1,0.5,1.4c0.3,0.3,0.7,0.5,1.2,0.5
			c0.3,0,0.6-0.1,0.9-0.3C371.8,45.4,372,45.1,372.2,44.7z M369.1,43.2h3.1c0-0.5-0.2-0.8-0.4-1c-0.3-0.4-0.7-0.5-1.2-0.5
			c-0.4,0-0.8,0.1-1.1,0.4C369.3,42.4,369.1,42.7,369.1,43.2z M374,44.9l0.9-0.1c0.1,0.4,0.2,0.7,0.4,0.9c0.2,0.2,0.6,0.3,1,0.3
			c0.4,0,0.7-0.1,1-0.3c0.2-0.2,0.3-0.4,0.3-0.6c0-0.2-0.1-0.4-0.3-0.5c-0.1-0.1-0.4-0.2-1-0.3c-0.7-0.2-1.2-0.3-1.4-0.5
			c-0.3-0.1-0.5-0.3-0.6-0.5c-0.1-0.2-0.2-0.5-0.2-0.8c0-0.2,0.1-0.5,0.2-0.7c0.1-0.2,0.3-0.4,0.5-0.5c0.1-0.1,0.3-0.2,0.6-0.3
			c0.3-0.1,0.5-0.1,0.8-0.1c0.4,0,0.8,0.1,1.1,0.2c0.3,0.1,0.6,0.3,0.7,0.5c0.2,0.2,0.3,0.5,0.3,0.9l-0.9,0.1c0-0.3-0.2-0.5-0.4-0.7
			c-0.2-0.2-0.5-0.2-0.8-0.2c-0.4,0-0.7,0.1-0.9,0.2c-0.2,0.1-0.3,0.3-0.3,0.5c0,0.1,0,0.2,0.1,0.3c0.1,0.1,0.2,0.2,0.4,0.2
			c0.1,0,0.4,0.1,0.8,0.2c0.7,0.2,1.1,0.3,1.4,0.4c0.3,0.1,0.5,0.3,0.6,0.5c0.2,0.2,0.2,0.5,0.2,0.8c0,0.3-0.1,0.6-0.3,0.9
			c-0.2,0.3-0.4,0.5-0.8,0.6c-0.3,0.1-0.7,0.2-1.2,0.2c-0.7,0-1.3-0.1-1.6-0.4C374.3,45.9,374.1,45.5,374,44.9z M382.6,46.5V41h0.8
			v0.8c0.2-0.4,0.4-0.7,0.6-0.8c0.2-0.1,0.4-0.2,0.6-0.2c0.3,0,0.6,0.1,1,0.3l-0.3,0.9c-0.2-0.1-0.5-0.2-0.7-0.2
			c-0.2,0-0.4,0.1-0.6,0.2c-0.2,0.1-0.3,0.3-0.3,0.5c-0.1,0.3-0.2,0.7-0.2,1.1v2.9H382.6z M390,44.7l1,0.1c-0.2,0.6-0.4,1-0.9,1.3
			c-0.4,0.3-0.9,0.5-1.6,0.5c-0.8,0-1.4-0.2-1.9-0.8c-0.5-0.5-0.7-1.2-0.7-2.1c0-0.9,0.2-1.6,0.7-2.2c0.5-0.5,1.1-0.8,1.9-0.8
			c0.7,0,1.3,0.3,1.8,0.8c0.5,0.5,0.7,1.2,0.7,2.1c0,0.1,0,0.1,0,0.2h-4.1c0,0.6,0.2,1.1,0.5,1.4c0.3,0.3,0.7,0.5,1.2,0.5
			c0.3,0,0.6-0.1,0.9-0.3C389.6,45.4,389.8,45.1,390,44.7z M386.9,43.2h3.1c0-0.5-0.2-0.8-0.4-1c-0.3-0.4-0.7-0.5-1.2-0.5
			c-0.4,0-0.8,0.1-1.1,0.4C387.1,42.4,386.9,42.7,386.9,43.2z M387.6,40.3l0.7-1.5h1.2l-1.1,1.5H387.6z M395.7,46.5v-0.8
			c-0.4,0.6-1,0.9-1.8,0.9c-0.3,0-0.6-0.1-0.9-0.2s-0.5-0.3-0.6-0.5c-0.1-0.2-0.2-0.4-0.3-0.7c0-0.2,0-0.5,0-0.9V41h0.9v3.1
			c0,0.5,0,0.8,0,1c0.1,0.2,0.2,0.4,0.4,0.6c0.2,0.1,0.4,0.2,0.7,0.2c0.3,0,0.5-0.1,0.8-0.2c0.2-0.1,0.4-0.3,0.5-0.6
			c0.1-0.2,0.2-0.6,0.2-1.1v-3h0.9v5.5H395.7z M397.6,44.9l0.9-0.1c0.1,0.4,0.2,0.7,0.4,0.9c0.2,0.2,0.6,0.3,1,0.3
			c0.4,0,0.7-0.1,1-0.3c0.2-0.2,0.3-0.4,0.3-0.6c0-0.2-0.1-0.4-0.3-0.5c-0.1-0.1-0.4-0.2-1-0.3c-0.7-0.2-1.2-0.3-1.4-0.5
			c-0.3-0.1-0.5-0.3-0.6-0.5c-0.1-0.2-0.2-0.5-0.2-0.8c0-0.2,0.1-0.5,0.2-0.7c0.1-0.2,0.3-0.4,0.5-0.5c0.1-0.1,0.3-0.2,0.6-0.3
			c0.3-0.1,0.5-0.1,0.8-0.1c0.4,0,0.8,0.1,1.1,0.2c0.3,0.1,0.6,0.3,0.7,0.5c0.2,0.2,0.3,0.5,0.3,0.9l-0.9,0.1c0-0.3-0.2-0.5-0.4-0.7
			c-0.2-0.2-0.5-0.2-0.8-0.2c-0.4,0-0.8,0.1-0.9,0.2c-0.2,0.1-0.3,0.3-0.3,0.5c0,0.1,0,0.2,0.1,0.3c0.1,0.1,0.2,0.2,0.4,0.2
			c0.1,0,0.4,0.1,0.8,0.2c0.7,0.2,1.1,0.3,1.4,0.4c0.3,0.1,0.5,0.3,0.6,0.5c0.2,0.2,0.2,0.5,0.2,0.8c0,0.3-0.1,0.6-0.3,0.9
			c-0.2,0.3-0.4,0.5-0.8,0.6c-0.3,0.1-0.7,0.2-1.2,0.2c-0.7,0-1.3-0.1-1.6-0.4C398,45.9,397.8,45.5,397.6,44.9z M403,44.9l0.9-0.1
			c0.1,0.4,0.2,0.7,0.4,0.9c0.2,0.2,0.6,0.3,1,0.3c0.4,0,0.7-0.1,1-0.3c0.2-0.2,0.3-0.4,0.3-0.6c0-0.2-0.1-0.4-0.3-0.5
			c-0.1-0.1-0.4-0.2-1-0.3c-0.7-0.2-1.2-0.3-1.4-0.5c-0.3-0.1-0.5-0.3-0.6-0.5c-0.1-0.2-0.2-0.5-0.2-0.8c0-0.2,0.1-0.5,0.2-0.7
			c0.1-0.2,0.3-0.4,0.5-0.5c0.1-0.1,0.3-0.2,0.6-0.3c0.3-0.1,0.5-0.1,0.8-0.1c0.4,0,0.8,0.1,1.1,0.2c0.3,0.1,0.6,0.3,0.7,0.5
			c0.2,0.2,0.3,0.5,0.3,0.9l-0.9,0.1c0-0.3-0.2-0.5-0.4-0.7c-0.2-0.2-0.5-0.2-0.8-0.2c-0.4,0-0.8,0.1-0.9,0.2
			c-0.2,0.1-0.3,0.3-0.3,0.5c0,0.1,0,0.2,0.1,0.3c0.1,0.1,0.2,0.2,0.4,0.2c0.1,0,0.4,0.1,0.8,0.2c0.7,0.2,1.1,0.3,1.4,0.4
			c0.3,0.1,0.5,0.3,0.6,0.5c0.2,0.2,0.2,0.5,0.2,0.8c0,0.3-0.1,0.6-0.3,0.9c-0.2,0.3-0.4,0.5-0.8,0.6c-0.3,0.1-0.7,0.2-1.2,0.2
			c-0.7,0-1.3-0.1-1.6-0.4C403.3,45.9,403.1,45.5,403,44.9z M408.7,40v-1.1h0.9V40H408.7z M408.7,46.5V41h0.9v5.5H408.7z
			 M413.1,45.7l0.1,0.8c-0.3,0.1-0.5,0.1-0.7,0.1c-0.3,0-0.6-0.1-0.8-0.2c-0.2-0.1-0.3-0.3-0.4-0.4c-0.1-0.2-0.1-0.5-0.1-1.1v-3.2
			h-0.7V41h0.7v-1.4l0.9-0.6V41h0.9v0.7h-0.9V45c0,0.3,0,0.4,0,0.5c0,0.1,0.1,0.1,0.2,0.2c0.1,0,0.2,0.1,0.3,0.1
			C412.8,45.7,412.9,45.7,413.1,45.7z M417.8,44.7l1,0.1c-0.2,0.6-0.4,1-0.9,1.3c-0.4,0.3-0.9,0.5-1.6,0.5c-0.8,0-1.4-0.2-1.9-0.8
			c-0.5-0.5-0.7-1.2-0.7-2.1c0-0.9,0.2-1.6,0.7-2.2c0.5-0.5,1.1-0.8,1.9-0.8c0.7,0,1.3,0.3,1.8,0.8c0.5,0.5,0.7,1.2,0.7,2.1
			c0,0.1,0,0.1,0,0.2h-4.1c0,0.6,0.2,1.1,0.5,1.4c0.3,0.3,0.7,0.5,1.2,0.5c0.3,0,0.6-0.1,0.9-0.3C417.4,45.4,417.6,45.1,417.8,44.7z
			 M414.7,43.2h3.1c0-0.5-0.2-0.8-0.4-1c-0.3-0.4-0.7-0.5-1.2-0.5c-0.4,0-0.8,0.1-1.1,0.4C414.9,42.4,414.7,42.7,414.7,43.2z
			 M419.6,44.9l0.9-0.1c0.1,0.4,0.2,0.7,0.4,0.9c0.2,0.2,0.6,0.3,1,0.3s0.7-0.1,1-0.3c0.2-0.2,0.3-0.4,0.3-0.6
			c0-0.2-0.1-0.4-0.3-0.5c-0.1-0.1-0.4-0.2-1-0.3c-0.7-0.2-1.2-0.3-1.4-0.5c-0.3-0.1-0.5-0.3-0.6-0.5c-0.1-0.2-0.2-0.5-0.2-0.8
			c0-0.2,0.1-0.5,0.2-0.7c0.1-0.2,0.3-0.4,0.5-0.5c0.1-0.1,0.3-0.2,0.6-0.3c0.3-0.1,0.5-0.1,0.8-0.1c0.4,0,0.8,0.1,1.1,0.2
			c0.3,0.1,0.6,0.3,0.7,0.5c0.2,0.2,0.3,0.5,0.3,0.9l-0.9,0.1c0-0.3-0.2-0.5-0.4-0.7c-0.2-0.2-0.5-0.2-0.8-0.2
			c-0.4,0-0.8,0.1-0.9,0.2c-0.2,0.1-0.3,0.3-0.3,0.5c0,0.1,0,0.2,0.1,0.3c0.1,0.1,0.2,0.2,0.4,0.2c0.1,0,0.4,0.1,0.8,0.2
			c0.7,0.2,1.1,0.3,1.4,0.4c0.3,0.1,0.5,0.3,0.6,0.5c0.2,0.2,0.2,0.5,0.2,0.8c0,0.3-0.1,0.6-0.3,0.9c-0.2,0.3-0.4,0.5-0.8,0.6
			c-0.3,0.1-0.7,0.2-1.2,0.2c-0.7,0-1.3-0.1-1.6-0.4C419.9,45.9,419.7,45.5,419.6,44.9z M432,44.7l1,0.1c-0.2,0.6-0.4,1-0.9,1.3
			c-0.4,0.3-0.9,0.5-1.6,0.5c-0.8,0-1.4-0.2-1.9-0.8c-0.5-0.5-0.7-1.2-0.7-2.1c0-0.9,0.2-1.6,0.7-2.2c0.5-0.5,1.1-0.8,1.9-0.8
			c0.7,0,1.3,0.3,1.8,0.8c0.5,0.5,0.7,1.2,0.7,2.1c0,0.1,0,0.1,0,0.2h-4.1c0,0.6,0.2,1.1,0.5,1.4c0.3,0.3,0.7,0.5,1.2,0.5
			c0.3,0,0.6-0.1,0.9-0.3C431.7,45.4,431.9,45.1,432,44.7z M428.9,43.2h3.1c0-0.5-0.2-0.8-0.4-1c-0.3-0.4-0.7-0.5-1.2-0.5
			c-0.4,0-0.8,0.1-1.1,0.4C429.1,42.4,429,42.7,428.9,43.2z M436.2,45.7l0.1,0.8c-0.3,0.1-0.5,0.1-0.7,0.1c-0.3,0-0.6-0.1-0.8-0.2
			c-0.2-0.1-0.3-0.3-0.4-0.4c-0.1-0.2-0.1-0.5-0.1-1.1v-3.2h-0.7V41h0.7v-1.4l0.9-0.6V41h0.9v0.7h-0.9V45c0,0.3,0,0.4,0,0.5
			c0,0.1,0.1,0.1,0.2,0.2c0.1,0,0.2,0.1,0.3,0.1C435.9,45.7,436,45.7,436.2,45.7z"/>
		<path d="M357.7,61.6V54h0.9v0.7c0.2-0.3,0.4-0.5,0.7-0.6c0.3-0.1,0.6-0.2,0.9-0.2c0.5,0,0.9,0.1,1.2,0.4c0.4,0.2,0.6,0.6,0.8,1
			c0.2,0.4,0.3,0.9,0.3,1.5c0,0.6-0.1,1.1-0.3,1.5c-0.2,0.4-0.5,0.8-0.9,1c-0.4,0.2-0.8,0.4-1.2,0.4c-0.3,0-0.6-0.1-0.8-0.2
			c-0.2-0.1-0.5-0.3-0.6-0.5v2.7H357.7z M358.6,56.8c0,0.7,0.1,1.2,0.4,1.6s0.6,0.5,1,0.5c0.4,0,0.8-0.2,1.1-0.5
			c0.3-0.4,0.5-0.9,0.5-1.6c0-0.7-0.1-1.2-0.4-1.6c-0.3-0.4-0.6-0.5-1-0.5c-0.4,0-0.8,0.2-1.1,0.6C358.7,55.5,358.6,56.1,358.6,56.8
			z M363.3,56.8c0-1,0.3-1.8,0.8-2.3c0.5-0.4,1.1-0.6,1.7-0.6c0.8,0,1.4,0.2,1.9,0.8c0.5,0.5,0.7,1.2,0.7,2.1c0,0.7-0.1,1.3-0.3,1.7
			c-0.2,0.4-0.5,0.7-0.9,1c-0.4,0.2-0.9,0.3-1.3,0.3c-0.8,0-1.4-0.2-1.9-0.7C363.6,58.4,363.3,57.7,363.3,56.8z M364.3,56.8
			c0,0.7,0.2,1.2,0.5,1.6c0.3,0.4,0.7,0.5,1.2,0.5c0.5,0,0.9-0.2,1.2-0.5c0.3-0.4,0.5-0.9,0.5-1.6c0-0.7-0.2-1.2-0.5-1.5
			c-0.3-0.4-0.7-0.5-1.2-0.5c-0.5,0-0.8,0.2-1.2,0.5C364.4,55.5,364.3,56,364.3,56.8z M369.6,53v-1.1h0.9V53H369.6z M369.6,59.5V54
			h0.9v5.5H369.6z M372,59.5V54h0.8v0.8c0.4-0.6,1-0.9,1.8-0.9c0.3,0,0.6,0.1,0.9,0.2c0.3,0.1,0.5,0.3,0.6,0.5
			c0.1,0.2,0.2,0.4,0.3,0.7c0,0.2,0,0.5,0,0.9v3.4h-0.9v-3.4c0-0.4,0-0.7-0.1-0.9c-0.1-0.2-0.2-0.3-0.4-0.5
			c-0.2-0.1-0.4-0.2-0.6-0.2c-0.4,0-0.7,0.1-1,0.4c-0.3,0.2-0.4,0.7-0.4,1.4v3H372z M379.9,58.7l0.1,0.8c-0.3,0.1-0.5,0.1-0.7,0.1
			c-0.3,0-0.6-0.1-0.8-0.2c-0.2-0.1-0.3-0.3-0.4-0.4c-0.1-0.2-0.1-0.5-0.1-1.1v-3.2h-0.7V54h0.7v-1.4l0.9-0.6V54h0.9v0.7H379V58
			c0,0.3,0,0.4,0,0.5c0,0.1,0.1,0.1,0.2,0.2c0.1,0,0.2,0.1,0.3,0.1C379.6,58.7,379.8,58.7,379.9,58.7z M380.5,57.9l0.9-0.1
			c0.1,0.4,0.2,0.7,0.4,0.9c0.2,0.2,0.6,0.3,1,0.3c0.4,0,0.7-0.1,1-0.3c0.2-0.2,0.3-0.4,0.3-0.6c0-0.2-0.1-0.4-0.3-0.5
			c-0.1-0.1-0.4-0.2-1-0.3c-0.7-0.2-1.2-0.3-1.4-0.5c-0.3-0.1-0.5-0.3-0.6-0.5c-0.1-0.2-0.2-0.5-0.2-0.8c0-0.2,0.1-0.5,0.2-0.7
			c0.1-0.2,0.3-0.4,0.5-0.5c0.1-0.1,0.3-0.2,0.6-0.3c0.3-0.1,0.5-0.1,0.8-0.1c0.4,0,0.8,0.1,1.1,0.2c0.3,0.1,0.6,0.3,0.7,0.5
			c0.2,0.2,0.3,0.5,0.3,0.9l-0.9,0.1c0-0.3-0.2-0.5-0.4-0.7c-0.2-0.2-0.5-0.2-0.8-0.2c-0.4,0-0.8,0.1-0.9,0.2
			c-0.2,0.1-0.3,0.3-0.3,0.5c0,0.1,0,0.2,0.1,0.3c0.1,0.1,0.2,0.2,0.4,0.2c0.1,0,0.4,0.1,0.8,0.2c0.7,0.2,1.1,0.3,1.4,0.4
			c0.3,0.1,0.5,0.3,0.6,0.5c0.2,0.2,0.2,0.5,0.2,0.8c0,0.3-0.1,0.6-0.3,0.9c-0.2,0.3-0.4,0.5-0.8,0.6c-0.3,0.1-0.7,0.2-1.2,0.2
			c-0.7,0-1.3-0.1-1.6-0.4C380.8,58.9,380.6,58.5,380.5,57.9z M392.7,58.8c-0.4,0.3-0.7,0.5-1,0.6c-0.3,0.1-0.7,0.2-1,0.2
			c-0.6,0-1.1-0.1-1.4-0.4c-0.3-0.3-0.5-0.7-0.5-1.1c0-0.3,0.1-0.5,0.2-0.7c0.1-0.2,0.3-0.4,0.5-0.5c0.2-0.1,0.4-0.2,0.7-0.3
			c0.2,0,0.5-0.1,0.8-0.1c0.8-0.1,1.3-0.2,1.7-0.3c0-0.1,0-0.2,0-0.2c0-0.4-0.1-0.7-0.3-0.8c-0.2-0.2-0.6-0.3-1.1-0.3
			c-0.4,0-0.8,0.1-1,0.2c-0.2,0.2-0.4,0.4-0.5,0.8l-0.9-0.1c0.1-0.4,0.2-0.7,0.4-0.9c0.2-0.2,0.5-0.4,0.8-0.6
			c0.4-0.1,0.8-0.2,1.2-0.2c0.5,0,0.9,0.1,1.2,0.2c0.3,0.1,0.5,0.3,0.6,0.4c0.1,0.2,0.2,0.4,0.3,0.6c0,0.2,0,0.4,0,0.9v1.2
			c0,0.9,0,1.4,0.1,1.7c0,0.2,0.1,0.4,0.2,0.7h-1C392.8,59.3,392.8,59.1,392.7,58.8z M392.7,56.8c-0.3,0.1-0.9,0.2-1.5,0.3
			c-0.4,0.1-0.7,0.1-0.8,0.2c-0.2,0.1-0.3,0.2-0.4,0.3c-0.1,0.1-0.1,0.3-0.1,0.4c0,0.2,0.1,0.5,0.3,0.6c0.2,0.2,0.5,0.2,0.8,0.2
			c0.4,0,0.7-0.1,1-0.2s0.5-0.4,0.6-0.7c0.1-0.2,0.2-0.5,0.2-0.9V56.8z M391.9,53.3h-0.8l-1.2-1.5h1.2L391.9,53.3z M401.6,58.8
			c-0.4,0.3-0.7,0.5-1,0.6c-0.3,0.1-0.7,0.2-1,0.2c-0.6,0-1.1-0.1-1.4-0.4c-0.3-0.3-0.5-0.7-0.5-1.1c0-0.3,0.1-0.5,0.2-0.7
			c0.1-0.2,0.3-0.4,0.5-0.5c0.2-0.1,0.4-0.2,0.7-0.3c0.2,0,0.5-0.1,0.8-0.1c0.8-0.1,1.3-0.2,1.7-0.3c0-0.1,0-0.2,0-0.2
			c0-0.4-0.1-0.7-0.3-0.8c-0.2-0.2-0.6-0.3-1.1-0.3c-0.4,0-0.8,0.1-1,0.2c-0.2,0.2-0.4,0.4-0.5,0.8l-0.9-0.1
			c0.1-0.4,0.2-0.7,0.4-0.9c0.2-0.2,0.5-0.4,0.8-0.6c0.4-0.1,0.8-0.2,1.2-0.2c0.5,0,0.9,0.1,1.2,0.2c0.3,0.1,0.5,0.3,0.6,0.4
			c0.1,0.2,0.2,0.4,0.3,0.6c0,0.2,0,0.4,0,0.9v1.2c0,0.9,0,1.4,0.1,1.7c0,0.2,0.1,0.4,0.2,0.7h-1C401.7,59.3,401.7,59.1,401.6,58.8z
			 M401.6,56.8c-0.3,0.1-0.9,0.2-1.5,0.3c-0.4,0.1-0.7,0.1-0.8,0.2c-0.2,0.1-0.3,0.2-0.4,0.3c-0.1,0.1-0.1,0.3-0.1,0.4
			c0,0.2,0.1,0.5,0.3,0.6c0.2,0.2,0.5,0.2,0.8,0.2c0.4,0,0.7-0.1,1-0.2s0.5-0.4,0.6-0.7c0.1-0.2,0.2-0.5,0.2-0.9V56.8z M404,59.5V54
			h0.8v0.8c0.2-0.3,0.4-0.5,0.7-0.7c0.3-0.2,0.6-0.2,1-0.2c0.4,0,0.7,0.1,1,0.3c0.3,0.2,0.4,0.4,0.6,0.7c0.4-0.6,1-1,1.7-1
			c0.6,0,1,0.2,1.3,0.5c0.3,0.3,0.4,0.8,0.4,1.4v3.8h-0.9V56c0-0.4,0-0.6-0.1-0.8c-0.1-0.2-0.2-0.3-0.3-0.4
			c-0.2-0.1-0.3-0.2-0.5-0.2c-0.4,0-0.7,0.1-1,0.4c-0.2,0.3-0.4,0.7-0.4,1.2v3.2h-0.9v-3.6c0-0.4-0.1-0.7-0.2-0.9
			c-0.1-0.2-0.4-0.3-0.8-0.3c-0.3,0-0.5,0.1-0.7,0.2c-0.2,0.1-0.4,0.3-0.5,0.6c-0.1,0.3-0.1,0.6-0.1,1.2v2.9H404z M416.6,57.7l1,0.1
			c-0.2,0.6-0.4,1-0.9,1.3c-0.4,0.3-0.9,0.5-1.6,0.5c-0.8,0-1.4-0.2-1.9-0.8c-0.5-0.5-0.7-1.2-0.7-2.1c0-0.9,0.2-1.6,0.7-2.2
			c0.5-0.5,1.1-0.8,1.9-0.8c0.7,0,1.3,0.3,1.8,0.8c0.5,0.5,0.7,1.2,0.7,2.1c0,0.1,0,0.1,0,0.2h-4.1c0,0.6,0.2,1.1,0.5,1.4
			c0.3,0.3,0.7,0.5,1.2,0.5c0.3,0,0.6-0.1,0.9-0.3C416.3,58.4,416.5,58.1,416.6,57.7z M413.5,56.2h3.1c0-0.5-0.2-0.8-0.4-1
			c-0.3-0.4-0.7-0.5-1.2-0.5c-0.4,0-0.8,0.1-1.1,0.4C413.7,55.4,413.6,55.7,413.5,56.2z M414.3,53.3l0.7-1.5h1.2l-1.1,1.5H414.3z
			 M418.7,59.5v-7.6h0.9v7.6H418.7z M421.1,53v-1.1h0.9V53H421.1z M421.1,59.5V54h0.9v5.5H421.1z M423.1,56.8c0-1,0.3-1.8,0.8-2.3
			c0.5-0.4,1.1-0.6,1.7-0.6c0.8,0,1.4,0.2,1.9,0.8c0.5,0.5,0.7,1.2,0.7,2.1c0,0.7-0.1,1.3-0.3,1.7c-0.2,0.4-0.5,0.7-0.9,1
			c-0.4,0.2-0.9,0.3-1.3,0.3c-0.8,0-1.4-0.2-1.9-0.7C423.4,58.4,423.1,57.7,423.1,56.8z M424.1,56.8c0,0.7,0.2,1.2,0.5,1.6
			c0.3,0.4,0.7,0.5,1.2,0.5c0.5,0,0.9-0.2,1.2-0.5c0.3-0.4,0.5-0.9,0.5-1.6c0-0.7-0.2-1.2-0.5-1.5c-0.3-0.4-0.7-0.5-1.2-0.5
			c-0.5,0-0.8,0.2-1.2,0.5C424.3,55.5,424.1,56,424.1,56.8z M429.4,59.5V54h0.8v0.8c0.2-0.4,0.4-0.7,0.6-0.8
			c0.2-0.1,0.4-0.2,0.6-0.2c0.3,0,0.6,0.1,1,0.3l-0.3,0.9c-0.2-0.1-0.5-0.2-0.7-0.2c-0.2,0-0.4,0.1-0.6,0.2
			c-0.2,0.1-0.3,0.3-0.3,0.5c-0.1,0.3-0.2,0.7-0.2,1.1v2.9H429.4z M436.7,57.7l1,0.1c-0.2,0.6-0.4,1-0.9,1.3
			c-0.4,0.3-0.9,0.5-1.6,0.5c-0.8,0-1.4-0.2-1.9-0.8c-0.5-0.5-0.7-1.2-0.7-2.1c0-0.9,0.2-1.6,0.7-2.2c0.5-0.5,1.1-0.8,1.9-0.8
			c0.7,0,1.3,0.3,1.8,0.8c0.5,0.5,0.7,1.2,0.7,2.1c0,0.1,0,0.1,0,0.2h-4.1c0,0.6,0.2,1.1,0.5,1.4c0.3,0.3,0.7,0.5,1.2,0.5
			c0.3,0,0.6-0.1,0.9-0.3C436.4,58.4,436.6,58.1,436.7,57.7z M433.7,56.2h3.1c0-0.5-0.2-0.8-0.4-1c-0.3-0.4-0.7-0.5-1.2-0.5
			c-0.4,0-0.8,0.1-1.1,0.4C433.9,55.4,433.7,55.7,433.7,56.2z M438.9,59.5V54h0.8v0.8c0.2-0.4,0.4-0.7,0.6-0.8
			c0.2-0.1,0.4-0.2,0.6-0.2c0.3,0,0.6,0.1,1,0.3l-0.3,0.9c-0.2-0.1-0.5-0.2-0.7-0.2c-0.2,0-0.4,0.1-0.6,0.2
			c-0.2,0.1-0.3,0.3-0.3,0.5c-0.1,0.3-0.2,0.7-0.2,1.1v2.9H438.9z"/>
		<path class="st2" d="M2.5,1.5H128v86.4H2.5V1.5z"/>
		<path d="M35,22.5v-6.7h-2.5v-0.9h6v0.9H36v6.7H35z M39.1,22.5v-5.5h0.8v0.8c0.2-0.4,0.4-0.7,0.6-0.8c0.2-0.1,0.4-0.2,0.6-0.2
			c0.3,0,0.6,0.1,1,0.3L41.8,18c-0.2-0.1-0.5-0.2-0.7-0.2c-0.2,0-0.4,0.1-0.6,0.2c-0.2,0.1-0.3,0.3-0.3,0.5
			c-0.1,0.3-0.2,0.7-0.2,1.1v2.9H39.1z M46.2,21.8c-0.4,0.3-0.7,0.5-1,0.6c-0.3,0.1-0.7,0.2-1,0.2c-0.6,0-1.1-0.1-1.4-0.4
			c-0.3-0.3-0.5-0.7-0.5-1.1c0-0.3,0.1-0.5,0.2-0.7c0.1-0.2,0.3-0.4,0.5-0.5c0.2-0.1,0.4-0.2,0.7-0.3c0.2,0,0.5-0.1,0.8-0.1
			c0.8-0.1,1.3-0.2,1.7-0.3c0-0.1,0-0.2,0-0.2c0-0.4-0.1-0.7-0.3-0.8c-0.2-0.2-0.6-0.3-1.1-0.3c-0.4,0-0.8,0.1-1,0.2
			c-0.2,0.2-0.4,0.4-0.5,0.8l-0.9-0.1c0.1-0.4,0.2-0.7,0.4-0.9c0.2-0.2,0.5-0.4,0.8-0.6c0.4-0.1,0.8-0.2,1.2-0.2
			c0.5,0,0.9,0.1,1.2,0.2c0.3,0.1,0.5,0.3,0.6,0.4c0.1,0.2,0.2,0.4,0.3,0.6c0,0.2,0,0.4,0,0.9v1.2c0,0.9,0,1.4,0.1,1.7
			c0,0.2,0.1,0.4,0.2,0.7h-1C46.3,22.3,46.3,22,46.2,21.8z M46.2,19.7c-0.3,0.1-0.9,0.2-1.5,0.3c-0.4,0.1-0.7,0.1-0.8,0.2
			c-0.2,0.1-0.3,0.2-0.4,0.3c-0.1,0.1-0.1,0.3-0.1,0.4c0,0.2,0.1,0.5,0.3,0.6c0.2,0.2,0.5,0.2,0.8,0.2c0.4,0,0.7-0.1,1-0.2
			s0.5-0.4,0.6-0.7c0.1-0.2,0.2-0.5,0.2-0.9V19.7z M48.6,22.5v-5.5h0.8v0.8c0.4-0.6,1-0.9,1.8-0.9c0.3,0,0.6,0.1,0.9,0.2
			c0.3,0.1,0.5,0.3,0.6,0.5c0.1,0.2,0.2,0.4,0.3,0.7c0,0.2,0,0.5,0,0.9v3.4h-0.9v-3.4c0-0.4,0-0.7-0.1-0.9s-0.2-0.3-0.4-0.5
			c-0.2-0.1-0.4-0.2-0.6-0.2c-0.4,0-0.7,0.1-1,0.4c-0.3,0.2-0.4,0.7-0.4,1.4v3H48.6z M54.1,20.8l0.9-0.1c0.1,0.4,0.2,0.7,0.4,0.9
			c0.2,0.2,0.6,0.3,1,0.3s0.7-0.1,1-0.3c0.2-0.2,0.3-0.4,0.3-0.6c0-0.2-0.1-0.4-0.3-0.5c-0.1-0.1-0.4-0.2-1-0.3
			c-0.7-0.2-1.2-0.3-1.4-0.5c-0.3-0.1-0.5-0.3-0.6-0.5c-0.1-0.2-0.2-0.5-0.2-0.8c0-0.2,0.1-0.5,0.2-0.7c0.1-0.2,0.3-0.4,0.5-0.5
			c0.1-0.1,0.3-0.2,0.6-0.3c0.3-0.1,0.5-0.1,0.8-0.1c0.4,0,0.8,0.1,1.1,0.2c0.3,0.1,0.6,0.3,0.7,0.5c0.2,0.2,0.3,0.5,0.3,0.9
			l-0.9,0.1c0-0.3-0.2-0.5-0.4-0.7c-0.2-0.2-0.5-0.2-0.8-0.2c-0.4,0-0.8,0.1-0.9,0.2c-0.2,0.1-0.3,0.3-0.3,0.5c0,0.1,0,0.2,0.1,0.3
			c0.1,0.1,0.2,0.2,0.4,0.2c0.1,0,0.4,0.1,0.8,0.2c0.7,0.2,1.1,0.3,1.4,0.4c0.3,0.1,0.5,0.3,0.6,0.5c0.2,0.2,0.2,0.5,0.2,0.8
			c0,0.3-0.1,0.6-0.3,0.9c-0.2,0.3-0.4,0.5-0.8,0.6c-0.3,0.1-0.7,0.2-1.2,0.2c-0.7,0-1.3-0.1-1.6-0.4C54.5,21.8,54.2,21.4,54.1,20.8
			z M59.8,22.5v-5.5h0.8v0.8c0.2-0.3,0.4-0.5,0.7-0.7c0.3-0.2,0.6-0.2,1-0.2c0.4,0,0.7,0.1,1,0.3c0.3,0.2,0.4,0.4,0.6,0.7
			c0.4-0.6,1-1,1.7-1c0.6,0,1,0.2,1.3,0.5c0.3,0.3,0.4,0.8,0.4,1.4v3.8h-0.9V19c0-0.4,0-0.6-0.1-0.8c-0.1-0.2-0.2-0.3-0.3-0.4
			c-0.2-0.1-0.3-0.2-0.5-0.2c-0.4,0-0.7,0.1-1,0.4c-0.2,0.3-0.4,0.7-0.4,1.2v3.2h-0.9v-3.6c0-0.4-0.1-0.7-0.2-0.9
			c-0.1-0.2-0.4-0.3-0.8-0.3c-0.3,0-0.5,0.1-0.7,0.2c-0.2,0.1-0.4,0.3-0.5,0.6c-0.1,0.3-0.1,0.6-0.1,1.2v2.9H59.8z M72.5,20.7l1,0.1
			c-0.2,0.6-0.4,1-0.9,1.3c-0.4,0.3-0.9,0.5-1.6,0.5c-0.8,0-1.4-0.2-1.9-0.8c-0.5-0.5-0.7-1.2-0.7-2.1c0-0.9,0.2-1.6,0.7-2.2
			c0.5-0.5,1.1-0.8,1.9-0.8c0.7,0,1.3,0.3,1.8,0.8c0.5,0.5,0.7,1.2,0.7,2.1c0,0.1,0,0.1,0,0.2h-4.1c0,0.6,0.2,1.1,0.5,1.4
			c0.3,0.3,0.7,0.5,1.2,0.5c0.3,0,0.6-0.1,0.9-0.3C72.1,21.4,72.3,21.1,72.5,20.7z M69.4,19.2h3.1c0-0.5-0.2-0.8-0.4-1
			c-0.3-0.4-0.7-0.5-1.2-0.5c-0.4,0-0.8,0.1-1.1,0.4C69.6,18.3,69.4,18.7,69.4,19.2z M76.7,21.6l0.1,0.8c-0.3,0.1-0.5,0.1-0.7,0.1
			c-0.3,0-0.6-0.1-0.8-0.2c-0.2-0.1-0.3-0.3-0.4-0.4c-0.1-0.2-0.1-0.5-0.1-1.1v-3.2h-0.7v-0.7h0.7v-1.4l0.9-0.6v1.9h0.9v0.7h-0.9
			v3.2c0,0.3,0,0.4,0,0.5c0,0.1,0.1,0.1,0.2,0.2c0.1,0,0.2,0.1,0.3,0.1C76.4,21.7,76.5,21.6,76.7,21.6z M79.6,21.6l0.1,0.8
			c-0.3,0.1-0.5,0.1-0.7,0.1c-0.3,0-0.6-0.1-0.8-0.2c-0.2-0.1-0.3-0.3-0.4-0.4c-0.1-0.2-0.1-0.5-0.1-1.1v-3.2h-0.7v-0.7h0.7v-1.4
			l0.9-0.6v1.9h0.9v0.7h-0.9v3.2c0,0.3,0,0.4,0,0.5c0,0.1,0.1,0.1,0.2,0.2c0.1,0,0.2,0.1,0.3,0.1C79.3,21.7,79.5,21.6,79.6,21.6z
			 M80.5,22.5v-5.5h0.8v0.8c0.2-0.4,0.4-0.7,0.6-0.8c0.2-0.1,0.4-0.2,0.6-0.2c0.3,0,0.6,0.1,1,0.3L83.2,18c-0.2-0.1-0.5-0.2-0.7-0.2
			c-0.2,0-0.4,0.1-0.6,0.2c-0.2,0.1-0.3,0.3-0.3,0.5c-0.1,0.3-0.2,0.7-0.2,1.1v2.9H80.5z M87.9,20.7l1,0.1c-0.2,0.6-0.4,1-0.9,1.3
			c-0.4,0.3-0.9,0.5-1.6,0.5c-0.8,0-1.4-0.2-1.9-0.8c-0.5-0.5-0.7-1.2-0.7-2.1c0-0.9,0.2-1.6,0.7-2.2c0.5-0.5,1.1-0.8,1.9-0.8
			c0.7,0,1.3,0.3,1.8,0.8c0.5,0.5,0.7,1.2,0.7,2.1c0,0.1,0,0.1,0,0.2h-4.1c0,0.6,0.2,1.1,0.5,1.4c0.3,0.3,0.7,0.5,1.2,0.5
			c0.3,0,0.6-0.1,0.9-0.3C87.5,21.4,87.7,21.1,87.9,20.7z M84.8,19.2h3.1c0-0.5-0.2-0.8-0.4-1c-0.3-0.4-0.7-0.5-1.2-0.5
			c-0.4,0-0.8,0.1-1.1,0.4C85,18.3,84.8,18.7,84.8,19.2z M96.6,21.8c-0.4,0.3-0.7,0.5-1,0.6c-0.3,0.1-0.7,0.2-1,0.2
			c-0.6,0-1.1-0.1-1.4-0.4c-0.3-0.3-0.5-0.7-0.5-1.1c0-0.3,0.1-0.5,0.2-0.7c0.1-0.2,0.3-0.4,0.5-0.5c0.2-0.1,0.4-0.2,0.7-0.3
			c0.2,0,0.5-0.1,0.8-0.1c0.8-0.1,1.3-0.2,1.7-0.3c0-0.1,0-0.2,0-0.2c0-0.4-0.1-0.7-0.3-0.8c-0.2-0.2-0.6-0.3-1.1-0.3
			c-0.4,0-0.8,0.1-1,0.2c-0.2,0.2-0.4,0.4-0.5,0.8l-0.9-0.1c0.1-0.4,0.2-0.7,0.4-0.9c0.2-0.2,0.5-0.4,0.8-0.6
			c0.4-0.1,0.8-0.2,1.2-0.2c0.5,0,0.9,0.1,1.2,0.2c0.3,0.1,0.5,0.3,0.6,0.4c0.1,0.2,0.2,0.4,0.3,0.6c0,0.2,0,0.4,0,0.9v1.2
			c0,0.9,0,1.4,0.1,1.7c0,0.2,0.1,0.4,0.2,0.7h-1C96.7,22.3,96.6,22,96.6,21.8z M96.5,19.7c-0.3,0.1-0.9,0.2-1.5,0.3
			c-0.4,0.1-0.7,0.1-0.8,0.2c-0.2,0.1-0.3,0.2-0.4,0.3c-0.1,0.1-0.1,0.3-0.1,0.4c0,0.2,0.1,0.5,0.3,0.6c0.2,0.2,0.5,0.2,0.8,0.2
			c0.4,0,0.7-0.1,1-0.2c0.3-0.2,0.5-0.4,0.6-0.7c0.1-0.2,0.2-0.5,0.2-0.9V19.7z M95.7,16.2h-0.8l-1.2-1.5H95L95.7,16.2z"/>
		<path d="M16.2,33.4l0.9,0.1c-0.1,0.6-0.4,1.1-0.8,1.5c-0.4,0.4-0.9,0.5-1.5,0.5c-0.8,0-1.4-0.2-1.8-0.7c-0.5-0.5-0.7-1.2-0.7-2.1
			c0-0.6,0.1-1.1,0.3-1.6c0.2-0.4,0.5-0.8,0.9-1c0.4-0.2,0.8-0.3,1.3-0.3c0.6,0,1.1,0.2,1.5,0.5c0.4,0.3,0.6,0.7,0.7,1.3l-0.9,0.1
			c-0.1-0.4-0.2-0.6-0.5-0.8s-0.5-0.3-0.8-0.3c-0.5,0-0.9,0.2-1.2,0.5c-0.3,0.3-0.4,0.9-0.4,1.6c0,0.7,0.1,1.3,0.4,1.6
			c0.3,0.3,0.7,0.5,1.1,0.5c0.4,0,0.7-0.1,0.9-0.3C16,34.2,16.2,33.9,16.2,33.4z M18,35.5v-7.6h0.9v2.7c0.4-0.5,1-0.8,1.7-0.8
			c0.4,0,0.8,0.1,1.1,0.2c0.3,0.2,0.5,0.4,0.6,0.7c0.1,0.3,0.2,0.7,0.2,1.2v3.5h-0.9V32c0-0.5-0.1-0.8-0.3-1
			c-0.2-0.2-0.5-0.3-0.9-0.3c-0.3,0-0.5,0.1-0.8,0.2c-0.2,0.1-0.4,0.3-0.5,0.6c-0.1,0.2-0.2,0.6-0.2,1v3H18z M27.5,34.8
			c-0.4,0.3-0.7,0.5-1,0.6c-0.3,0.1-0.7,0.2-1,0.2c-0.6,0-1.1-0.1-1.4-0.4c-0.3-0.3-0.5-0.7-0.5-1.1c0-0.3,0.1-0.5,0.2-0.7
			c0.1-0.2,0.3-0.4,0.5-0.5c0.2-0.1,0.4-0.2,0.7-0.3c0.2,0,0.5-0.1,0.8-0.1c0.8-0.1,1.3-0.2,1.7-0.3c0-0.1,0-0.2,0-0.2
			c0-0.4-0.1-0.7-0.3-0.8c-0.2-0.2-0.6-0.3-1.1-0.3c-0.4,0-0.8,0.1-1,0.2c-0.2,0.2-0.4,0.4-0.5,0.8l-0.9-0.1
			c0.1-0.4,0.2-0.7,0.4-0.9c0.2-0.2,0.5-0.4,0.8-0.6c0.4-0.1,0.8-0.2,1.2-0.2c0.5,0,0.9,0.1,1.2,0.2c0.3,0.1,0.5,0.3,0.6,0.4
			c0.1,0.2,0.2,0.4,0.3,0.6c0,0.2,0,0.4,0,0.9v1.2c0,0.9,0,1.4,0.1,1.7c0,0.2,0.1,0.4,0.2,0.7h-1C27.6,35.3,27.5,35,27.5,34.8z
			 M27.4,32.7c-0.3,0.1-0.9,0.2-1.5,0.3c-0.4,0.1-0.7,0.1-0.8,0.2c-0.2,0.1-0.3,0.2-0.4,0.3c-0.1,0.1-0.1,0.3-0.1,0.4
			c0,0.2,0.1,0.5,0.3,0.6c0.2,0.2,0.5,0.2,0.8,0.2c0.4,0,0.7-0.1,1-0.2s0.5-0.4,0.6-0.7c0.1-0.2,0.2-0.5,0.2-0.9V32.7z M33.4,33.4
			l0.9,0.1c-0.1,0.6-0.4,1.1-0.8,1.5c-0.4,0.4-0.9,0.5-1.5,0.5c-0.8,0-1.4-0.2-1.8-0.7c-0.5-0.5-0.7-1.2-0.7-2.1
			c0-0.6,0.1-1.1,0.3-1.6c0.2-0.4,0.5-0.8,0.9-1c0.4-0.2,0.8-0.3,1.3-0.3c0.6,0,1.1,0.2,1.5,0.5c0.4,0.3,0.6,0.7,0.7,1.3l-0.9,0.1
			c-0.1-0.4-0.2-0.6-0.5-0.8s-0.5-0.3-0.8-0.3c-0.5,0-0.9,0.2-1.2,0.5c-0.3,0.3-0.4,0.9-0.4,1.6c0,0.7,0.1,1.3,0.4,1.6
			c0.3,0.3,0.7,0.5,1.1,0.5c0.4,0,0.7-0.1,0.9-0.3C33.2,34.2,33.3,33.9,33.4,33.4z M38.8,35.5v-0.8c-0.4,0.6-1,0.9-1.8,0.9
			c-0.3,0-0.6-0.1-0.9-0.2s-0.5-0.3-0.6-0.5s-0.2-0.4-0.3-0.7c0-0.2,0-0.5,0-0.9v-3.4h0.9V33c0,0.5,0,0.8,0,1
			c0.1,0.2,0.2,0.4,0.4,0.6c0.2,0.1,0.4,0.2,0.7,0.2c0.3,0,0.5-0.1,0.8-0.2c0.2-0.1,0.4-0.3,0.5-0.6c0.1-0.2,0.2-0.6,0.2-1.1v-3h0.9
			v5.5H38.8z M41.1,35.5v-5.5h0.8v0.8c0.4-0.6,1-0.9,1.8-0.9c0.3,0,0.6,0.1,0.9,0.2c0.3,0.1,0.5,0.3,0.6,0.5
			c0.1,0.2,0.2,0.4,0.3,0.7c0,0.2,0,0.5,0,0.9v3.4h-0.9v-3.4c0-0.4,0-0.7-0.1-0.9s-0.2-0.3-0.4-0.5c-0.2-0.1-0.4-0.2-0.6-0.2
			c-0.4,0-0.7,0.1-1,0.4c-0.3,0.2-0.4,0.7-0.4,1.4v3H41.1z M46.6,33.2v-0.9h2.9v0.9H46.6z M54.3,33.7l1,0.1c-0.2,0.6-0.4,1-0.9,1.3
			c-0.4,0.3-0.9,0.5-1.6,0.5c-0.8,0-1.4-0.2-1.9-0.8c-0.5-0.5-0.7-1.2-0.7-2.1c0-0.9,0.2-1.6,0.7-2.2c0.5-0.5,1.1-0.8,1.9-0.8
			c0.7,0,1.3,0.3,1.8,0.8c0.5,0.5,0.7,1.2,0.7,2.1c0,0.1,0,0.1,0,0.2h-4.1c0,0.6,0.2,1.1,0.5,1.4c0.3,0.3,0.7,0.5,1.2,0.5
			c0.3,0,0.6-0.1,0.9-0.3C54,34.4,54.2,34.1,54.3,33.7z M51.2,32.2h3.1c0-0.5-0.2-0.8-0.4-1c-0.3-0.4-0.7-0.5-1.2-0.5
			c-0.4,0-0.8,0.1-1.1,0.4C51.4,31.3,51.3,31.7,51.2,32.2z M59.4,35.5v-7.6h0.9v7.6H59.4z M65.6,33.7l1,0.1c-0.2,0.6-0.4,1-0.9,1.3
			c-0.4,0.3-0.9,0.5-1.6,0.5c-0.8,0-1.4-0.2-1.9-0.8c-0.5-0.5-0.7-1.2-0.7-2.1c0-0.9,0.2-1.6,0.7-2.2c0.5-0.5,1.1-0.8,1.9-0.8
			c0.7,0,1.3,0.3,1.8,0.8c0.5,0.5,0.7,1.2,0.7,2.1c0,0.1,0,0.1,0,0.2h-4.1c0,0.6,0.2,1.1,0.5,1.4c0.3,0.3,0.7,0.5,1.2,0.5
			c0.3,0,0.6-0.1,0.9-0.3C65.2,34.4,65.4,34.1,65.6,33.7z M62.5,32.2h3.1c0-0.5-0.2-0.8-0.4-1c-0.3-0.4-0.7-0.5-1.2-0.5
			c-0.4,0-0.8,0.1-1.1,0.4C62.7,31.3,62.5,31.7,62.5,32.2z M67.3,33.8l0.9-0.1c0.1,0.4,0.2,0.7,0.4,0.9c0.2,0.2,0.6,0.3,1,0.3
			c0.4,0,0.7-0.1,1-0.3c0.2-0.2,0.3-0.4,0.3-0.6c0-0.2-0.1-0.4-0.3-0.5c-0.1-0.1-0.4-0.2-1-0.3c-0.7-0.2-1.2-0.3-1.4-0.5
			c-0.3-0.1-0.5-0.3-0.6-0.5c-0.1-0.2-0.2-0.5-0.2-0.8c0-0.2,0.1-0.5,0.2-0.7c0.1-0.2,0.3-0.4,0.5-0.5c0.1-0.1,0.3-0.2,0.6-0.3
			c0.3-0.1,0.5-0.1,0.8-0.1c0.4,0,0.8,0.1,1.1,0.2c0.3,0.1,0.6,0.3,0.7,0.5c0.2,0.2,0.3,0.5,0.3,0.9l-0.9,0.1c0-0.3-0.2-0.5-0.4-0.7
			c-0.2-0.2-0.5-0.2-0.8-0.2c-0.4,0-0.7,0.1-0.9,0.2c-0.2,0.1-0.3,0.3-0.3,0.5c0,0.1,0,0.2,0.1,0.3c0.1,0.1,0.2,0.2,0.4,0.2
			c0.1,0,0.4,0.1,0.8,0.2c0.7,0.2,1.1,0.3,1.4,0.4c0.3,0.1,0.5,0.3,0.6,0.5c0.2,0.2,0.2,0.5,0.2,0.8c0,0.3-0.1,0.6-0.3,0.9
			c-0.2,0.3-0.4,0.5-0.8,0.6c-0.3,0.1-0.7,0.2-1.2,0.2c-0.7,0-1.3-0.1-1.6-0.4C67.7,34.8,67.4,34.4,67.3,33.8z M78.1,34.6l0.1,0.8
			c-0.3,0.1-0.5,0.1-0.7,0.1c-0.3,0-0.6-0.1-0.8-0.2c-0.2-0.1-0.3-0.3-0.4-0.4c-0.1-0.2-0.1-0.5-0.1-1.1v-3.2h-0.7v-0.7h0.7v-1.4
			l0.9-0.6v1.9h0.9v0.7h-0.9v3.2c0,0.3,0,0.4,0,0.5c0,0.1,0.1,0.1,0.2,0.2c0.1,0,0.2,0.1,0.3,0.1C77.7,34.7,77.9,34.6,78.1,34.6z
			 M82.6,34.8c-0.4,0.3-0.7,0.5-1,0.6c-0.3,0.1-0.7,0.2-1,0.2c-0.6,0-1.1-0.1-1.4-0.4c-0.3-0.3-0.5-0.7-0.5-1.1
			c0-0.3,0.1-0.5,0.2-0.7c0.1-0.2,0.3-0.4,0.5-0.5c0.2-0.1,0.4-0.2,0.7-0.3c0.2,0,0.5-0.1,0.8-0.1c0.7-0.1,1.3-0.2,1.7-0.3
			c0-0.1,0-0.2,0-0.2c0-0.4-0.1-0.7-0.3-0.8c-0.2-0.2-0.6-0.3-1.1-0.3c-0.4,0-0.8,0.1-1,0.2c-0.2,0.2-0.4,0.4-0.5,0.8l-0.9-0.1
			c0.1-0.4,0.2-0.7,0.4-0.9c0.2-0.2,0.5-0.4,0.8-0.6c0.4-0.1,0.8-0.2,1.2-0.2c0.5,0,0.9,0.1,1.2,0.2c0.3,0.1,0.5,0.3,0.6,0.4
			c0.1,0.2,0.2,0.4,0.3,0.6c0,0.2,0,0.4,0,0.9v1.2c0,0.9,0,1.4,0.1,1.7c0,0.2,0.1,0.4,0.2,0.7h-1C82.7,35.3,82.6,35,82.6,34.8z
			 M82.5,32.7c-0.3,0.1-0.9,0.2-1.5,0.3c-0.4,0.1-0.7,0.1-0.8,0.2c-0.2,0.1-0.3,0.2-0.4,0.3c-0.1,0.1-0.1,0.3-0.1,0.4
			c0,0.2,0.1,0.5,0.3,0.6c0.2,0.2,0.5,0.2,0.8,0.2c0.4,0,0.7-0.1,1-0.2c0.3-0.2,0.5-0.4,0.6-0.7c0.1-0.2,0.2-0.5,0.2-0.9V32.7z
			 M81.1,28.4l-0.6,0.9h-1.1l1.1-1.5h1l1.2,1.5h-1.1L81.1,28.4z M88.5,33.4l0.9,0.1c-0.1,0.6-0.4,1.1-0.8,1.5
			c-0.4,0.4-0.9,0.5-1.5,0.5c-0.8,0-1.4-0.2-1.8-0.7c-0.5-0.5-0.7-1.2-0.7-2.1c0-0.6,0.1-1.1,0.3-1.6c0.2-0.4,0.5-0.8,0.9-1
			c0.4-0.2,0.8-0.3,1.3-0.3c0.6,0,1.1,0.2,1.5,0.5c0.4,0.3,0.6,0.7,0.7,1.3l-0.9,0.1c-0.1-0.4-0.2-0.6-0.5-0.8s-0.5-0.3-0.8-0.3
			c-0.5,0-0.9,0.2-1.2,0.5c-0.3,0.3-0.4,0.9-0.4,1.6c0,0.7,0.1,1.3,0.4,1.6c0.3,0.3,0.7,0.5,1.1,0.5c0.4,0,0.7-0.1,0.9-0.3
			C88.3,34.2,88.4,33.9,88.5,33.4z M90.2,35.5v-7.6h0.9v2.7c0.4-0.5,1-0.8,1.7-0.8c0.4,0,0.8,0.1,1.1,0.2c0.3,0.2,0.5,0.4,0.6,0.7
			c0.1,0.3,0.2,0.7,0.2,1.2v3.5h-0.9V32c0-0.5-0.1-0.8-0.3-1c-0.2-0.2-0.5-0.3-0.9-0.3c-0.3,0-0.5,0.1-0.8,0.2
			c-0.2,0.1-0.4,0.3-0.5,0.6c-0.1,0.2-0.2,0.6-0.2,1v3H90.2z M99.9,33.7l1,0.1c-0.2,0.6-0.4,1-0.9,1.3c-0.4,0.3-0.9,0.5-1.6,0.5
			c-0.8,0-1.4-0.2-1.9-0.8c-0.5-0.5-0.7-1.2-0.7-2.1c0-0.9,0.2-1.6,0.7-2.2c0.5-0.5,1.1-0.8,1.9-0.8c0.7,0,1.3,0.3,1.8,0.8
			c0.5,0.5,0.7,1.2,0.7,2.1c0,0.1,0,0.1,0,0.2h-4.1c0,0.6,0.2,1.1,0.5,1.4c0.3,0.3,0.7,0.5,1.2,0.5c0.3,0,0.6-0.1,0.9-0.3
			C99.6,34.4,99.8,34.1,99.9,33.7z M96.8,32.2h3.1c0-0.5-0.2-0.8-0.4-1c-0.3-0.4-0.7-0.5-1.2-0.5c-0.4,0-0.8,0.1-1.1,0.4
			C97,31.3,96.9,31.7,96.8,32.2z M101.7,33.8l0.9-0.1c0.1,0.4,0.2,0.7,0.4,0.9c0.2,0.2,0.6,0.3,1,0.3s0.7-0.1,1-0.3
			c0.2-0.2,0.3-0.4,0.3-0.6c0-0.2-0.1-0.4-0.3-0.5c-0.1-0.1-0.4-0.2-1-0.3c-0.7-0.2-1.2-0.3-1.4-0.5c-0.3-0.1-0.5-0.3-0.6-0.5
			c-0.1-0.2-0.2-0.5-0.2-0.8c0-0.2,0.1-0.5,0.2-0.7c0.1-0.2,0.3-0.4,0.5-0.5c0.1-0.1,0.3-0.2,0.6-0.3c0.3-0.1,0.5-0.1,0.8-0.1
			c0.4,0,0.8,0.1,1.1,0.2c0.3,0.1,0.6,0.3,0.7,0.5c0.2,0.2,0.3,0.5,0.3,0.9l-0.9,0.1c0-0.3-0.2-0.5-0.4-0.7
			c-0.2-0.2-0.5-0.2-0.8-0.2c-0.4,0-0.8,0.1-0.9,0.2c-0.2,0.1-0.3,0.3-0.3,0.5c0,0.1,0,0.2,0.1,0.3c0.1,0.1,0.2,0.2,0.4,0.2
			c0.1,0,0.4,0.1,0.8,0.2c0.7,0.2,1.1,0.3,1.4,0.4c0.3,0.1,0.5,0.3,0.6,0.5c0.2,0.2,0.2,0.5,0.2,0.8c0,0.3-0.1,0.6-0.3,0.9
			c-0.2,0.3-0.4,0.5-0.8,0.6c-0.3,0.1-0.7,0.2-1.2,0.2c-0.7,0-1.3-0.1-1.6-0.4C102,34.8,101.8,34.4,101.7,33.8z M114.1,33.7l1,0.1
			c-0.2,0.6-0.4,1-0.9,1.3c-0.4,0.3-0.9,0.5-1.6,0.5c-0.8,0-1.4-0.2-1.9-0.8c-0.5-0.5-0.7-1.2-0.7-2.1c0-0.9,0.2-1.6,0.7-2.2
			c0.5-0.5,1.1-0.8,1.9-0.8c0.7,0,1.3,0.3,1.8,0.8c0.5,0.5,0.7,1.2,0.7,2.1c0,0.1,0,0.1,0,0.2H111c0,0.6,0.2,1.1,0.5,1.4
			c0.3,0.3,0.7,0.5,1.2,0.5c0.3,0,0.6-0.1,0.9-0.3C113.8,34.4,114,34.1,114.1,33.7z M111.1,32.2h3.1c0-0.5-0.2-0.8-0.4-1
			c-0.3-0.4-0.7-0.5-1.2-0.5c-0.4,0-0.8,0.1-1.1,0.4C111.3,31.3,111.1,31.7,111.1,32.2z M118.3,34.6l0.1,0.8
			c-0.3,0.1-0.5,0.1-0.7,0.1c-0.3,0-0.6-0.1-0.8-0.2c-0.2-0.1-0.3-0.3-0.4-0.4c-0.1-0.2-0.1-0.5-0.1-1.1v-3.2h-0.7v-0.7h0.7v-1.4
			l0.9-0.6v1.9h0.9v0.7h-0.9v3.2c0,0.3,0,0.4,0,0.5c0,0.1,0.1,0.1,0.2,0.2c0.1,0,0.2,0.1,0.3,0.1C118,34.7,118.2,34.6,118.3,34.6z"
			/>
		<path d="M36.9,41.9v-1.1h0.9v1.1H36.9z M36.9,48.5v-5.5h0.9v5.5H36.9z M39.3,48.5v-5.5h0.8v0.8c0.4-0.6,1-0.9,1.8-0.9
			c0.3,0,0.6,0.1,0.9,0.2c0.3,0.1,0.5,0.3,0.6,0.5c0.1,0.2,0.2,0.4,0.3,0.7c0,0.2,0,0.5,0,0.9v3.4h-0.9v-3.4c0-0.4,0-0.7-0.1-0.9
			c-0.1-0.2-0.2-0.3-0.4-0.5c-0.2-0.1-0.4-0.2-0.6-0.2c-0.4,0-0.7,0.1-1,0.4c-0.3,0.2-0.4,0.7-0.4,1.4v3H39.3z M45.4,48.5v-4.8h-0.8
			v-0.7h0.8v-0.6c0-0.4,0-0.7,0.1-0.8c0.1-0.2,0.2-0.4,0.5-0.6c0.2-0.2,0.5-0.2,1-0.2c0.3,0,0.6,0,0.9,0.1l-0.1,0.8
			c-0.2,0-0.4-0.1-0.5-0.1c-0.3,0-0.5,0.1-0.6,0.2c-0.1,0.1-0.2,0.4-0.2,0.7v0.5h1.1v0.7h-1.1v4.8H45.4z M47.8,45.7
			c0-1,0.3-1.8,0.8-2.3c0.5-0.4,1.1-0.6,1.7-0.6c0.8,0,1.4,0.2,1.9,0.8c0.5,0.5,0.7,1.2,0.7,2.1c0,0.7-0.1,1.3-0.3,1.7
			c-0.2,0.4-0.5,0.7-0.9,1c-0.4,0.2-0.9,0.3-1.3,0.3c-0.8,0-1.4-0.2-1.9-0.7C48.1,47.3,47.8,46.6,47.8,45.7z M48.8,45.7
			c0,0.7,0.2,1.2,0.5,1.6c0.3,0.4,0.7,0.5,1.2,0.5c0.5,0,0.9-0.2,1.2-0.5c0.3-0.4,0.5-0.9,0.5-1.6c0-0.7-0.2-1.2-0.5-1.5
			c-0.3-0.4-0.7-0.5-1.2-0.5c-0.5,0-0.8,0.2-1.2,0.5C48.9,44.5,48.8,45,48.8,45.7z M54.1,48.5v-5.5h0.8v0.8c0.2-0.4,0.4-0.7,0.6-0.8
			c0.2-0.1,0.4-0.2,0.6-0.2c0.3,0,0.6,0.1,1,0.3L56.8,44c-0.2-0.1-0.5-0.2-0.7-0.2c-0.2,0-0.4,0.1-0.6,0.2c-0.2,0.1-0.3,0.3-0.3,0.5
			c-0.1,0.3-0.2,0.7-0.2,1.1v2.9H54.1z M57.6,48.5v-5.5h0.8v0.8c0.2-0.3,0.4-0.5,0.7-0.7c0.3-0.2,0.6-0.2,1-0.2c0.4,0,0.7,0.1,1,0.3
			c0.3,0.2,0.4,0.4,0.6,0.7c0.4-0.6,1-1,1.7-1c0.6,0,1,0.2,1.3,0.5c0.3,0.3,0.4,0.8,0.4,1.4v3.8h-0.9V45c0-0.4,0-0.6-0.1-0.8
			c-0.1-0.2-0.2-0.3-0.3-0.4c-0.2-0.1-0.3-0.2-0.5-0.2c-0.4,0-0.7,0.1-1,0.4c-0.2,0.3-0.4,0.7-0.4,1.2v3.2h-0.9v-3.6
			c0-0.4-0.1-0.7-0.2-0.9c-0.1-0.2-0.4-0.3-0.8-0.3c-0.3,0-0.5,0.1-0.7,0.2c-0.2,0.1-0.4,0.3-0.5,0.6c-0.1,0.3-0.1,0.6-0.1,1.2v2.9
			H57.6z M70.1,47.8c-0.4,0.3-0.7,0.5-1,0.6c-0.3,0.1-0.7,0.2-1,0.2c-0.6,0-1.1-0.1-1.4-0.4c-0.3-0.3-0.5-0.7-0.5-1.1
			c0-0.3,0.1-0.5,0.2-0.7c0.1-0.2,0.3-0.4,0.5-0.5c0.2-0.1,0.4-0.2,0.7-0.3c0.2,0,0.5-0.1,0.8-0.1c0.8-0.1,1.3-0.2,1.7-0.3
			c0-0.1,0-0.2,0-0.2c0-0.4-0.1-0.7-0.3-0.8c-0.2-0.2-0.6-0.3-1.1-0.3c-0.4,0-0.8,0.1-1,0.2c-0.2,0.2-0.4,0.4-0.5,0.8l-0.9-0.1
			c0.1-0.4,0.2-0.7,0.4-0.9c0.2-0.2,0.5-0.4,0.8-0.6c0.4-0.1,0.8-0.2,1.2-0.2c0.5,0,0.9,0.1,1.2,0.2c0.3,0.1,0.5,0.3,0.6,0.4
			c0.1,0.2,0.2,0.4,0.3,0.6c0,0.2,0,0.4,0,0.9v1.2c0,0.9,0,1.4,0.1,1.7c0,0.2,0.1,0.4,0.2,0.7h-1C70.2,48.3,70.2,48,70.1,47.8z
			 M70.1,45.7c-0.3,0.1-0.9,0.2-1.5,0.3c-0.4,0.1-0.7,0.1-0.8,0.2c-0.2,0.1-0.3,0.2-0.4,0.3c-0.1,0.1-0.1,0.3-0.1,0.4
			c0,0.2,0.1,0.5,0.3,0.6c0.2,0.2,0.5,0.2,0.8,0.2c0.4,0,0.7-0.1,1-0.2s0.5-0.4,0.6-0.7c0.1-0.2,0.2-0.5,0.2-0.9V45.7z M74.5,47.6
			l0.1,0.8c-0.3,0.1-0.5,0.1-0.7,0.1c-0.3,0-0.6-0.1-0.8-0.2c-0.2-0.1-0.3-0.3-0.4-0.4c-0.1-0.2-0.1-0.5-0.1-1.1v-3.2h-0.7v-0.7h0.7
			v-1.4l0.9-0.6v1.9h0.9v0.7h-0.9v3.2c0,0.3,0,0.4,0,0.5c0,0.1,0.1,0.1,0.2,0.2c0.1,0,0.2,0.1,0.3,0.1
			C74.2,47.7,74.3,47.6,74.5,47.6z M75.4,41.9v-1.1h0.9v1.1H75.4z M75.4,48.5v-5.5h0.9v5.5H75.4z M77.4,45.7c0-1,0.3-1.8,0.8-2.3
			c0.5-0.4,1.1-0.6,1.7-0.6c0.8,0,1.4,0.2,1.9,0.8c0.5,0.5,0.7,1.2,0.7,2.1c0,0.7-0.1,1.3-0.3,1.7c-0.2,0.4-0.5,0.7-0.9,1
			c-0.4,0.2-0.9,0.3-1.3,0.3c-0.8,0-1.4-0.2-1.9-0.7C77.7,47.3,77.4,46.6,77.4,45.7z M78.4,45.7c0,0.7,0.2,1.2,0.5,1.6
			c0.3,0.4,0.7,0.5,1.2,0.5c0.5,0,0.9-0.2,1.2-0.5c0.3-0.4,0.5-0.9,0.5-1.6c0-0.7-0.2-1.2-0.5-1.5c-0.3-0.4-0.7-0.5-1.2-0.5
			c-0.5,0-0.8,0.2-1.2,0.5C78.5,44.5,78.4,45,78.4,45.7z M83.7,48.5v-5.5h0.8v0.8c0.4-0.6,1-0.9,1.8-0.9c0.3,0,0.6,0.1,0.9,0.2
			c0.3,0.1,0.5,0.3,0.6,0.5c0.1,0.2,0.2,0.4,0.3,0.7c0,0.2,0,0.5,0,0.9v3.4h-0.9v-3.4c0-0.4,0-0.7-0.1-0.9c-0.1-0.2-0.2-0.3-0.4-0.5
			c-0.2-0.1-0.4-0.2-0.6-0.2c-0.4,0-0.7,0.1-1,0.4c-0.3,0.2-0.4,0.7-0.4,1.4v3H83.7z M89.3,46.8l0.9-0.1c0.1,0.4,0.2,0.7,0.4,0.9
			c0.2,0.2,0.6,0.3,1,0.3c0.4,0,0.7-0.1,1-0.3c0.2-0.2,0.3-0.4,0.3-0.6c0-0.2-0.1-0.4-0.3-0.5c-0.1-0.1-0.4-0.2-1-0.3
			c-0.7-0.2-1.2-0.3-1.4-0.5c-0.3-0.1-0.5-0.3-0.6-0.5c-0.1-0.2-0.2-0.5-0.2-0.8c0-0.2,0.1-0.5,0.2-0.7c0.1-0.2,0.3-0.4,0.5-0.5
			c0.1-0.1,0.3-0.2,0.6-0.3c0.3-0.1,0.5-0.1,0.8-0.1c0.4,0,0.8,0.1,1.1,0.2c0.3,0.1,0.6,0.3,0.7,0.5c0.2,0.2,0.3,0.5,0.3,0.9
			l-0.9,0.1c0-0.3-0.2-0.5-0.4-0.7c-0.2-0.2-0.5-0.2-0.8-0.2c-0.4,0-0.8,0.1-0.9,0.2c-0.2,0.1-0.3,0.3-0.3,0.5c0,0.1,0,0.2,0.1,0.3
			c0.1,0.1,0.2,0.2,0.4,0.2c0.1,0,0.4,0.1,0.8,0.2c0.7,0.2,1.1,0.3,1.4,0.4c0.3,0.1,0.5,0.3,0.6,0.5c0.2,0.2,0.2,0.5,0.2,0.8
			c0,0.3-0.1,0.6-0.3,0.9c-0.2,0.3-0.4,0.5-0.8,0.6c-0.3,0.1-0.7,0.2-1.2,0.2c-0.7,0-1.3-0.1-1.6-0.4C89.6,47.8,89.4,47.4,89.3,46.8
			z"/>
		<path d="M15.6,61.5v-5.5h0.8v0.8c0.4-0.6,1-0.9,1.8-0.9c0.3,0,0.6,0.1,0.9,0.2c0.3,0.1,0.5,0.3,0.6,0.5c0.1,0.2,0.2,0.4,0.3,0.7
			c0,0.2,0,0.5,0,0.9v3.4h-0.9v-3.4c0-0.4,0-0.7-0.1-0.9s-0.2-0.3-0.4-0.5c-0.2-0.1-0.4-0.2-0.6-0.2c-0.4,0-0.7,0.1-1,0.4
			c-0.3,0.2-0.4,0.7-0.4,1.4v3H15.6z M25.3,59.7l1,0.1c-0.2,0.6-0.4,1-0.9,1.3c-0.4,0.3-0.9,0.5-1.6,0.5c-0.8,0-1.4-0.2-1.9-0.8
			c-0.5-0.5-0.7-1.2-0.7-2.1c0-0.9,0.2-1.6,0.7-2.2c0.5-0.5,1.1-0.8,1.9-0.8c0.7,0,1.3,0.3,1.8,0.8c0.5,0.5,0.7,1.2,0.7,2.1
			c0,0.1,0,0.1,0,0.2h-4.1c0,0.6,0.2,1.1,0.5,1.4c0.3,0.3,0.7,0.5,1.2,0.5c0.3,0,0.6-0.1,0.9-0.3C25,60.4,25.1,60.1,25.3,59.7z
			 M22.2,58.2h3.1c0-0.5-0.2-0.8-0.4-1c-0.3-0.4-0.7-0.5-1.2-0.5c-0.4,0-0.8,0.1-1.1,0.4C22.4,57.3,22.2,57.7,22.2,58.2z M23,55.2
			l0.7-1.5h1.2l-1.1,1.5H23z M31,59.4l0.9,0.1c-0.1,0.6-0.4,1.1-0.8,1.5c-0.4,0.4-0.9,0.5-1.5,0.5c-0.8,0-1.4-0.2-1.8-0.7
			c-0.5-0.5-0.7-1.2-0.7-2.1c0-0.6,0.1-1.1,0.3-1.6c0.2-0.4,0.5-0.8,0.9-1c0.4-0.2,0.8-0.3,1.3-0.3c0.6,0,1.1,0.2,1.5,0.5
			c0.4,0.3,0.6,0.7,0.7,1.3L31,57.7c-0.1-0.4-0.2-0.6-0.5-0.8s-0.5-0.3-0.8-0.3c-0.5,0-0.9,0.2-1.2,0.5c-0.3,0.3-0.4,0.9-0.4,1.6
			c0,0.7,0.1,1.3,0.4,1.6c0.3,0.3,0.7,0.5,1.1,0.5c0.4,0,0.7-0.1,0.9-0.3C30.8,60.2,31,59.9,31,59.4z M36.5,59.7l1,0.1
			c-0.2,0.6-0.4,1-0.9,1.3c-0.4,0.3-0.9,0.5-1.6,0.5c-0.8,0-1.4-0.2-1.9-0.8c-0.5-0.5-0.7-1.2-0.7-2.1c0-0.9,0.2-1.6,0.7-2.2
			c0.5-0.5,1.1-0.8,1.9-0.8c0.7,0,1.3,0.3,1.8,0.8c0.5,0.5,0.7,1.2,0.7,2.1c0,0.1,0,0.1,0,0.2h-4.1c0,0.6,0.2,1.1,0.5,1.4
			c0.3,0.3,0.7,0.5,1.2,0.5c0.3,0,0.6-0.1,0.9-0.3C36.2,60.4,36.4,60.1,36.5,59.7z M33.5,58.2h3.1c0-0.5-0.2-0.8-0.4-1
			c-0.3-0.4-0.7-0.5-1.2-0.5c-0.4,0-0.8,0.1-1.1,0.4C33.7,57.3,33.5,57.7,33.5,58.2z M38.3,59.8l0.9-0.1c0.1,0.4,0.2,0.7,0.4,0.9
			c0.2,0.2,0.6,0.3,1,0.3s0.7-0.1,1-0.3c0.2-0.2,0.3-0.4,0.3-0.6c0-0.2-0.1-0.4-0.3-0.5c-0.1-0.1-0.4-0.2-1-0.3
			c-0.7-0.2-1.2-0.3-1.4-0.5c-0.3-0.1-0.5-0.3-0.6-0.5c-0.1-0.2-0.2-0.5-0.2-0.8c0-0.2,0.1-0.5,0.2-0.7c0.1-0.2,0.3-0.4,0.5-0.5
			c0.1-0.1,0.3-0.2,0.6-0.3c0.3-0.1,0.5-0.1,0.8-0.1c0.4,0,0.8,0.1,1.1,0.2c0.3,0.1,0.6,0.3,0.7,0.5c0.2,0.2,0.3,0.5,0.3,0.9
			l-0.9,0.1c0-0.3-0.2-0.5-0.4-0.7c-0.2-0.2-0.5-0.2-0.8-0.2c-0.4,0-0.8,0.1-0.9,0.2c-0.2,0.1-0.3,0.3-0.3,0.5c0,0.1,0,0.2,0.1,0.3
			c0.1,0.1,0.2,0.2,0.4,0.2c0.1,0,0.4,0.1,0.8,0.2c0.7,0.2,1.1,0.3,1.4,0.4c0.3,0.1,0.5,0.3,0.6,0.5c0.2,0.2,0.2,0.5,0.2,0.8
			c0,0.3-0.1,0.6-0.3,0.9c-0.2,0.3-0.4,0.5-0.8,0.6c-0.3,0.1-0.7,0.2-1.2,0.2c-0.7,0-1.3-0.1-1.6-0.4C38.7,60.8,38.4,60.4,38.3,59.8
			z M43.6,59.8l0.9-0.1c0.1,0.4,0.2,0.7,0.4,0.9c0.2,0.2,0.6,0.3,1,0.3s0.7-0.1,1-0.3c0.2-0.2,0.3-0.4,0.3-0.6
			c0-0.2-0.1-0.4-0.3-0.5c-0.1-0.1-0.4-0.2-1-0.3c-0.7-0.2-1.2-0.3-1.4-0.5c-0.3-0.1-0.5-0.3-0.6-0.5c-0.1-0.2-0.2-0.5-0.2-0.8
			c0-0.2,0.1-0.5,0.2-0.7c0.1-0.2,0.3-0.4,0.5-0.5c0.1-0.1,0.3-0.2,0.6-0.3c0.3-0.1,0.5-0.1,0.8-0.1c0.4,0,0.8,0.1,1.1,0.2
			c0.3,0.1,0.6,0.3,0.7,0.5c0.2,0.2,0.3,0.5,0.3,0.9l-0.9,0.1c0-0.3-0.2-0.5-0.4-0.7c-0.2-0.2-0.5-0.2-0.8-0.2
			c-0.4,0-0.8,0.1-0.9,0.2c-0.2,0.1-0.3,0.3-0.3,0.5c0,0.1,0,0.2,0.1,0.3c0.1,0.1,0.2,0.2,0.4,0.2c0.1,0,0.4,0.1,0.8,0.2
			c0.7,0.2,1.1,0.3,1.4,0.4c0.3,0.1,0.5,0.3,0.6,0.5c0.2,0.2,0.2,0.5,0.2,0.8c0,0.3-0.1,0.6-0.3,0.9c-0.2,0.3-0.4,0.5-0.8,0.6
			c-0.3,0.1-0.7,0.2-1.2,0.2c-0.7,0-1.3-0.1-1.6-0.4C44,60.8,43.7,60.4,43.6,59.8z M53,60.8c-0.4,0.3-0.7,0.5-1,0.6
			c-0.3,0.1-0.7,0.2-1,0.2c-0.6,0-1.1-0.1-1.4-0.4C49.2,60.8,49,60.5,49,60c0-0.3,0.1-0.5,0.2-0.7c0.1-0.2,0.3-0.4,0.5-0.5
			c0.2-0.1,0.4-0.2,0.7-0.3c0.2,0,0.5-0.1,0.8-0.1c0.8-0.1,1.3-0.2,1.7-0.3c0-0.1,0-0.2,0-0.2c0-0.4-0.1-0.7-0.3-0.8
			c-0.2-0.2-0.6-0.3-1.1-0.3c-0.4,0-0.8,0.1-1,0.2c-0.2,0.2-0.4,0.4-0.5,0.8l-0.9-0.1c0.1-0.4,0.2-0.7,0.4-0.9
			c0.2-0.2,0.5-0.4,0.8-0.6c0.4-0.1,0.8-0.2,1.2-0.2c0.5,0,0.9,0.1,1.2,0.2c0.3,0.1,0.5,0.3,0.6,0.4c0.1,0.2,0.2,0.4,0.3,0.6
			c0,0.2,0,0.4,0,0.9v1.2c0,0.9,0,1.4,0.1,1.7c0,0.2,0.1,0.4,0.2,0.7h-1C53,61.3,53,61,53,60.8z M52.9,58.7
			c-0.3,0.1-0.9,0.2-1.5,0.3c-0.4,0.1-0.7,0.1-0.8,0.2c-0.2,0.1-0.3,0.2-0.4,0.3C50.1,59.7,50,59.8,50,60c0,0.2,0.1,0.5,0.3,0.6
			c0.2,0.2,0.5,0.2,0.8,0.2c0.4,0,0.7-0.1,1-0.2s0.5-0.4,0.6-0.7c0.1-0.2,0.2-0.5,0.2-0.9V58.7z M55.3,54.9v-1.1h0.9v1.1H55.3z
			 M55.3,61.5v-5.5h0.9v5.5H55.3z M57.6,61.5v-5.5h0.8v0.8c0.2-0.4,0.4-0.7,0.6-0.8c0.2-0.1,0.4-0.2,0.6-0.2c0.3,0,0.6,0.1,1,0.3
			L60.3,57c-0.2-0.1-0.5-0.2-0.7-0.2c-0.2,0-0.4,0.1-0.6,0.2c-0.2,0.1-0.3,0.3-0.3,0.5c-0.1,0.3-0.2,0.7-0.2,1.1v2.9H57.6z M65,59.7
			l1,0.1c-0.2,0.6-0.4,1-0.9,1.3c-0.4,0.3-0.9,0.5-1.6,0.5c-0.8,0-1.4-0.2-1.9-0.8c-0.5-0.5-0.7-1.2-0.7-2.1c0-0.9,0.2-1.6,0.7-2.2
			c0.5-0.5,1.1-0.8,1.9-0.8c0.7,0,1.3,0.3,1.8,0.8c0.5,0.5,0.7,1.2,0.7,2.1c0,0.1,0,0.1,0,0.2h-4.1c0,0.6,0.2,1.1,0.5,1.4
			c0.3,0.3,0.7,0.5,1.2,0.5c0.3,0,0.6-0.1,0.9-0.3C64.6,60.4,64.8,60.1,65,59.7z M61.9,58.2H65c0-0.5-0.2-0.8-0.4-1
			c-0.3-0.4-0.7-0.5-1.2-0.5c-0.4,0-0.8,0.1-1.1,0.4C62.1,57.3,61.9,57.7,61.9,58.2z M66.7,59.8l0.9-0.1c0.1,0.4,0.2,0.7,0.4,0.9
			c0.2,0.2,0.6,0.3,1,0.3s0.7-0.1,1-0.3c0.2-0.2,0.3-0.4,0.3-0.6c0-0.2-0.1-0.4-0.3-0.5c-0.1-0.1-0.4-0.2-1-0.3
			c-0.7-0.2-1.2-0.3-1.4-0.5c-0.3-0.1-0.5-0.3-0.6-0.5c-0.1-0.2-0.2-0.5-0.2-0.8c0-0.2,0.1-0.5,0.2-0.7c0.1-0.2,0.3-0.4,0.5-0.5
			c0.1-0.1,0.3-0.2,0.6-0.3c0.3-0.1,0.5-0.1,0.8-0.1c0.4,0,0.8,0.1,1.1,0.2c0.3,0.1,0.6,0.3,0.7,0.5c0.2,0.2,0.3,0.5,0.3,0.9
			l-0.9,0.1c0-0.3-0.2-0.5-0.4-0.7c-0.2-0.2-0.5-0.2-0.8-0.2c-0.4,0-0.8,0.1-0.9,0.2c-0.2,0.1-0.3,0.3-0.3,0.5c0,0.1,0,0.2,0.1,0.3
			c0.1,0.1,0.2,0.2,0.4,0.2c0.1,0,0.4,0.1,0.8,0.2c0.7,0.2,1.1,0.3,1.4,0.4c0.3,0.1,0.5,0.3,0.6,0.5c0.2,0.2,0.2,0.5,0.2,0.8
			c0,0.3-0.1,0.6-0.3,0.9c-0.2,0.3-0.4,0.5-0.8,0.6c-0.3,0.1-0.7,0.2-1.2,0.2c-0.7,0-1.3-0.1-1.6-0.4C67.1,60.8,66.8,60.4,66.7,59.8
			z M79,61.5v-0.7c-0.3,0.6-0.9,0.8-1.5,0.8c-0.4,0-0.8-0.1-1.2-0.4c-0.4-0.2-0.7-0.6-0.9-1c-0.2-0.4-0.3-0.9-0.3-1.5
			c0-0.6,0.1-1.1,0.3-1.5c0.2-0.5,0.5-0.8,0.8-1c0.4-0.2,0.8-0.4,1.2-0.4c0.3,0,0.6,0.1,0.9,0.2c0.3,0.1,0.5,0.3,0.6,0.5v-2.7h0.9
			v7.6H79z M76,58.7c0,0.7,0.1,1.2,0.4,1.6c0.3,0.4,0.7,0.5,1.1,0.5c0.4,0,0.7-0.2,1-0.5c0.3-0.3,0.4-0.9,0.4-1.5
			c0-0.8-0.1-1.3-0.4-1.7c-0.3-0.4-0.7-0.5-1.1-0.5c-0.4,0-0.8,0.2-1,0.5C76.2,57.4,76,58,76,58.7z M85.1,59.7l1,0.1
			c-0.2,0.6-0.4,1-0.9,1.3c-0.4,0.3-0.9,0.5-1.6,0.5c-0.8,0-1.4-0.2-1.9-0.8c-0.5-0.5-0.7-1.2-0.7-2.1c0-0.9,0.2-1.6,0.7-2.2
			c0.5-0.5,1.1-0.8,1.9-0.8c0.7,0,1.3,0.3,1.8,0.8c0.5,0.5,0.7,1.2,0.7,2.1c0,0.1,0,0.1,0,0.2H82c0,0.6,0.2,1.1,0.5,1.4
			c0.3,0.3,0.7,0.5,1.2,0.5c0.3,0,0.6-0.1,0.9-0.3C84.8,60.4,85,60.1,85.1,59.7z M82,58.2h3.1c0-0.5-0.2-0.8-0.4-1
			c-0.3-0.4-0.7-0.5-1.2-0.5c-0.4,0-0.8,0.1-1.1,0.4C82.2,57.3,82.1,57.7,82,58.2z M90.4,61.5v-4.8h-0.8v-0.7h0.8v-0.6
			c0-0.4,0-0.7,0.1-0.8c0.1-0.2,0.2-0.4,0.5-0.6c0.2-0.2,0.5-0.2,1-0.2c0.3,0,0.6,0,0.9,0.1l-0.1,0.8c-0.2,0-0.4-0.1-0.5-0.1
			c-0.3,0-0.5,0.1-0.6,0.2c-0.1,0.1-0.2,0.4-0.2,0.7v0.5h1.1v0.7h-1.1v4.8H90.4z M96.8,60.8c-0.4,0.3-0.7,0.5-1,0.6
			c-0.3,0.1-0.7,0.2-1,0.2c-0.6,0-1.1-0.1-1.4-0.4c-0.3-0.3-0.5-0.7-0.5-1.1c0-0.3,0.1-0.5,0.2-0.7c0.1-0.2,0.3-0.4,0.5-0.5
			c0.2-0.1,0.4-0.2,0.7-0.3c0.2,0,0.5-0.1,0.8-0.1c0.7-0.1,1.3-0.2,1.7-0.3c0-0.1,0-0.2,0-0.2c0-0.4-0.1-0.7-0.3-0.8
			c-0.2-0.2-0.6-0.3-1.1-0.3c-0.4,0-0.8,0.1-1,0.2c-0.2,0.2-0.4,0.4-0.5,0.8L93,57.5c0.1-0.4,0.2-0.7,0.4-0.9
			c0.2-0.2,0.5-0.4,0.8-0.6c0.4-0.1,0.8-0.2,1.2-0.2c0.5,0,0.9,0.1,1.2,0.2c0.3,0.1,0.5,0.3,0.6,0.4c0.1,0.2,0.2,0.4,0.3,0.6
			c0,0.2,0,0.4,0,0.9v1.2c0,0.9,0,1.4,0.1,1.7c0,0.2,0.1,0.4,0.2,0.7h-1C96.9,61.3,96.8,61,96.8,60.8z M96.7,58.7
			c-0.3,0.1-0.9,0.2-1.5,0.3c-0.4,0.1-0.7,0.1-0.8,0.2c-0.2,0.1-0.3,0.2-0.4,0.3c-0.1,0.1-0.1,0.3-0.1,0.4c0,0.2,0.1,0.5,0.3,0.6
			c0.2,0.2,0.5,0.2,0.8,0.2c0.4,0,0.7-0.1,1-0.2c0.3-0.2,0.5-0.4,0.6-0.7c0.1-0.2,0.2-0.5,0.2-0.9V58.7z M102.7,59.4l0.9,0.1
			c-0.1,0.6-0.4,1.1-0.8,1.5c-0.4,0.4-0.9,0.5-1.5,0.5c-0.8,0-1.4-0.2-1.8-0.7c-0.5-0.5-0.7-1.2-0.7-2.1c0-0.6,0.1-1.1,0.3-1.6
			c0.2-0.4,0.5-0.8,0.9-1c0.4-0.2,0.8-0.3,1.3-0.3c0.6,0,1.1,0.2,1.5,0.5c0.4,0.3,0.6,0.7,0.7,1.3l-0.9,0.1
			c-0.1-0.4-0.2-0.6-0.5-0.8s-0.5-0.3-0.8-0.3c-0.5,0-0.9,0.2-1.2,0.5c-0.3,0.3-0.4,0.9-0.4,1.6c0,0.7,0.1,1.3,0.4,1.6
			c0.3,0.3,0.7,0.5,1.1,0.5c0.4,0,0.7-0.1,0.9-0.3C102.5,60.2,102.6,59.9,102.7,59.4z M100.5,62.2l0.3-0.9h0.7l-0.2,0.6
			c0.3,0,0.5,0.1,0.7,0.3c0.2,0.2,0.2,0.3,0.2,0.5c0,0.3-0.1,0.5-0.4,0.7c-0.2,0.2-0.6,0.3-1.1,0.3c-0.3,0-0.5,0-0.8-0.1l0-0.6
			c0.2,0,0.4,0,0.5,0c0.3,0,0.6,0,0.7-0.1c0.1-0.1,0.1-0.2,0.1-0.2c0-0.1,0-0.1-0.1-0.2c0-0.1-0.1-0.1-0.2-0.1
			C101,62.3,100.8,62.3,100.5,62.2z M104.1,58.7c0-1,0.3-1.8,0.8-2.3c0.5-0.4,1.1-0.6,1.7-0.6c0.8,0,1.4,0.2,1.9,0.8
			c0.5,0.5,0.7,1.2,0.7,2.1c0,0.7-0.1,1.3-0.3,1.7c-0.2,0.4-0.5,0.7-0.9,1c-0.4,0.2-0.9,0.3-1.3,0.3c-0.8,0-1.4-0.2-1.9-0.7
			C104.3,60.3,104.1,59.6,104.1,58.7z M105,58.7c0,0.7,0.2,1.2,0.5,1.6c0.3,0.4,0.7,0.5,1.2,0.5c0.5,0,0.9-0.2,1.2-0.5
			c0.3-0.4,0.5-0.9,0.5-1.6c0-0.7-0.2-1.2-0.5-1.5c-0.3-0.4-0.7-0.5-1.2-0.5c-0.5,0-0.8,0.2-1.2,0.5C105.2,57.5,105,58,105,58.7z
			 M110.4,61.5v-5.5h0.8v0.8c0.4-0.6,1-0.9,1.8-0.9c0.3,0,0.6,0.1,0.9,0.2c0.3,0.1,0.5,0.3,0.6,0.5c0.1,0.2,0.2,0.4,0.3,0.7
			c0,0.2,0,0.5,0,0.9v3.4h-0.9v-3.4c0-0.4,0-0.7-0.1-0.9c-0.1-0.2-0.2-0.3-0.4-0.5c-0.2-0.1-0.4-0.2-0.6-0.2c-0.4,0-0.7,0.1-1,0.4
			c-0.3,0.2-0.4,0.7-0.4,1.4v3H110.4z"/>
		<path d="M56.8,72.4l0.9,0.1c-0.1,0.6-0.4,1.1-0.8,1.5c-0.4,0.4-0.9,0.5-1.5,0.5c-0.8,0-1.4-0.2-1.8-0.7c-0.5-0.5-0.7-1.2-0.7-2.1
			c0-0.6,0.1-1.1,0.3-1.6s0.5-0.8,0.9-1c0.4-0.2,0.8-0.3,1.3-0.3c0.6,0,1.1,0.2,1.5,0.5c0.4,0.3,0.6,0.7,0.7,1.3l-0.9,0.1
			c-0.1-0.4-0.2-0.6-0.5-0.8s-0.5-0.3-0.8-0.3c-0.5,0-0.9,0.2-1.2,0.5c-0.3,0.3-0.4,0.9-0.4,1.6c0,0.7,0.1,1.3,0.4,1.6
			c0.3,0.3,0.7,0.5,1.1,0.5c0.4,0,0.7-0.1,0.9-0.3C56.6,73.2,56.7,72.9,56.8,72.4z M58.5,74.5v-7.6h0.9v7.6H58.5z M64.5,73.8
			c-0.4,0.3-0.7,0.5-1,0.6c-0.3,0.1-0.7,0.2-1,0.2c-0.6,0-1.1-0.1-1.4-0.4c-0.3-0.3-0.5-0.7-0.5-1.1c0-0.3,0.1-0.5,0.2-0.7
			c0.1-0.2,0.3-0.4,0.5-0.5c0.2-0.1,0.4-0.2,0.7-0.3c0.2,0,0.5-0.1,0.8-0.1c0.7-0.1,1.3-0.2,1.7-0.3c0-0.1,0-0.2,0-0.2
			c0-0.4-0.1-0.7-0.3-0.8c-0.2-0.2-0.6-0.3-1.1-0.3c-0.4,0-0.8,0.1-1,0.2c-0.2,0.2-0.4,0.4-0.5,0.8l-0.9-0.1
			c0.1-0.4,0.2-0.7,0.4-0.9c0.2-0.2,0.5-0.4,0.8-0.6c0.4-0.1,0.8-0.2,1.2-0.2c0.5,0,0.9,0.1,1.2,0.2c0.3,0.1,0.5,0.3,0.6,0.4
			c0.1,0.2,0.2,0.4,0.3,0.6c0,0.2,0,0.4,0,0.9v1.2c0,0.9,0,1.4,0.1,1.7c0,0.2,0.1,0.4,0.2,0.7h-1C64.6,74.3,64.5,74,64.5,73.8z
			 M64.4,71.7c-0.3,0.1-0.9,0.2-1.5,0.3c-0.4,0.1-0.7,0.1-0.8,0.2c-0.2,0.1-0.3,0.2-0.4,0.3c-0.1,0.1-0.1,0.3-0.1,0.4
			c0,0.2,0.1,0.5,0.3,0.6c0.2,0.2,0.5,0.2,0.8,0.2c0.4,0,0.7-0.1,1-0.2c0.3-0.2,0.5-0.4,0.6-0.7c0.1-0.2,0.2-0.5,0.2-0.9V71.7z
			 M66.8,67.9v-1.1h0.9v1.1H66.8z M66.8,74.5v-5.5h0.9v5.5H66.8z M69.2,74.5v-5.5H70v0.8c0.2-0.4,0.4-0.7,0.6-0.8
			c0.2-0.1,0.4-0.2,0.6-0.2c0.3,0,0.6,0.1,1,0.3L71.9,70c-0.2-0.1-0.5-0.2-0.7-0.2c-0.2,0-0.4,0.1-0.6,0.2c-0.2,0.1-0.3,0.3-0.3,0.5
			c-0.1,0.3-0.2,0.7-0.2,1.1v2.9H69.2z M76.5,72.7l1,0.1c-0.2,0.6-0.4,1-0.9,1.3c-0.4,0.3-0.9,0.5-1.6,0.5c-0.8,0-1.4-0.2-1.9-0.8
			c-0.5-0.5-0.7-1.2-0.7-2.1c0-0.9,0.2-1.6,0.7-2.2c0.5-0.5,1.1-0.8,1.9-0.8c0.7,0,1.3,0.3,1.8,0.8c0.5,0.5,0.7,1.2,0.7,2.1
			c0,0.1,0,0.1,0,0.2h-4.1c0,0.6,0.2,1.1,0.5,1.4c0.3,0.3,0.7,0.5,1.2,0.5c0.3,0,0.6-0.1,0.9-0.3C76.2,73.4,76.4,73.1,76.5,72.7z
			 M73.4,71.2h3.1c0-0.5-0.2-0.8-0.4-1c-0.3-0.4-0.7-0.5-1.2-0.5c-0.4,0-0.8,0.1-1.1,0.4C73.6,70.3,73.5,70.7,73.4,71.2z"/>
		<path class="st2" d="M171,0.5h122.8v84.6H171V0.5z"/>
		<path d="M194.6,33.5l-3-7.6h1.1l2,5.5c0.2,0.4,0.3,0.9,0.4,1.2c0.1-0.4,0.3-0.8,0.4-1.2l2.1-5.5h1l-3,7.6H194.6z M202.6,31.7
			l1,0.1c-0.2,0.6-0.4,1-0.9,1.3c-0.4,0.3-0.9,0.5-1.6,0.5c-0.8,0-1.4-0.2-1.9-0.8c-0.5-0.5-0.7-1.2-0.7-2.1c0-0.9,0.2-1.6,0.7-2.2
			c0.5-0.5,1.1-0.8,1.9-0.8c0.7,0,1.3,0.3,1.8,0.8c0.5,0.5,0.7,1.2,0.7,2.1c0,0.1,0,0.1,0,0.2h-4.1c0,0.6,0.2,1.1,0.5,1.4
			s0.7,0.5,1.2,0.5c0.3,0,0.6-0.1,0.9-0.3C202.2,32.4,202.4,32.1,202.6,31.7z M199.5,30.2h3.1c0-0.5-0.2-0.8-0.4-1
			c-0.3-0.4-0.7-0.5-1.2-0.5c-0.4,0-0.8,0.1-1.1,0.4C199.7,29.4,199.5,29.7,199.5,30.2z M204.7,27v-1.1h0.9V27H204.7z M204.7,33.5
			V28h0.9v5.5H204.7z M207.1,33.5v-7.6h0.9v7.6H207.1z M209.4,33.5v-7.6h0.9v7.6H209.4z M215.6,31.7l1,0.1c-0.2,0.6-0.4,1-0.9,1.3
			c-0.4,0.3-0.9,0.5-1.6,0.5c-0.8,0-1.4-0.2-1.9-0.8c-0.5-0.5-0.7-1.2-0.7-2.1c0-0.9,0.2-1.6,0.7-2.2c0.5-0.5,1.1-0.8,1.9-0.8
			c0.7,0,1.3,0.3,1.8,0.8c0.5,0.5,0.7,1.2,0.7,2.1c0,0.1,0,0.1,0,0.2h-4.1c0,0.6,0.2,1.1,0.5,1.4s0.7,0.5,1.2,0.5
			c0.3,0,0.6-0.1,0.9-0.3C215.2,32.4,215.4,32.1,215.6,31.7z M212.5,30.2h3.1c0-0.5-0.2-0.8-0.4-1c-0.3-0.4-0.7-0.5-1.2-0.5
			c-0.4,0-0.8,0.1-1.1,0.4C212.7,29.4,212.5,29.7,212.5,30.2z M217.7,33.5V28h0.8v0.8c0.2-0.4,0.4-0.7,0.6-0.8
			c0.2-0.1,0.4-0.2,0.6-0.2c0.3,0,0.6,0.1,1,0.3l-0.3,0.9c-0.2-0.1-0.5-0.2-0.7-0.2c-0.2,0-0.4,0.1-0.6,0.2
			c-0.2,0.1-0.3,0.3-0.3,0.5c-0.1,0.3-0.2,0.7-0.2,1.1v2.9H217.7z M227.8,32.8c-0.4,0.3-0.7,0.5-1,0.6c-0.3,0.1-0.7,0.2-1,0.2
			c-0.6,0-1.1-0.1-1.4-0.4c-0.3-0.3-0.5-0.7-0.5-1.1c0-0.3,0.1-0.5,0.2-0.7c0.1-0.2,0.3-0.4,0.5-0.5c0.2-0.1,0.4-0.2,0.7-0.3
			c0.2,0,0.5-0.1,0.8-0.1c0.8-0.1,1.3-0.2,1.7-0.3c0-0.1,0-0.2,0-0.2c0-0.4-0.1-0.7-0.3-0.8c-0.2-0.2-0.6-0.3-1.1-0.3
			c-0.4,0-0.8,0.1-1,0.2c-0.2,0.2-0.4,0.4-0.5,0.8l-0.9-0.1c0.1-0.4,0.2-0.7,0.4-0.9c0.2-0.2,0.5-0.4,0.8-0.6
			c0.4-0.1,0.8-0.2,1.2-0.2c0.5,0,0.9,0.1,1.2,0.2c0.3,0.1,0.5,0.3,0.6,0.4c0.1,0.2,0.2,0.4,0.3,0.6c0,0.2,0,0.4,0,0.9v1.2
			c0,0.9,0,1.4,0.1,1.7c0,0.2,0.1,0.4,0.2,0.7h-1C227.9,33.3,227.9,33.1,227.8,32.8z M227.8,30.8c-0.3,0.1-0.9,0.2-1.5,0.3
			c-0.4,0.1-0.7,0.1-0.8,0.2c-0.2,0.1-0.3,0.2-0.4,0.3c-0.1,0.1-0.1,0.3-0.1,0.4c0,0.2,0.1,0.5,0.3,0.6s0.5,0.2,0.8,0.2
			c0.4,0,0.7-0.1,1-0.2s0.5-0.4,0.6-0.7c0.1-0.2,0.2-0.5,0.2-0.9V30.8z M227,27.3h-0.8l-1.2-1.5h1.2L227,27.3z M233.1,33.5v-7.6h0.9
			v7.6H233.1z M239.1,32.8c-0.4,0.3-0.7,0.5-1,0.6c-0.3,0.1-0.7,0.2-1,0.2c-0.6,0-1.1-0.1-1.4-0.4c-0.3-0.3-0.5-0.7-0.5-1.1
			c0-0.3,0.1-0.5,0.2-0.7c0.1-0.2,0.3-0.4,0.5-0.5c0.2-0.1,0.4-0.2,0.7-0.3c0.2,0,0.5-0.1,0.8-0.1c0.8-0.1,1.3-0.2,1.7-0.3
			c0-0.1,0-0.2,0-0.2c0-0.4-0.1-0.7-0.3-0.8c-0.2-0.2-0.6-0.3-1.1-0.3c-0.4,0-0.8,0.1-1,0.2c-0.2,0.2-0.4,0.4-0.5,0.8l-0.9-0.1
			c0.1-0.4,0.2-0.7,0.4-0.9c0.2-0.2,0.5-0.4,0.8-0.6c0.4-0.1,0.8-0.2,1.2-0.2c0.5,0,0.9,0.1,1.2,0.2s0.5,0.3,0.6,0.4
			c0.1,0.2,0.2,0.4,0.3,0.6c0,0.2,0,0.4,0,0.9v1.2c0,0.9,0,1.4,0.1,1.7c0,0.2,0.1,0.4,0.2,0.7h-1C239.2,33.3,239.1,33.1,239.1,32.8z
			 M239,30.8c-0.3,0.1-0.9,0.2-1.5,0.3c-0.4,0.1-0.7,0.1-0.8,0.2c-0.2,0.1-0.3,0.2-0.4,0.3c-0.1,0.1-0.1,0.3-0.1,0.4
			c0,0.2,0.1,0.5,0.3,0.6s0.5,0.2,0.8,0.2c0.4,0,0.7-0.1,1-0.2s0.5-0.4,0.6-0.7c0.1-0.2,0.2-0.5,0.2-0.9V30.8z M245.2,33.5h-0.9
			v-7.6h0.9v2.7c0.4-0.5,0.9-0.8,1.5-0.8c0.3,0,0.7,0.1,1,0.2c0.3,0.1,0.6,0.3,0.8,0.6c0.2,0.2,0.3,0.5,0.5,0.9
			c0.1,0.4,0.2,0.7,0.2,1.1c0,0.9-0.2,1.7-0.7,2.2c-0.5,0.5-1,0.8-1.7,0.8c-0.6,0-1.2-0.3-1.5-0.8V33.5z M245.2,30.7
			c0,0.7,0.1,1.1,0.3,1.4c0.3,0.5,0.7,0.7,1.2,0.7c0.4,0,0.8-0.2,1.1-0.5c0.3-0.4,0.5-0.9,0.5-1.6c0-0.7-0.1-1.2-0.4-1.6
			c-0.3-0.3-0.6-0.5-1-0.5s-0.8,0.2-1.1,0.5C245.4,29.5,245.2,30,245.2,30.7z M250,30.8c0-1,0.3-1.8,0.8-2.3
			c0.5-0.4,1.1-0.6,1.7-0.6c0.8,0,1.4,0.2,1.9,0.8c0.5,0.5,0.7,1.2,0.7,2.1c0,0.7-0.1,1.3-0.3,1.7c-0.2,0.4-0.5,0.7-0.9,1
			c-0.4,0.2-0.9,0.3-1.3,0.3c-0.8,0-1.4-0.2-1.9-0.7C250.2,32.4,250,31.7,250,30.8z M250.9,30.8c0,0.7,0.2,1.2,0.5,1.6
			s0.7,0.5,1.2,0.5c0.5,0,0.9-0.2,1.2-0.5c0.3-0.4,0.5-0.9,0.5-1.6c0-0.7-0.2-1.2-0.5-1.5c-0.3-0.4-0.7-0.5-1.2-0.5
			c-0.5,0-0.8,0.2-1.2,0.5C251.1,29.5,250.9,30,250.9,30.8z M256.2,33.5V28h0.8v0.8c0.4-0.6,1-0.9,1.8-0.9c0.3,0,0.6,0.1,0.9,0.2
			c0.3,0.1,0.5,0.3,0.6,0.5c0.1,0.2,0.2,0.4,0.3,0.7c0,0.2,0,0.5,0,0.9v3.4h-0.9v-3.4c0-0.4,0-0.7-0.1-0.9c-0.1-0.2-0.2-0.3-0.4-0.5
			c-0.2-0.1-0.4-0.2-0.6-0.2c-0.4,0-0.7,0.1-1,0.4c-0.3,0.2-0.4,0.7-0.4,1.4v3H256.2z M262.2,33.5V28h0.8v0.8c0.4-0.6,1-0.9,1.8-0.9
			c0.3,0,0.6,0.1,0.9,0.2c0.3,0.1,0.5,0.3,0.6,0.5c0.1,0.2,0.2,0.4,0.3,0.7c0,0.2,0,0.5,0,0.9v3.4h-0.9v-3.4c0-0.4,0-0.7-0.1-0.9
			c-0.1-0.2-0.2-0.3-0.4-0.5c-0.2-0.1-0.4-0.2-0.6-0.2c-0.4,0-0.7,0.1-1,0.4c-0.3,0.2-0.4,0.7-0.4,1.4v3H262.2z M271.9,31.7l1,0.1
			c-0.2,0.6-0.4,1-0.9,1.3c-0.4,0.3-0.9,0.5-1.6,0.5c-0.8,0-1.4-0.2-1.9-0.8c-0.5-0.5-0.7-1.2-0.7-2.1c0-0.9,0.2-1.6,0.7-2.2
			c0.5-0.5,1.1-0.8,1.9-0.8c0.7,0,1.3,0.3,1.8,0.8c0.5,0.5,0.7,1.2,0.7,2.1c0,0.1,0,0.1,0,0.2h-4.1c0,0.6,0.2,1.1,0.5,1.4
			s0.7,0.5,1.2,0.5c0.3,0,0.6-0.1,0.9-0.3C271.5,32.4,271.7,32.1,271.9,31.7z M268.8,30.2h3.1c0-0.5-0.2-0.8-0.4-1
			c-0.3-0.4-0.7-0.5-1.2-0.5c-0.4,0-0.8,0.1-1.1,0.4C269,29.4,268.8,29.7,268.8,30.2z"/>
		<path d="M181.6,46.5V41h0.8v0.8c0.2-0.4,0.4-0.7,0.6-0.8c0.2-0.1,0.4-0.2,0.6-0.2c0.3,0,0.6,0.1,1,0.3l-0.3,0.9
			c-0.2-0.1-0.5-0.2-0.7-0.2c-0.2,0-0.4,0.1-0.6,0.2c-0.2,0.1-0.3,0.3-0.3,0.5c-0.1,0.3-0.2,0.7-0.2,1.1v2.9H181.6z M188.9,44.7
			l1,0.1c-0.2,0.6-0.4,1-0.9,1.3c-0.4,0.3-0.9,0.5-1.6,0.5c-0.8,0-1.4-0.2-1.9-0.8c-0.5-0.5-0.7-1.2-0.7-2.1c0-0.9,0.2-1.6,0.7-2.2
			c0.5-0.5,1.1-0.8,1.9-0.8c0.7,0,1.3,0.3,1.8,0.8c0.5,0.5,0.7,1.2,0.7,2.1c0,0.1,0,0.1,0,0.2h-4.1c0,0.6,0.2,1.1,0.5,1.4
			c0.3,0.3,0.7,0.5,1.2,0.5c0.3,0,0.6-0.1,0.9-0.3C188.6,45.4,188.8,45.1,188.9,44.7z M185.8,43.2h3.1c0-0.5-0.2-0.8-0.4-1
			c-0.3-0.4-0.7-0.5-1.2-0.5c-0.4,0-0.8,0.1-1.1,0.4C186,42.4,185.9,42.7,185.8,43.2z M186.6,40.3l0.7-1.5h1.2l-1.1,1.5H186.6z
			 M194.7,45.8c-0.4,0.3-0.7,0.5-1,0.6c-0.3,0.1-0.7,0.2-1,0.2c-0.6,0-1.1-0.1-1.4-0.4c-0.3-0.3-0.5-0.7-0.5-1.1
			c0-0.3,0.1-0.5,0.2-0.7c0.1-0.2,0.3-0.4,0.5-0.5c0.2-0.1,0.4-0.2,0.7-0.3c0.2,0,0.5-0.1,0.8-0.1c0.8-0.1,1.3-0.2,1.7-0.3
			c0-0.1,0-0.2,0-0.2c0-0.4-0.1-0.7-0.3-0.8c-0.2-0.2-0.6-0.3-1.1-0.3c-0.4,0-0.8,0.1-1,0.2c-0.2,0.2-0.4,0.4-0.5,0.8l-0.9-0.1
			c0.1-0.4,0.2-0.7,0.4-0.9c0.2-0.2,0.5-0.4,0.8-0.6c0.4-0.1,0.8-0.2,1.2-0.2c0.5,0,0.9,0.1,1.2,0.2c0.3,0.1,0.5,0.3,0.6,0.4
			c0.1,0.2,0.2,0.4,0.3,0.6c0,0.2,0,0.4,0,0.9v1.2c0,0.9,0,1.4,0.1,1.7c0,0.2,0.1,0.4,0.2,0.7h-1C194.8,46.3,194.7,46.1,194.7,45.8z
			 M194.6,43.8c-0.3,0.1-0.9,0.2-1.5,0.3c-0.4,0.1-0.7,0.1-0.8,0.2c-0.2,0.1-0.3,0.2-0.4,0.3c-0.1,0.1-0.1,0.3-0.1,0.4
			c0,0.2,0.1,0.5,0.3,0.6c0.2,0.2,0.5,0.2,0.8,0.2c0.4,0,0.7-0.1,1-0.2c0.3-0.2,0.5-0.4,0.6-0.7c0.1-0.2,0.2-0.5,0.2-0.9V43.8z
			 M197,46.5v-7.6h0.9v7.6H197z M199.4,40v-1.1h0.9V40H199.4z M199.4,46.5V41h0.9v5.5H199.4z M201.4,44.9l0.9-0.1
			c0.1,0.4,0.2,0.7,0.4,0.9c0.2,0.2,0.6,0.3,1,0.3c0.4,0,0.7-0.1,1-0.3c0.2-0.2,0.3-0.4,0.3-0.6c0-0.2-0.1-0.4-0.3-0.5
			c-0.1-0.1-0.4-0.2-1-0.3c-0.7-0.2-1.2-0.3-1.4-0.5c-0.3-0.1-0.5-0.3-0.6-0.5c-0.1-0.2-0.2-0.5-0.2-0.8c0-0.2,0.1-0.5,0.2-0.7
			c0.1-0.2,0.3-0.4,0.5-0.5c0.1-0.1,0.3-0.2,0.6-0.3c0.3-0.1,0.5-0.1,0.8-0.1c0.4,0,0.8,0.1,1.1,0.2c0.3,0.1,0.6,0.3,0.7,0.5
			c0.2,0.2,0.3,0.5,0.3,0.9l-0.9,0.1c0-0.3-0.2-0.5-0.4-0.7c-0.2-0.2-0.5-0.2-0.8-0.2c-0.4,0-0.8,0.1-0.9,0.2
			c-0.2,0.1-0.3,0.3-0.3,0.5c0,0.1,0,0.2,0.1,0.3c0.1,0.1,0.2,0.2,0.4,0.2c0.1,0,0.4,0.1,0.8,0.2c0.7,0.2,1.1,0.3,1.4,0.4
			c0.3,0.1,0.5,0.3,0.6,0.5c0.2,0.2,0.2,0.5,0.2,0.8c0,0.3-0.1,0.6-0.3,0.9c-0.2,0.3-0.4,0.5-0.8,0.6c-0.3,0.1-0.7,0.2-1.2,0.2
			c-0.7,0-1.3-0.1-1.6-0.4C201.7,45.9,201.5,45.5,201.4,44.9z M210.7,45.8c-0.4,0.3-0.7,0.5-1,0.6c-0.3,0.1-0.7,0.2-1,0.2
			c-0.6,0-1.1-0.1-1.4-0.4c-0.3-0.3-0.5-0.7-0.5-1.1c0-0.3,0.1-0.5,0.2-0.7c0.1-0.2,0.3-0.4,0.5-0.5c0.2-0.1,0.4-0.2,0.7-0.3
			c0.2,0,0.5-0.1,0.8-0.1c0.8-0.1,1.3-0.2,1.7-0.3c0-0.1,0-0.2,0-0.2c0-0.4-0.1-0.7-0.3-0.8c-0.2-0.2-0.6-0.3-1.1-0.3
			c-0.4,0-0.8,0.1-1,0.2c-0.2,0.2-0.4,0.4-0.5,0.8l-0.9-0.1c0.1-0.4,0.2-0.7,0.4-0.9c0.2-0.2,0.5-0.4,0.8-0.6
			c0.4-0.1,0.8-0.2,1.2-0.2c0.5,0,0.9,0.1,1.2,0.2c0.3,0.1,0.5,0.3,0.6,0.4c0.1,0.2,0.2,0.4,0.3,0.6c0,0.2,0,0.4,0,0.9v1.2
			c0,0.9,0,1.4,0.1,1.7c0,0.2,0.1,0.4,0.2,0.7h-1C210.8,46.3,210.7,46.1,210.7,45.8z M210.6,43.8c-0.3,0.1-0.9,0.2-1.5,0.3
			c-0.4,0.1-0.7,0.1-0.8,0.2c-0.2,0.1-0.3,0.2-0.4,0.3c-0.1,0.1-0.1,0.3-0.1,0.4c0,0.2,0.1,0.5,0.3,0.6c0.2,0.2,0.5,0.2,0.8,0.2
			c0.4,0,0.7-0.1,1-0.2s0.5-0.4,0.6-0.7c0.1-0.2,0.2-0.5,0.2-0.9V43.8z M215,45.7l0.1,0.8c-0.3,0.1-0.5,0.1-0.7,0.1
			c-0.3,0-0.6-0.1-0.8-0.2c-0.2-0.1-0.3-0.3-0.4-0.4c-0.1-0.2-0.1-0.5-0.1-1.1v-3.2h-0.7V41h0.7v-1.4l0.9-0.6V41h0.9v0.7h-0.9V45
			c0,0.3,0,0.4,0,0.5c0,0.1,0.1,0.1,0.2,0.2c0.1,0,0.2,0.1,0.3,0.1C214.7,45.7,214.9,45.7,215,45.7z M215.9,40v-1.1h0.9V40H215.9z
			 M215.9,46.5V41h0.9v5.5H215.9z M218,43.8c0-1,0.3-1.8,0.8-2.3c0.5-0.4,1.1-0.6,1.7-0.6c0.8,0,1.4,0.2,1.9,0.8
			c0.5,0.5,0.7,1.2,0.7,2.1c0,0.7-0.1,1.3-0.3,1.7c-0.2,0.4-0.5,0.7-0.9,1c-0.4,0.2-0.9,0.3-1.3,0.3c-0.8,0-1.4-0.2-1.9-0.7
			C218.2,45.4,218,44.7,218,43.8z M218.9,43.8c0,0.7,0.2,1.2,0.5,1.6c0.3,0.4,0.7,0.5,1.2,0.5c0.5,0,0.9-0.2,1.2-0.5
			c0.3-0.4,0.5-0.9,0.5-1.6c0-0.7-0.2-1.2-0.5-1.5c-0.3-0.4-0.7-0.5-1.2-0.5c-0.5,0-0.8,0.2-1.2,0.5C219.1,42.5,218.9,43,218.9,43.8
			z M224.2,46.5V41h0.8v0.8c0.4-0.6,1-0.9,1.8-0.9c0.3,0,0.6,0.1,0.9,0.2c0.3,0.1,0.5,0.3,0.6,0.5c0.1,0.2,0.2,0.4,0.3,0.7
			c0,0.2,0,0.5,0,0.9v3.4h-0.9v-3.4c0-0.4,0-0.7-0.1-0.9c-0.1-0.2-0.2-0.3-0.4-0.5c-0.2-0.1-0.4-0.2-0.6-0.2c-0.4,0-0.7,0.1-1,0.4
			c-0.3,0.2-0.4,0.7-0.4,1.4v3H224.2z M236.7,46.5v-0.7c-0.3,0.6-0.9,0.8-1.5,0.8c-0.4,0-0.8-0.1-1.2-0.4c-0.4-0.2-0.7-0.6-0.9-1
			c-0.2-0.4-0.3-0.9-0.3-1.5c0-0.6,0.1-1.1,0.3-1.5c0.2-0.5,0.5-0.8,0.8-1c0.4-0.2,0.8-0.4,1.2-0.4c0.3,0,0.6,0.1,0.9,0.2
			c0.3,0.1,0.5,0.3,0.6,0.5v-2.7h0.9v7.6H236.7z M233.8,43.8c0,0.7,0.1,1.2,0.4,1.6c0.3,0.4,0.7,0.5,1.1,0.5s0.8-0.2,1-0.5
			c0.3-0.3,0.4-0.9,0.4-1.5c0-0.8-0.1-1.3-0.4-1.7c-0.3-0.4-0.7-0.5-1.1-0.5c-0.4,0-0.8,0.2-1,0.5C233.9,42.5,233.8,43,233.8,43.8z
			 M242.8,44.7l1,0.1c-0.2,0.6-0.4,1-0.9,1.3c-0.4,0.3-0.9,0.5-1.6,0.5c-0.8,0-1.4-0.2-1.9-0.8c-0.5-0.5-0.7-1.2-0.7-2.1
			c0-0.9,0.2-1.6,0.7-2.2c0.5-0.5,1.1-0.8,1.9-0.8c0.7,0,1.3,0.3,1.8,0.8c0.5,0.5,0.7,1.2,0.7,2.1c0,0.1,0,0.1,0,0.2h-4.1
			c0,0.6,0.2,1.1,0.5,1.4c0.3,0.3,0.7,0.5,1.2,0.5c0.3,0,0.6-0.1,0.9-0.3C242.5,45.4,242.7,45.1,242.8,44.7z M239.8,43.2h3.1
			c0-0.5-0.2-0.8-0.4-1c-0.3-0.4-0.7-0.5-1.2-0.5c-0.4,0-0.8,0.1-1.1,0.4C240,42.4,239.8,42.7,239.8,43.2z M244.6,44.9l0.9-0.1
			c0.1,0.4,0.2,0.7,0.4,0.9c0.2,0.2,0.6,0.3,1,0.3s0.7-0.1,1-0.3c0.2-0.2,0.3-0.4,0.3-0.6c0-0.2-0.1-0.4-0.3-0.5
			c-0.1-0.1-0.4-0.2-1-0.3c-0.7-0.2-1.2-0.3-1.4-0.5c-0.3-0.1-0.5-0.3-0.6-0.5c-0.1-0.2-0.2-0.5-0.2-0.8c0-0.2,0.1-0.5,0.2-0.7
			c0.1-0.2,0.3-0.4,0.5-0.5c0.1-0.1,0.3-0.2,0.6-0.3c0.3-0.1,0.5-0.1,0.8-0.1c0.4,0,0.8,0.1,1.1,0.2c0.3,0.1,0.6,0.3,0.7,0.5
			c0.2,0.2,0.3,0.5,0.3,0.9l-0.9,0.1c0-0.3-0.2-0.5-0.4-0.7c-0.2-0.2-0.5-0.2-0.8-0.2c-0.4,0-0.8,0.1-0.9,0.2
			c-0.2,0.1-0.3,0.3-0.3,0.5c0,0.1,0,0.2,0.1,0.3c0.1,0.1,0.2,0.2,0.4,0.2c0.1,0,0.4,0.1,0.8,0.2c0.7,0.2,1.1,0.3,1.4,0.4
			c0.3,0.1,0.5,0.3,0.6,0.5c0.2,0.2,0.2,0.5,0.2,0.8c0,0.3-0.1,0.6-0.3,0.9c-0.2,0.3-0.4,0.5-0.8,0.6c-0.3,0.1-0.7,0.2-1.2,0.2
			c-0.7,0-1.3-0.1-1.6-0.4C245,45.9,244.7,45.5,244.6,44.9z M255.3,45.7l0.1,0.8c-0.3,0.1-0.5,0.1-0.7,0.1c-0.3,0-0.6-0.1-0.8-0.2
			c-0.2-0.1-0.3-0.3-0.4-0.4c-0.1-0.2-0.1-0.5-0.1-1.1v-3.2h-0.7V41h0.7v-1.4l0.9-0.6V41h0.9v0.7h-0.9V45c0,0.3,0,0.4,0,0.5
			c0,0.1,0.1,0.1,0.2,0.2c0.1,0,0.2,0.1,0.3,0.1C255,45.7,255.2,45.7,255.3,45.7z M259.8,45.8c-0.4,0.3-0.7,0.5-1,0.6
			c-0.3,0.1-0.7,0.2-1,0.2c-0.6,0-1.1-0.1-1.4-0.4c-0.3-0.3-0.5-0.7-0.5-1.1c0-0.3,0.1-0.5,0.2-0.7c0.1-0.2,0.3-0.4,0.5-0.5
			c0.2-0.1,0.4-0.2,0.7-0.3c0.2,0,0.5-0.1,0.8-0.1c0.8-0.1,1.3-0.2,1.7-0.3c0-0.1,0-0.2,0-0.2c0-0.4-0.1-0.7-0.3-0.8
			c-0.2-0.2-0.6-0.3-1.1-0.3c-0.4,0-0.8,0.1-1,0.2c-0.2,0.2-0.4,0.4-0.5,0.8l-0.9-0.1c0.1-0.4,0.2-0.7,0.4-0.9
			c0.2-0.2,0.5-0.4,0.8-0.6c0.4-0.1,0.8-0.2,1.2-0.2c0.5,0,0.9,0.1,1.2,0.2c0.3,0.1,0.5,0.3,0.6,0.4c0.1,0.2,0.2,0.4,0.3,0.6
			c0,0.2,0,0.4,0,0.9v1.2c0,0.9,0,1.4,0.1,1.7c0,0.2,0.1,0.4,0.2,0.7h-1C259.9,46.3,259.9,46.1,259.8,45.8z M259.8,43.8
			c-0.3,0.1-0.9,0.2-1.5,0.3c-0.4,0.1-0.7,0.1-0.8,0.2c-0.2,0.1-0.3,0.2-0.4,0.3c-0.1,0.1-0.1,0.3-0.1,0.4c0,0.2,0.1,0.5,0.3,0.6
			c0.2,0.2,0.5,0.2,0.8,0.2c0.4,0,0.7-0.1,1-0.2s0.5-0.4,0.6-0.7c0.1-0.2,0.2-0.5,0.2-0.9V43.8z M258.3,39.4l-0.6,0.9h-1.1l1.1-1.5
			h1l1.2,1.5h-1.1L258.3,39.4z M265.8,44.5l0.9,0.1c-0.1,0.6-0.4,1.1-0.8,1.5c-0.4,0.4-0.9,0.5-1.5,0.5c-0.8,0-1.4-0.2-1.8-0.7
			c-0.5-0.5-0.7-1.2-0.7-2.1c0-0.6,0.1-1.1,0.3-1.6c0.2-0.4,0.5-0.8,0.9-1c0.4-0.2,0.8-0.3,1.3-0.3c0.6,0,1.1,0.2,1.5,0.5
			c0.4,0.3,0.6,0.7,0.7,1.3l-0.9,0.1c-0.1-0.4-0.2-0.6-0.5-0.8s-0.5-0.3-0.8-0.3c-0.5,0-0.9,0.2-1.2,0.5c-0.3,0.3-0.4,0.9-0.4,1.6
			c0,0.7,0.1,1.3,0.4,1.6c0.3,0.3,0.7,0.5,1.1,0.5c0.4,0,0.7-0.1,0.9-0.3C265.5,45.3,265.7,45,265.8,44.5z M267.5,46.5v-7.6h0.9v2.7
			c0.4-0.5,1-0.8,1.7-0.8c0.4,0,0.8,0.1,1.1,0.2c0.3,0.2,0.5,0.4,0.6,0.7c0.1,0.3,0.2,0.7,0.2,1.2v3.5H271V43c0-0.5-0.1-0.8-0.3-1
			c-0.2-0.2-0.5-0.3-0.9-0.3c-0.3,0-0.5,0.1-0.8,0.2c-0.2,0.1-0.4,0.3-0.5,0.6c-0.1,0.2-0.2,0.6-0.2,1v3H267.5z M277.2,44.7l1,0.1
			c-0.2,0.6-0.4,1-0.9,1.3c-0.4,0.3-0.9,0.5-1.6,0.5c-0.8,0-1.4-0.2-1.9-0.8c-0.5-0.5-0.7-1.2-0.7-2.1c0-0.9,0.2-1.6,0.7-2.2
			c0.5-0.5,1.1-0.8,1.9-0.8c0.7,0,1.3,0.3,1.8,0.8c0.5,0.5,0.7,1.2,0.7,2.1c0,0.1,0,0.1,0,0.2h-4.1c0,0.6,0.2,1.1,0.5,1.4
			c0.3,0.3,0.7,0.5,1.2,0.5c0.3,0,0.6-0.1,0.9-0.3C276.9,45.4,277,45.1,277.2,44.7z M274.1,43.2h3.1c0-0.5-0.2-0.8-0.4-1
			c-0.3-0.4-0.7-0.5-1.2-0.5c-0.4,0-0.8,0.1-1.1,0.4C274.3,42.4,274.1,42.7,274.1,43.2z M279,44.9l0.9-0.1c0.1,0.4,0.2,0.7,0.4,0.9
			c0.2,0.2,0.6,0.3,1,0.3c0.4,0,0.7-0.1,1-0.3c0.2-0.2,0.3-0.4,0.3-0.6c0-0.2-0.1-0.4-0.3-0.5c-0.1-0.1-0.4-0.2-1-0.3
			c-0.7-0.2-1.2-0.3-1.4-0.5c-0.3-0.1-0.5-0.3-0.6-0.5c-0.1-0.2-0.2-0.5-0.2-0.8c0-0.2,0.1-0.5,0.2-0.7c0.1-0.2,0.3-0.4,0.5-0.5
			c0.1-0.1,0.3-0.2,0.6-0.3c0.3-0.1,0.5-0.1,0.8-0.1c0.4,0,0.8,0.1,1.1,0.2c0.3,0.1,0.6,0.3,0.7,0.5c0.2,0.2,0.3,0.5,0.3,0.9
			l-0.9,0.1c0-0.3-0.2-0.5-0.4-0.7c-0.2-0.2-0.5-0.2-0.8-0.2c-0.4,0-0.8,0.1-0.9,0.2c-0.2,0.1-0.3,0.3-0.3,0.5c0,0.1,0,0.2,0.1,0.3
			c0.1,0.1,0.2,0.2,0.4,0.2c0.1,0,0.4,0.1,0.8,0.2c0.7,0.2,1.1,0.3,1.4,0.4c0.3,0.1,0.5,0.3,0.6,0.5c0.2,0.2,0.2,0.5,0.2,0.8
			c0,0.3-0.1,0.6-0.3,0.9c-0.2,0.3-0.4,0.5-0.8,0.6c-0.3,0.1-0.7,0.2-1.2,0.2c-0.7,0-1.3-0.1-1.6-0.4
			C279.3,45.9,279.1,45.5,279,44.9z"/>
		<path d="M210.6,57.7l1,0.1c-0.2,0.6-0.4,1-0.9,1.3c-0.4,0.3-0.9,0.5-1.6,0.5c-0.8,0-1.4-0.2-1.9-0.8c-0.5-0.5-0.7-1.2-0.7-2.1
			c0-0.9,0.2-1.6,0.7-2.2c0.5-0.5,1.1-0.8,1.9-0.8c0.7,0,1.3,0.3,1.8,0.8c0.5,0.5,0.7,1.2,0.7,2.1c0,0.1,0,0.1,0,0.2h-4.1
			c0,0.6,0.2,1.1,0.5,1.4c0.3,0.3,0.7,0.5,1.2,0.5c0.3,0,0.6-0.1,0.9-0.3C210.2,58.4,210.4,58.1,210.6,57.7z M207.5,56.2h3.1
			c0-0.5-0.2-0.8-0.4-1c-0.3-0.4-0.7-0.5-1.2-0.5c-0.4,0-0.8,0.1-1.1,0.4C207.7,55.4,207.5,55.7,207.5,56.2z M212.7,59.5V54h0.8v0.8
			c0.4-0.6,1-0.9,1.8-0.9c0.3,0,0.6,0.1,0.9,0.2c0.3,0.1,0.5,0.3,0.6,0.5c0.1,0.2,0.2,0.4,0.3,0.7c0,0.2,0,0.5,0,0.9v3.4h-0.9v-3.4
			c0-0.4,0-0.7-0.1-0.9c-0.1-0.2-0.2-0.3-0.4-0.5c-0.2-0.1-0.4-0.2-0.6-0.2c-0.4,0-0.7,0.1-1,0.4c-0.3,0.2-0.4,0.7-0.4,1.4v3H212.7z
			 M220.7,58.7l0.1,0.8c-0.3,0.1-0.5,0.1-0.7,0.1c-0.3,0-0.6-0.1-0.8-0.2c-0.2-0.1-0.3-0.3-0.4-0.4c-0.1-0.2-0.1-0.5-0.1-1.1v-3.2
			h-0.7V54h0.7v-1.4l0.9-0.6V54h0.9v0.7h-0.9V58c0,0.3,0,0.4,0,0.5c0,0.1,0.1,0.1,0.2,0.2c0.1,0,0.2,0.1,0.3,0.1
			C220.4,58.7,220.5,58.7,220.7,58.7z M221.6,59.5V54h0.8v0.8c0.2-0.4,0.4-0.7,0.6-0.8c0.2-0.1,0.4-0.2,0.6-0.2c0.3,0,0.6,0.1,1,0.3
			l-0.3,0.9c-0.2-0.1-0.5-0.2-0.7-0.2c-0.2,0-0.4,0.1-0.6,0.2c-0.2,0.1-0.3,0.3-0.3,0.5c-0.1,0.3-0.2,0.7-0.2,1.1v2.9H221.6z
			 M228.9,57.7l1,0.1c-0.2,0.6-0.4,1-0.9,1.3c-0.4,0.3-0.9,0.5-1.6,0.5c-0.8,0-1.4-0.2-1.9-0.8c-0.5-0.5-0.7-1.2-0.7-2.1
			c0-0.9,0.2-1.6,0.7-2.2c0.5-0.5,1.1-0.8,1.9-0.8c0.7,0,1.3,0.3,1.8,0.8c0.5,0.5,0.7,1.2,0.7,2.1c0,0.1,0,0.1,0,0.2h-4.1
			c0,0.6,0.2,1.1,0.5,1.4c0.3,0.3,0.7,0.5,1.2,0.5c0.3,0,0.6-0.1,0.9-0.3C228.6,58.4,228.8,58.1,228.9,57.7z M225.8,56.2h3.1
			c0-0.5-0.2-0.8-0.4-1c-0.3-0.4-0.7-0.5-1.2-0.5c-0.4,0-0.8,0.1-1.1,0.4C226,55.4,225.9,55.7,225.8,56.2z M231.1,61.6V54h0.9v0.7
			c0.2-0.3,0.4-0.5,0.7-0.6c0.3-0.1,0.6-0.2,0.9-0.2c0.5,0,0.9,0.1,1.2,0.4c0.4,0.2,0.6,0.6,0.8,1c0.2,0.4,0.3,0.9,0.3,1.5
			c0,0.6-0.1,1.1-0.3,1.5c-0.2,0.4-0.5,0.8-0.9,1c-0.4,0.2-0.8,0.4-1.2,0.4c-0.3,0-0.6-0.1-0.8-0.2c-0.2-0.1-0.5-0.3-0.6-0.5v2.7
			H231.1z M231.9,56.8c0,0.7,0.1,1.2,0.4,1.6s0.6,0.5,1,0.5c0.4,0,0.8-0.2,1.1-0.5c0.3-0.4,0.5-0.9,0.5-1.6c0-0.7-0.1-1.2-0.4-1.6
			c-0.3-0.4-0.6-0.5-1-0.5c-0.4,0-0.8,0.2-1.1,0.6C232.1,55.5,231.9,56.1,231.9,56.8z M237,59.5V54h0.8v0.8c0.2-0.4,0.4-0.7,0.6-0.8
			c0.2-0.1,0.4-0.2,0.6-0.2c0.3,0,0.6,0.1,1,0.3l-0.3,0.9c-0.2-0.1-0.5-0.2-0.7-0.2c-0.2,0-0.4,0.1-0.6,0.2
			c-0.2,0.1-0.3,0.3-0.3,0.5c-0.1,0.3-0.2,0.7-0.2,1.1v2.9H237z M240.5,53v-1.1h0.9V53H240.5z M240.5,59.5V54h0.9v5.5H240.5z
			 M242.5,57.9l0.9-0.1c0.1,0.4,0.2,0.7,0.4,0.9c0.2,0.2,0.6,0.3,1,0.3s0.7-0.1,1-0.3c0.2-0.2,0.3-0.4,0.3-0.6
			c0-0.2-0.1-0.4-0.3-0.5c-0.1-0.1-0.4-0.2-1-0.3c-0.7-0.2-1.2-0.3-1.4-0.5c-0.3-0.1-0.5-0.3-0.6-0.5c-0.1-0.2-0.2-0.5-0.2-0.8
			c0-0.2,0.1-0.5,0.2-0.7c0.1-0.2,0.3-0.4,0.5-0.5c0.1-0.1,0.3-0.2,0.6-0.3c0.3-0.1,0.5-0.1,0.8-0.1c0.4,0,0.8,0.1,1.1,0.2
			c0.3,0.1,0.6,0.3,0.7,0.5c0.2,0.2,0.3,0.5,0.3,0.9l-0.9,0.1c0-0.3-0.2-0.5-0.4-0.7c-0.2-0.2-0.5-0.2-0.8-0.2
			c-0.4,0-0.8,0.1-0.9,0.2c-0.2,0.1-0.3,0.3-0.3,0.5c0,0.1,0,0.2,0.1,0.3c0.1,0.1,0.2,0.2,0.4,0.2c0.1,0,0.4,0.1,0.8,0.2
			c0.7,0.2,1.1,0.3,1.4,0.4c0.3,0.1,0.5,0.3,0.6,0.5c0.2,0.2,0.2,0.5,0.2,0.8c0,0.3-0.1,0.6-0.3,0.9c-0.2,0.3-0.4,0.5-0.8,0.6
			c-0.3,0.1-0.7,0.2-1.2,0.2c-0.7,0-1.3-0.1-1.6-0.4C242.9,58.9,242.6,58.5,242.5,57.9z M252,57.7l1,0.1c-0.2,0.6-0.4,1-0.9,1.3
			c-0.4,0.3-0.9,0.5-1.6,0.5c-0.8,0-1.4-0.2-1.9-0.8c-0.5-0.5-0.7-1.2-0.7-2.1c0-0.9,0.2-1.6,0.7-2.2c0.5-0.5,1.1-0.8,1.9-0.8
			c0.7,0,1.3,0.3,1.8,0.8c0.5,0.5,0.7,1.2,0.7,2.1c0,0.1,0,0.1,0,0.2h-4.1c0,0.6,0.2,1.1,0.5,1.4c0.3,0.3,0.7,0.5,1.2,0.5
			c0.3,0,0.6-0.1,0.9-0.3C251.7,58.4,251.9,58.1,252,57.7z M248.9,56.2h3.1c0-0.5-0.2-0.8-0.4-1c-0.3-0.4-0.7-0.5-1.2-0.5
			c-0.4,0-0.8,0.1-1.1,0.4C249.1,55.4,249,55.7,248.9,56.2z M253.8,57.9l0.9-0.1c0.1,0.4,0.2,0.7,0.4,0.9c0.2,0.2,0.6,0.3,1,0.3
			s0.7-0.1,1-0.3c0.2-0.2,0.3-0.4,0.3-0.6c0-0.2-0.1-0.4-0.3-0.5c-0.1-0.1-0.4-0.2-1-0.3c-0.7-0.2-1.2-0.3-1.4-0.5
			c-0.3-0.1-0.5-0.3-0.6-0.5c-0.1-0.2-0.2-0.5-0.2-0.8c0-0.2,0.1-0.5,0.2-0.7c0.1-0.2,0.3-0.4,0.5-0.5c0.1-0.1,0.3-0.2,0.6-0.3
			c0.3-0.1,0.5-0.1,0.8-0.1c0.4,0,0.8,0.1,1.1,0.2c0.3,0.1,0.6,0.3,0.7,0.5c0.2,0.2,0.3,0.5,0.3,0.9l-0.9,0.1c0-0.3-0.2-0.5-0.4-0.7
			c-0.2-0.2-0.5-0.2-0.8-0.2c-0.4,0-0.8,0.1-0.9,0.2c-0.2,0.1-0.3,0.3-0.3,0.5c0,0.1,0,0.2,0.1,0.3c0.1,0.1,0.2,0.2,0.4,0.2
			c0.1,0,0.4,0.1,0.8,0.2c0.7,0.2,1.1,0.3,1.4,0.4c0.3,0.1,0.5,0.3,0.6,0.5c0.2,0.2,0.2,0.5,0.2,0.8c0,0.3-0.1,0.6-0.3,0.9
			c-0.2,0.3-0.4,0.5-0.8,0.6c-0.3,0.1-0.7,0.2-1.2,0.2c-0.7,0-1.3-0.1-1.6-0.4C254.1,58.9,253.9,58.5,253.8,57.9z"/>
		<path class="st0" d="M126,40.5h36.6v-4.2l8.4,8.4l-8.4,8.4v-4.2H126V40.5z"/>
		<path class="st1" d="M126,40.5h36.6v-4.2l8.4,8.4l-8.4,8.4v-4.2H126V40.5z"/>
		<path class="st0" d="M296.5,40.5h36.6v-4.2l8.4,8.4l-8.4,8.4v-4.2h-36.6V40.5z"/>
		<path class="st1" d="M296.5,40.5h36.6v-4.2l8.4,8.4l-8.4,8.4v-4.2h-36.6V40.5z"/>
	</g>
</g>
</svg>
