<svg enable-background="new 0 0 457.7 87.9" viewBox="0 0 457.7 87.9" xmlns="http://www.w3.org/2000/svg"><path clip-rule="evenodd" d="m.5.5h125.5v84.6h-125.5z" fill="#cfe2f3" fill-rule="evenodd"/><path d="m.5.5h125.5v84.6h-125.5z" fill="none" stroke="#000" stroke-linejoin="round" stroke-miterlimit="10"/><path clip-rule="evenodd" d="m171 .5h125.5v84.6h-125.5z" fill="#cfe2f3" fill-rule="evenodd"/><path d="m171 .5h125.5v84.6h-125.5z" fill="none" stroke="#000" stroke-linejoin="round" stroke-miterlimit="10"/><path clip-rule="evenodd" d="m341.6.5h115.7v84.6h-115.7z" fill="#cfe2f3" fill-rule="evenodd"/><path d="m341.6.5h115.7v84.6h-115.7z" fill="none" stroke="#000" stroke-linejoin="round" stroke-miterlimit="10"/><path d="m352 20.5v-7.6h5.5v.9h-4.5v2.3h4.2v.9h-4.2v2.6h4.7v.9zm6.9 0v-5.5h.8v.8c.4-.6 1-.9 1.8-.9.3 0 .6.1.9.2s.5.3.6.5.2.4.3.7v.9 3.4h-.9v-3.4c0-.4 0-.7-.1-.9s-.2-.3-.4-.5c-.2-.1-.4-.2-.6-.2-.4 0-.7.1-1 .4-.3.2-.4.7-.4 1.4v3h-1zm6.2 0v-4.8h-.8v-.7h.8v-.6c0-.4 0-.7.1-.8.1-.2.2-.4.5-.6.2-.2.5-.2 1-.2.3 0 .6 0 .9.1l-.1.8c-.2 0-.4-.1-.5-.1-.3 0-.5.1-.6.2s-.2.4-.2.7v.5h1.1v.7h-1.3v4.8zm2.7-6.5v-1.1h.9v1.1zm0 6.5v-5.5h.9v5.5zm2.4 0v-5.5h.8v.8c.4-.6 1-.9 1.8-.9.3 0 .6.1.9.2s.5.3.6.5.2.4.3.7v.9 3.4h-.9v-3.4c0-.4 0-.7-.1-.9s-.2-.3-.4-.5c-.2-.1-.4-.2-.6-.2-.4 0-.7.1-1 .4-.3.2-.4.7-.4 1.4v3h-1zm6.2 0v-1.1h1.1v1.1c0 .4-.1.7-.2 1-.1.2-.4.4-.7.6l-.2-.4c.2-.1.3-.2.4-.4s.1-.4.2-.7h-.6zm5.6 0v-5.5h.8v.8c.2-.4.4-.7.6-.8s.4-.2.6-.2c.3 0 .6.1 1 .3l-.3.9c-.2-.1-.5-.2-.7-.2s-.4.1-.6.2-.3.3-.3.5c-.1.3-.2.7-.2 1.1v2.9zm7.4-1.8 1 .1c-.2.6-.4 1-.9 1.3-.4.3-.9.5-1.6.5-.8 0-1.4-.2-1.9-.8-.5-.5-.7-1.2-.7-2.1s.2-1.6.7-2.2c.5-.5 1.1-.8 1.9-.8.7 0 1.3.3 1.8.8s.7 1.2.7 2.1v.2h-4.1c0 .6.2 1.1.5 1.4s.7.5 1.2.5c.3 0 .6-.1.9-.3.1 0 .3-.3.5-.7zm-3.1-1.5h3.1c0-.5-.2-.8-.4-1-.3-.4-.7-.5-1.2-.5-.4 0-.8.1-1.1.4-.2.3-.4.6-.4 1.1zm.7-2.9.7-1.5h1.2l-1.1 1.5zm8.1 4.2.9.1c-.1.6-.4 1.1-.8 1.5s-.9.5-1.5.5c-.7 0-1.4-.2-1.8-.7-.5-.5-.7-1.2-.7-2.1 0-.6.1-1.1.3-1.6.2-.4.5-.8.9-1s.8-.3 1.3-.3c.6 0 1.1.2 1.5.5s.6.7.7 1.3l-.9.1c-.1-.4-.2-.6-.5-.8-.2-.2-.5-.3-.8-.3-.5 0-.9.2-1.2.5s-.4.9-.4 1.6.1 1.3.4 1.6.7.5 1.1.5.7-.1.9-.3c.4-.3.5-.6.6-1.1zm5.3 1.3c-.4.3-.7.5-1 .6s-.7.2-1 .2c-.6 0-1.1-.1-1.4-.4s-.5-.7-.5-1.1c0-.3.1-.5.2-.7s.3-.4.5-.5.4-.2.7-.3c.2 0 .5-.1.8-.1.8-.1 1.3-.2 1.7-.3 0-.1 0-.2 0-.2 0-.4-.1-.7-.3-.8-.2-.2-.6-.3-1.1-.3-.4 0-.8.1-1 .2-.2.2-.4.4-.5.8l-.9-.1c.1-.4.2-.7.4-.9s.5-.4.8-.6c.4-.1.8-.2 1.2-.2.5 0 .9.1 1.2.2s.5.3.6.4c.1.2.2.4.3.6v.9 1.2c0 .9 0 1.4.1 1.7 0 .2.1.4.2.7h-1c.1-.5.1-.7 0-1zm0-2c-.3.1-.9.2-1.5.3-.4.1-.7.1-.8.2-.2.1-.3.2-.4.3s-.1.3-.1.4c0 .2.1.5.3.6.2.2.5.2.8.2.4 0 .7-.1 1-.2.3-.2.5-.4.6-.7.1-.2.2-.5.2-.9v-.2zm2.4 4.8v-7.6h.9v.7c.2-.3.4-.5.7-.6s.6-.2.9-.2c.5 0 .9.1 1.2.4.4.2.6.6.8 1s.3.9.3 1.5-.1 1.1-.3 1.5-.5.8-.9 1-.8.4-1.2.4c-.3 0-.6-.1-.8-.2s-.5-.3-.6-.5v2.7h-1zm.8-4.8c0 .7.1 1.2.4 1.6.3.3.6.5 1 .5s.8-.2 1.1-.5c.3-.4.5-.9.5-1.6s-.1-1.2-.4-1.6-.6-.5-1-.5-.8.2-1.1.6c-.3.2-.5.8-.5 1.5zm5.1-3.8v-1.1h.9v1.1zm0 6.5v-5.5h.9v5.5zm4.4-.8.1.8c-.3.1-.5.1-.7.1-.3 0-.6-.1-.8-.2s-.3-.3-.4-.4c-.1-.2-.1-.5-.1-1.1v-3.2h-.7v-.7h.7v-1.4l.9-.6v2h.9v.7h-.9v3.3.5c0 .1.1.1.2.2.1 0 .2.1.3.1.2-.1.3-.1.5-.1zm4.5.8v-.8c-.4.6-1 .9-1.8.9-.3 0-.6-.1-.9-.2s-.5-.3-.6-.5-.2-.4-.3-.7c0-.2 0-.5 0-.9v-3.3h.9v3.1 1c.1.2.2.4.4.6.2.1.4.2.7.2s.5-.1.8-.2c.2-.1.4-.3.5-.6.1-.2.2-.6.2-1.1v-3h.9v5.5zm2.3 0v-7.6h.9v7.6zm6.2-1.8 1 .1c-.2.6-.4 1-.9 1.3-.4.3-.9.5-1.6.5-.8 0-1.4-.2-1.9-.8-.5-.5-.7-1.2-.7-2.1s.2-1.6.7-2.2c.5-.5 1.1-.8 1.9-.8.7 0 1.3.3 1.8.8s.7 1.2.7 2.1v.2h-4.1c0 .6.2 1.1.5 1.4s.7.5 1.2.5c.3 0 .6-.1.9-.3.2 0 .3-.3.5-.7zm-3.1-1.5h3.1c0-.5-.2-.8-.4-1-.3-.4-.7-.5-1.2-.5-.4 0-.8.1-1.1.4-.2.3-.4.6-.4 1.1zm5.2 3.3v-5.5h.8v.8c.2-.4.4-.7.6-.8s.4-.2.6-.2c.3 0 .6.1 1 .3l-.3.9c-.2-.1-.5-.2-.7-.2s-.4.1-.6.2-.3.3-.3.5c-.1.3-.2.7-.2 1.1v2.9zm6.5 0v-7.6h.9v7.6zm6.2-1.8 1 .1c-.2.6-.4 1-.9 1.3-.4.3-.9.5-1.6.5-.8 0-1.4-.2-1.9-.8-.5-.5-.7-1.2-.7-2.1s.2-1.6.7-2.2c.5-.5 1.1-.8 1.9-.8.7 0 1.3.3 1.8.8s.7 1.2.7 2.1v.2h-4.1c0 .6.2 1.1.5 1.4s.7.5 1.2.5c.3 0 .6-.1.9-.3.2 0 .3-.3.5-.7zm-3.1-1.5h3.1c0-.5-.2-.8-.4-1-.3-.4-.7-.5-1.2-.5-.4 0-.8.1-1.1.4-.2.3-.4.6-.4 1.1zm4.9 1.7.9-.1c.1.4.2.7.4.9s.6.3 1 .3.7-.1 1-.3c.2-.2.3-.4.3-.6s-.1-.4-.3-.5c-.1-.1-.4-.2-1-.3-.7-.2-1.2-.3-1.4-.5-.3-.1-.5-.3-.6-.5s-.2-.5-.2-.8c0-.2.1-.5.2-.7s.3-.4.5-.5c.1-.1.3-.2.6-.3s.5-.1.8-.1c.4 0 .8.1 1.1.2s.6.3.7.5c.2.2.3.5.3.9l-.9.1c0-.3-.2-.5-.4-.7s-.5-.2-.8-.2c-.4 0-.7.1-.9.2s-.3.3-.3.5c0 .1 0 .2.1.3s.2.2.4.2c.1 0 .4.1.8.2.7.2 1.1.3 1.4.4s.5.3.6.5c.2.2.2.5.2.8s-.1.6-.3.9-.4.5-.8.6c-.3.1-.7.2-1.2.2-.7 0-1.3-.1-1.6-.4-.3-.2-.5-.6-.6-1.2z"/><path d="m355.4 33.5v-.7c-.3.6-.9.8-1.5.8-.4 0-.8-.1-1.2-.4-.4-.2-.7-.6-.9-1s-.3-.9-.3-1.5.1-1.1.3-1.5c.2-.5.5-.8.8-1 .4-.2.8-.4 1.2-.4.3 0 .6.1.9.2s.5.3.6.5v-2.7h.9v7.6h-.8zm-3-2.7c0 .7.1 1.2.4 1.6s.7.5 1.1.5.8-.2 1-.5c.3-.3.4-.9.4-1.5 0-.8-.1-1.3-.4-1.7s-.7-.5-1.1-.5-.8.2-1 .5-.4.8-.4 1.6zm9.1.9 1 .1c-.2.6-.4 1-.9 1.3-.4.3-.9.5-1.6.5-.8 0-1.4-.2-1.9-.8-.5-.5-.7-1.2-.7-2.1s.2-1.6.7-2.2c.5-.5 1.1-.8 1.9-.8.7 0 1.3.3 1.8.8s.7 1.2.7 2.1v.2h-4.1c0 .6.2 1.1.5 1.4s.7.5 1.2.5c.3 0 .6-.1.9-.3.2 0 .4-.3.5-.7zm-3.1-1.5h3.1c0-.5-.2-.8-.4-1-.3-.4-.7-.5-1.2-.5-.4 0-.8.1-1.1.4-.2.3-.3.6-.4 1.1zm.8-2.9.7-1.5h1.2l-1.1 1.5zm8.1 4.2.9.1c-.1.6-.4 1.1-.8 1.5s-.9.5-1.5.5c-.8 0-1.4-.2-1.8-.7-.5-.5-.7-1.2-.7-2.1 0-.6.1-1.1.3-1.6s.5-.8.9-1 .8-.3 1.3-.3c.6 0 1.1.2 1.5.5s.6.7.7 1.3l-.9.1c-.1-.4-.2-.6-.5-.8s-.5-.3-.8-.3c-.5 0-.9.2-1.2.5s-.4.9-.4 1.6.1 1.3.4 1.6.7.5 1.1.5.7-.1.9-.3c.3-.3.5-.6.6-1.1zm1.7-4.5v-1.1h.9v1.1zm0 6.5v-5.5h.9v5.5zm2-1.6.9-.1c.1.4.2.7.4.9s.6.3 1 .3.7-.1 1-.3c.2-.2.3-.4.3-.6s-.1-.4-.3-.5c-.1-.1-.4-.2-1-.3-.7-.2-1.2-.3-1.4-.5-.3-.1-.5-.3-.6-.5s-.2-.5-.2-.8c0-.2.1-.5.2-.7s.3-.4.5-.5c.1-.1.3-.2.6-.3s.5-.1.8-.1c.4 0 .8.1 1.1.2s.6.3.7.5c.2.2.3.5.3.9l-.9.1c0-.3-.2-.5-.4-.7s-.5-.2-.8-.2c-.4 0-.8.1-.9.2-.2.1-.3.3-.3.5 0 .1 0 .2.1.3s.2.2.4.2c.1 0 .4.1.8.2.7.2 1.1.3 1.4.4s.5.3.6.5c.2.2.2.5.2.8s-.1.6-.3.9-.4.5-.8.6c-.3.1-.7.2-1.2.2-.7 0-1.3-.1-1.6-.4-.3-.2-.5-.6-.6-1.2zm5.7-4.9v-1.1h.9v1.1zm0 6.5v-5.5h.9v5.5zm2-2.7c0-1 .3-1.8.8-2.3.5-.4 1.1-.6 1.7-.6.8 0 1.4.2 1.9.8.5.5.7 1.2.7 2.1 0 .7-.1 1.3-.3 1.7s-.5.7-.9 1c-.4.2-.9.3-1.3.3-.8 0-1.4-.2-1.9-.7-.4-.7-.7-1.4-.7-2.3zm1 0c0 .7.2 1.2.5 1.6s.7.5 1.2.5.9-.2 1.2-.5c.3-.4.5-.9.5-1.6s-.2-1.2-.5-1.5c-.3-.4-.7-.5-1.2-.5s-.8.2-1.2.5c-.4.2-.5.7-.5 1.5zm5.3 2.7v-5.5h.8v.8c.4-.6 1-.9 1.8-.9.3 0 .6.1.9.2s.5.3.6.5.2.4.3.7v.9 3.4h-.9v-3.4c0-.4 0-.7-.1-.9s-.2-.3-.4-.5c-.2-.1-.4-.2-.6-.2-.4 0-.7.1-1 .4-.3.2-.4.7-.4 1.4v3h-1zm5.5-1.6.9-.1c.1.4.2.7.4.9s.6.3 1 .3.7-.1 1-.3c.2-.2.3-.4.3-.6s-.1-.4-.3-.5c-.1-.1-.4-.2-1-.3-.7-.2-1.2-.3-1.4-.5-.3-.1-.5-.3-.6-.5s-.2-.5-.2-.8c0-.2.1-.5.2-.7s.3-.4.5-.5c.1-.1.3-.2.6-.3s.5-.1.8-.1c.4 0 .8.1 1.1.2s.6.3.7.5c.2.2.3.5.3.9l-.9.1c0-.3-.2-.5-.4-.7s-.5-.2-.8-.2c-.4 0-.7.1-.9.2s-.3.3-.3.5c0 .1 0 .2.1.3s.2.2.4.2c.1 0 .4.1.8.2.7.2 1.1.3 1.4.4s.5.3.6.5c.2.2.2.5.2.8s-.1.6-.3.9-.4.5-.8.6c-.3.1-.7.2-1.2.2-.7 0-1.3-.1-1.6-.4-.2-.2-.5-.6-.6-1.2zm12.5-.2 1 .1c-.2.6-.4 1-.9 1.3-.4.3-.9.5-1.6.5-.8 0-1.4-.2-1.9-.8-.5-.5-.7-1.2-.7-2.1s.2-1.6.7-2.2c.5-.5 1.1-.8 1.9-.8.7 0 1.3.3 1.8.8s.7 1.2.7 2.1v.2h-4.1c0 .6.2 1.1.5 1.4s.7.5 1.2.5c.3 0 .6-.1.9-.3.1 0 .3-.3.5-.7zm-3.1-1.5h3.1c0-.5-.2-.8-.4-1-.3-.4-.7-.5-1.2-.5-.4 0-.8.1-1.1.4-.2.3-.4.6-.4 1.1zm7.3 2.5.1.8c-.3.1-.5.1-.7.1-.3 0-.6-.1-.8-.2s-.3-.3-.4-.4c-.1-.2-.1-.5-.1-1.1v-3.2h-.7v-.7h.7v-1.4l.9-.6v2h.9v.7h-.9v3.3.5c0 .1.1.1.2.2.1 0 .2.1.3.1.2-.1.3-.1.5-.1zm3.9 2.9v-7.6h.9v.7c.2-.3.4-.5.7-.6s.6-.2.9-.2c.5 0 .9.1 1.2.4.4.2.6.6.8 1s.3.9.3 1.5-.1 1.1-.3 1.5-.5.8-.9 1-.8.4-1.2.4c-.3 0-.6-.1-.8-.2s-.5-.3-.6-.5v2.7h-1zm.8-4.8c0 .7.1 1.2.4 1.6.3.3.6.5 1 .5s.8-.2 1.1-.5c.3-.4.5-.9.5-1.6s-.1-1.2-.4-1.6-.6-.5-1-.5-.8.2-1.1.6c-.4.2-.5.8-.5 1.5zm5.1 2.7v-7.6h.9v7.6zm6-.7c-.4.3-.7.5-1 .6s-.7.2-1 .2c-.6 0-1.1-.1-1.4-.4s-.5-.7-.5-1.1c0-.3.1-.5.2-.7s.3-.4.5-.5.4-.2.7-.3c.2 0 .5-.1.8-.1.7-.1 1.3-.2 1.7-.3 0-.1 0-.2 0-.2 0-.4-.1-.7-.3-.8-.2-.2-.6-.3-1.1-.3-.4 0-.8.1-1 .2-.2.2-.4.4-.5.8l-.9-.1c.1-.4.2-.7.4-.9s.5-.4.8-.6c.4-.1.8-.2 1.2-.2.5 0 .9.1 1.2.2s.5.3.6.4c.1.2.2.4.3.6v.9 1.2c0 .9 0 1.4.1 1.7 0 .2.1.4.2.7h-1c0-.5 0-.7 0-1zm-.1-2c-.3.1-.9.2-1.5.3-.4.1-.7.1-.8.2-.2.1-.3.2-.4.3s-.1.3-.1.4c0 .2.1.5.3.6.2.2.5.2.8.2.4 0 .7-.1 1-.2.3-.2.5-.4.6-.7.1-.2.2-.5.2-.9v-.2zm2.4 2.7v-5.5h.8v.8c.4-.6 1-.9 1.8-.9.3 0 .6.1.9.2s.5.3.6.5.2.4.3.7v.9 3.4h-.9v-3.4c0-.4 0-.7-.1-.9s-.2-.3-.4-.5c-.2-.1-.4-.2-.6-.2-.4 0-.7.1-1 .4-.3.2-.4.7-.4 1.4v3h-1zm5.9-6.5v-1.1h.9v1.1zm0 6.5v-5.5h.9v5.5zm2.6 0v-4.8h-.8v-.7h.8v-.6c0-.4 0-.7.1-.8.1-.2.2-.4.5-.6.2-.2.5-.2 1-.2.3 0 .6 0 .9.1l-.1.8c-.2 0-.4-.1-.5-.1-.3 0-.5.1-.6.2s-.2.4-.2.7v.5h1.1v.7h-1.1v4.8zm2.7-6.5v-1.1h.9v1.1zm0 6.5v-5.5h.9v5.5zm6.2-1.8 1 .1c-.2.6-.4 1-.9 1.3-.4.3-.9.5-1.6.5-.8 0-1.4-.2-1.9-.8-.5-.5-.7-1.2-.7-2.1s.2-1.6.7-2.2c.5-.5 1.1-.8 1.9-.8.7 0 1.3.3 1.8.8s.7 1.2.7 2.1v.2h-4.1c0 .6.2 1.1.5 1.4s.7.5 1.2.5c.3 0 .6-.1.9-.3.1 0 .3-.3.5-.7zm-3.1-1.5h3.1c0-.5-.2-.8-.4-1-.3-.4-.7-.5-1.2-.5-.4 0-.8.1-1.1.4-.2.3-.4.6-.4 1.1zm5.2 3.3v-5.5h.8v.8c.2-.4.4-.7.6-.8s.4-.2.6-.2c.3 0 .6.1 1 .3l-.3.9c-.2-.1-.5-.2-.7-.2s-.4.1-.6.2-.3.3-.3.5c-.1.3-.2.7-.2 1.1v2.9z"/><path d="m368.4 46.5v-7.6h.9v7.6zm6-.7c-.4.3-.7.5-1 .6s-.7.2-1 .2c-.6 0-1.1-.1-1.4-.4s-.5-.7-.5-1.1c0-.3.1-.5.2-.7s.3-.4.5-.5.4-.2.7-.3c.2 0 .5-.1.8-.1.8-.1 1.3-.2 1.7-.3 0-.1 0-.2 0-.2 0-.4-.1-.7-.3-.8-.2-.2-.6-.3-1.1-.3-.4 0-.8.1-1 .2-.2.2-.4.4-.5.8l-.9-.1c.1-.4.2-.7.4-.9s.5-.4.8-.6c.4-.1.8-.2 1.2-.2.5 0 .9.1 1.2.2s.5.3.6.4c.1.2.2.4.3.6v.9 1.2c0 .9 0 1.4.1 1.7 0 .2.1.4.2.7h-1c.1-.5 0-.7 0-1zm-.1-2c-.3.1-.9.2-1.5.3-.4.1-.7.1-.8.2-.2.1-.3.2-.4.3s-.1.3-.1.4c0 .2.1.5.3.6.2.2.5.2.8.2.4 0 .7-.1 1-.2s.5-.4.6-.7c.1-.2.2-.5.2-.9v-.2zm5 1.1.9-.1c.1.4.2.7.4.9s.6.3 1 .3.7-.1 1-.3c.2-.2.3-.4.3-.6s-.1-.4-.3-.5c-.1-.1-.4-.2-1-.3-.7-.2-1.2-.3-1.4-.5-.3-.1-.5-.3-.6-.5s-.2-.5-.2-.8c0-.2.1-.5.2-.7s.3-.4.5-.5c.1-.1.3-.2.6-.3s.5-.1.8-.1c.4 0 .8.1 1.1.2s.6.3.7.5c.2.2.3.5.3.9l-.9.1c0-.3-.2-.5-.4-.7s-.5-.2-.8-.2c-.4 0-.8.1-.9.2-.2.1-.3.3-.3.5 0 .1 0 .2.1.3s.2.2.4.2c.1 0 .4.1.8.2.7.2 1.1.3 1.4.4s.5.3.6.5c.2.2.2.5.2.8s-.1.6-.3.9-.4.5-.8.6c-.3.1-.7.2-1.2.2-.7 0-1.3-.1-1.6-.4-.3-.2-.5-.6-.6-1.2zm9.3 1.6v-.8c-.4.6-1 .9-1.8.9-.3 0-.6-.1-.9-.2s-.5-.3-.6-.5-.2-.4-.3-.7c0-.2 0-.5 0-.9v-3.3h.9v3.1 1c.1.2.2.4.4.6.2.1.4.2.7.2s.5-.1.8-.2c.2-.1.4-.3.5-.6.1-.2.2-.6.2-1.1v-3h.9v5.5zm2.3-6.5v-1.1h.9v1.1zm0 6.5v-5.5h.9v5.5zm4.4-.8.1.8c-.3.1-.5.1-.7.1-.3 0-.6-.1-.8-.2s-.3-.3-.4-.4c-.1-.2-.1-.5-.1-1.1v-3.2h-.7v-.7h.7v-1.4l.9-.6v2h.9v.7h-.9v3.3.5c0 .1.1.1.2.2.1 0 .2.1.3.1.2-.1.4-.1.5-.1zm4.7-1 1 .1c-.2.6-.4 1-.9 1.3-.4.3-.9.5-1.6.5-.8 0-1.4-.2-1.9-.8-.5-.5-.7-1.2-.7-2.1s.2-1.6.7-2.2c.5-.5 1.1-.8 1.9-.8.7 0 1.3.3 1.8.8s.7 1.2.7 2.1v.2h-4.1c0 .6.2 1.1.5 1.4s.7.5 1.2.5c.3 0 .6-.1.9-.3.2 0 .4-.3.5-.7zm-3.1-1.5h3.1c0-.5-.2-.8-.4-1-.3-.4-.7-.5-1.2-.5-.4 0-.8.1-1.1.4-.2.3-.3.6-.4 1.1zm11.8 2.6c-.4.3-.7.5-1 .6s-.7.2-1 .2c-.6 0-1.1-.1-1.4-.4s-.5-.7-.5-1.1c0-.3.1-.5.2-.7s.3-.4.5-.5.4-.2.7-.3c.2 0 .5-.1.8-.1.8-.1 1.3-.2 1.7-.3 0-.1 0-.2 0-.2 0-.4-.1-.7-.3-.8-.2-.2-.6-.3-1.1-.3-.4 0-.8.1-1 .2-.2.2-.4.4-.5.8l-.9-.1c.1-.4.2-.7.4-.9s.5-.4.8-.6c.4-.1.8-.2 1.2-.2.5 0 .9.1 1.2.2s.5.3.6.4c.1.2.2.4.3.6v.9 1.2c0 .9 0 1.4.1 1.7 0 .2.1.4.2.7h-1c.1-.5.1-.7 0-1zm0-2c-.3.1-.9.2-1.5.3-.4.1-.7.1-.8.2-.2.1-.3.2-.4.3s-.1.3-.1.4c0 .2.1.5.3.6.2.2.5.2.8.2.4 0 .7-.1 1-.2s.5-.4.6-.7c.1-.2.2-.5.2-.9v-.2zm-.9-3.5h-.8l-1.2-1.5h1.2zm6.2 6.2v-7.6h.9v7.6zm6.2-1.8 1 .1c-.2.6-.4 1-.9 1.3-.4.3-.9.5-1.6.5-.8 0-1.4-.2-1.9-.8-.5-.5-.7-1.2-.7-2.1s.2-1.6.7-2.2c.5-.5 1.1-.8 1.9-.8.7 0 1.3.3 1.8.8s.7 1.2.7 2.1v.2h-4.2c0 .6.2 1.1.5 1.4s.7.5 1.2.5c.3 0 .6-.1.9-.3.2 0 .4-.3.6-.7zm-3.1-1.5h3.1c0-.5-.2-.8-.4-1-.3-.4-.7-.5-1.2-.5-.4 0-.8.1-1.1.4-.2.3-.4.6-.4 1.1zm8.8 3.3v-.8c-.4.6-1 .9-1.8.9-.3 0-.6-.1-.9-.2s-.5-.3-.6-.5-.2-.4-.3-.7c0-.2 0-.5 0-.9v-3.3h.9v3.1 1c.1.2.2.4.4.6.2.1.4.2.7.2s.5-.1.8-.2.4-.3.5-.6c.1-.2.2-.6.2-1.1v-3h.9v5.5zm2.3 0v-5.5h.8v.8c.2-.4.4-.7.6-.8s.4-.2.6-.2c.3 0 .6.1 1 .3l-.3.9c-.2-.1-.5-.2-.7-.2s-.4.1-.6.2-.3.3-.3.5c-.1.3-.2.7-.2 1.1v2.9z"/><path d="m385.9 59.5v-.7c-.3.6-.9.8-1.5.8-.4 0-.8-.1-1.2-.4-.4-.2-.7-.6-.9-1s-.3-.9-.3-1.5.1-1.1.3-1.5c.2-.5.5-.8.8-1 .4-.2.8-.4 1.2-.4.3 0 .6.1.9.2s.5.3.6.5v-2.7h.9v7.6h-.8zm-3-2.7c0 .7.1 1.2.4 1.6s.7.5 1.1.5.8-.2 1-.5c.3-.3.4-.9.4-1.5 0-.8-.1-1.3-.4-1.7s-.7-.5-1.1-.5-.8.2-1 .5-.4.8-.4 1.6zm5 0c0-1 .3-1.8.8-2.3.5-.4 1.1-.6 1.7-.6.8 0 1.4.2 1.9.8.5.5.7 1.2.7 2.1 0 .7-.1 1.3-.3 1.7s-.5.7-.9 1c-.4.2-.9.3-1.3.3-.8 0-1.4-.2-1.9-.7-.5-.7-.7-1.4-.7-2.3zm1 0c0 .7.2 1.2.5 1.6s.7.5 1.2.5.9-.2 1.2-.5c.3-.4.5-.9.5-1.6s-.2-1.2-.5-1.5c-.3-.4-.7-.5-1.2-.5s-.8.2-1.2.5c-.4.2-.5.7-.5 1.5zm5.3 2.7v-5.5h.8v.8c.4-.6 1-.9 1.8-.9.3 0 .6.1.9.2s.5.3.6.5.2.4.3.7v.9 3.4h-.9v-3.4c0-.4 0-.7-.1-.9s-.2-.3-.4-.5c-.2-.1-.4-.2-.6-.2-.4 0-.7.1-1 .4-.3.2-.4.7-.4 1.4v3h-1zm5.9 0v-5.5h.8v.8c.4-.6 1-.9 1.8-.9.3 0 .6.1.9.2s.5.3.6.5.2.4.3.7v.9 3.4h-.9v-3.4c0-.4 0-.7-.1-.9s-.2-.3-.4-.5c-.2-.1-.4-.2-.6-.2-.4 0-.7.1-1 .4-.3.2-.4.7-.4 1.4v3h-1zm9.7-1.8 1 .1c-.2.6-.4 1-.9 1.3-.4.3-.9.5-1.6.5-.8 0-1.4-.2-1.9-.8-.5-.5-.7-1.2-.7-2.1s.2-1.6.7-2.2c.5-.5 1.1-.8 1.9-.8.7 0 1.3.3 1.8.8s.7 1.2.7 2.1v.2h-4.1c0 .6.2 1.1.5 1.4s.7.5 1.2.5c.3 0 .6-.1.9-.3.2 0 .4-.3.5-.7zm-3.1-1.5h3.1c0-.5-.2-.8-.4-1-.3-.4-.7-.5-1.2-.5-.4 0-.8.1-1.1.4-.2.3-.3.6-.4 1.1zm5.2 3.3v-5.5h.8v.8c.2-.4.4-.7.6-.8s.4-.2.6-.2c.3 0 .6.1 1 .3l-.3.9c-.2-.1-.5-.2-.7-.2s-.4.1-.6.2-.3.3-.3.5c-.1.3-.2.7-.2 1.1v2.9zm3.3 0v-1.1h1.1v1.1c0 .4-.1.7-.2 1-.1.2-.4.4-.7.6l-.2-.4c.2-.1.3-.2.4-.4s.1-.4.2-.7h-.6z"/><path d="m371.4 70.5.9.1c-.1.6-.4 1.1-.8 1.5s-.9.5-1.5.5c-.8 0-1.4-.2-1.8-.7-.5-.5-.7-1.2-.7-2.1 0-.6.1-1.1.3-1.6.2-.4.5-.8.9-1s.8-.3 1.3-.3c.6 0 1.1.2 1.5.5s.6.7.7 1.3l-.9.1c-.1-.4-.2-.6-.5-.8s-.5-.3-.8-.3c-.5 0-.9.2-1.2.5s-.4.9-.4 1.6.1 1.3.4 1.6.7.5 1.1.5.7-.1.9-.3c.4-.3.6-.6.6-1.1zm1.4-.7c0-1 .3-1.8.8-2.3.5-.4 1.1-.6 1.7-.6.8 0 1.4.2 1.9.8.5.5.7 1.2.7 2.1 0 .7-.1 1.3-.3 1.7s-.5.7-.9 1c-.4.2-.9.3-1.3.3-.8 0-1.4-.2-1.9-.7-.5-.7-.7-1.4-.7-2.3zm1 0c0 .7.2 1.2.5 1.6s.7.5 1.2.5.9-.2 1.2-.5c.3-.4.5-.9.5-1.6s-.2-1.2-.5-1.5c-.3-.4-.7-.5-1.2-.5s-.8.2-1.2.5c-.4.2-.5.7-.5 1.5zm5.3 2.7v-5.5h.8v.8c.2-.3.4-.5.7-.7s.6-.2 1-.2.7.1 1 .3.4.4.6.7c.4-.6 1-1 1.7-1 .6 0 1 .2 1.3.5s.4.8.4 1.4v3.8h-.9v-3.6c0-.4 0-.6-.1-.8s-.2-.3-.3-.4c-.2-.1-.3-.2-.5-.2-.4 0-.7.1-1 .4-.2.3-.4.7-.4 1.2v3.2h-.9v-3.6c0-.4-.1-.7-.2-.9s-.4-.3-.8-.3c-.3 0-.5.1-.7.2s-.4.3-.5.6-.1.6-.1 1.2v2.9zm8.8 0v-5.5h.8v.8c.2-.3.4-.5.7-.7s.6-.2 1-.2.7.1 1 .3.4.4.6.7c.4-.6 1-1 1.7-1 .6 0 1 .2 1.3.5s.4.8.4 1.4v3.8h-.9v-3.6c0-.4 0-.6-.1-.8s-.2-.3-.3-.4c-.2-.1-.3-.2-.5-.2-.4 0-.7.1-1 .4-.2.3-.4.7-.4 1.2v3.2h-.9v-3.6c0-.4-.1-.7-.2-.9s-.4-.3-.8-.3c-.3 0-.5.1-.7.2s-.4.3-.5.6-.1.6-.1 1.2v2.9zm12.5 0v-.8c-.4.6-1 .9-1.8.9-.3 0-.6-.1-.9-.2s-.5-.3-.6-.5-.2-.4-.3-.7c0-.2 0-.5 0-.9v-3.3h.9v3.1 1c.1.2.2.4.4.6.2.1.4.2.7.2s.5-.1.8-.2c.2-.1.4-.3.5-.6.1-.2.2-.6.2-1.1v-3h.9v5.5zm2.3 0v-5.5h.8v.8c.4-.6 1-.9 1.8-.9.3 0 .6.1.9.2s.5.3.6.5.2.4.3.7v.9 3.4h-.9v-3.4c0-.4 0-.7-.1-.9s-.2-.3-.4-.5c-.2-.1-.4-.2-.6-.2-.4 0-.7.1-1 .4-.3.2-.4.7-.4 1.4v3h-1zm6-6.5v-1.1h.9v1.1zm0 6.5v-5.5h.9v5.5zm5.9 2.1v-2.7c-.1.2-.3.4-.6.5s-.5.2-.8.2c-.7 0-1.2-.3-1.7-.8s-.7-1.2-.7-2.2c0-.6.1-1 .3-1.5.2-.4.5-.8.8-1 .4-.2.8-.3 1.2-.3.7 0 1.2.3 1.6.9v-.7h.8v7.7h-.9zm-2.9-4.9c0 .7.1 1.2.4 1.6s.7.5 1.1.5.7-.2 1-.5.4-.9.4-1.5c0-.7-.2-1.3-.5-1.7s-.7-.6-1.1-.6-.8.2-1 .5-.3 1-.3 1.7zm8.9 2.8v-.8c-.4.6-1 .9-1.8.9-.3 0-.6-.1-.9-.2s-.5-.3-.6-.5-.2-.4-.3-.7c0-.2 0-.5 0-.9v-3.3h.9v3.1 1c.1.2.2.4.4.6.2.1.4.2.7.2s.5-.1.8-.2c.2-.1.4-.3.5-.6.1-.2.2-.6.2-1.1v-3h.9v5.5zm6.1-1.8 1 .1c-.2.6-.4 1-.9 1.3-.4.3-.9.5-1.6.5-.8 0-1.4-.2-1.9-.8-.5-.5-.7-1.2-.7-2.1s.2-1.6.7-2.2c.5-.5 1.1-.8 1.9-.8.7 0 1.3.3 1.8.8s.7 1.2.7 2.1v.2h-4.1c0 .6.2 1.1.5 1.4s.7.5 1.2.5c.3 0 .6-.1.9-.3.1 0 .3-.3.5-.7zm-3.1-1.5h3.1c0-.5-.2-.8-.4-1-.3-.4-.7-.5-1.2-.5-.4 0-.8.1-1.1.4-.2.3-.4.6-.4 1.1zm5.2 3.3v-5.5h.8v.8c.2-.4.4-.7.6-.8s.4-.2.6-.2c.3 0 .6.1 1 .3l-.3.9c-.2-.1-.5-.2-.7-.2s-.4.1-.6.2-.3.3-.3.5c-.1.3-.2.7-.2 1.1v2.9z"/><path clip-rule="evenodd" d="m2.5 1.5h125.5v86.4h-125.5z" fill="none"/><path d="m20.8 22.5v-7.6h3.4c.7 0 1.2.1 1.5.2.4.1.6.4.8.7s.3.7.3 1.1c0 .5-.2 1-.5 1.4s-.9.6-1.6.7c.3.1.5.2.6.4.3.3.6.6.8 1l1.3 2.1h-1.3l-1-1.6c-.3-.5-.5-.8-.7-1s-.4-.4-.5-.5-.3-.2-.5-.2c-.1 0-.3 0-.6 0h-1.2v3.4h-.8zm1-4.3h2.2c.5 0 .8 0 1.1-.1s.5-.2.6-.5c.1-.2.2-.4.2-.7 0-.4-.1-.7-.4-.9s-.7-.3-1.2-.3h-2.4v2.5zm10.1 3.6c-.4.3-.7.5-1 .6s-.7.2-1 .2c-.6 0-1.1-.1-1.4-.4-.3-.4-.5-.7-.5-1.2 0-.3.1-.5.2-.7s.3-.4.5-.5.4-.2.7-.3c.2 0 .5-.1.8-.1.8-.1 1.3-.2 1.7-.3 0-.1 0-.2 0-.2 0-.4-.1-.7-.3-.8-.2-.2-.6-.3-1.1-.3-.4 0-.8.1-1 .2-.2.2-.4.4-.5.8l-.9-.1c.1-.4.2-.7.4-.9s.5-.4.8-.6c.4-.1.8-.2 1.2-.2.5 0 .9.1 1.2.2s.5.3.6.4c.1.2.2.4.3.6v.9 1.2c0 .9 0 1.4.1 1.7 0 .2.1.4.2.7h-1c.1-.4 0-.7 0-.9zm-.1-2.1c-.3.1-.9.2-1.5.3-.4.1-.7.1-.8.2-.2.1-.3.2-.4.3-.1.2-.1.3-.1.5s.1.5.3.6c.2.2.5.2.8.2.4 0 .7-.1 1-.2s.5-.4.6-.7c.1-.2.2-.5.2-.9v-.3zm2.4 4.9v-7.7h.9v.7c.2-.3.4-.5.7-.6s.6-.2.9-.2c.5 0 .9.1 1.2.4.4.2.6.6.8 1s.3.9.3 1.5-.1 1.1-.3 1.5-.5.8-.9 1-.8.4-1.2.4c-.3 0-.6-.1-.8-.2s-.5-.3-.6-.5v2.7zm.9-4.9c0 .7.1 1.2.4 1.6s.6.5 1 .5.8-.2 1.1-.5c.3-.4.5-.9.5-1.6s-.1-1.2-.4-1.6-.6-.5-1-.5-.8.2-1.1.6c-.4.3-.5.8-.5 1.5zm5.1 4.9v-7.7h.8v.7c.2-.3.4-.5.7-.6s.6-.2.9-.2c.5 0 .9.1 1.2.4.4.2.6.6.8 1s.3.9.3 1.5-.1 1.1-.3 1.5-.5.8-.9 1-.8.4-1.2.4c-.3 0-.6-.1-.8-.2s-.5-.3-.6-.5v2.7zm.8-4.9c0 .7.1 1.2.4 1.6s.6.5 1 .5.8-.2 1.1-.5c.3-.4.5-.9.5-1.6s-.1-1.2-.4-1.6-.6-.5-1-.5-.8.2-1.1.6c-.3.3-.5.8-.5 1.5zm8.9 1 1 .1c-.2.6-.4 1-.9 1.3-.4.3-.9.5-1.6.5-.8 0-1.4-.2-1.9-.8-.5-.5-.7-1.2-.7-2.1s.2-1.6.7-2.2c.5-.5 1.1-.8 1.9-.8.7 0 1.3.3 1.8.8s.7 1.2.7 2.1v.2h-4.1c0 .6.2 1.1.5 1.4s.7.5 1.2.5c.3 0 .6-.1.9-.3.1 0 .3-.3.5-.7zm-3.1-1.5h3.1c0-.5-.2-.8-.4-1-.3-.4-.7-.5-1.2-.5-.4 0-.8.1-1.1.4-.2.2-.4.6-.4 1.1zm5.2 3.3v-7.6h.9v7.6zm6.2-1.8 1 .1c-.2.6-.4 1-.9 1.3-.4.3-.9.5-1.6.5-.8 0-1.4-.2-1.9-.8-.5-.5-.7-1.2-.7-2.1s.2-1.6.7-2.2c.5-.5 1.1-.8 1.9-.8.7 0 1.3.3 1.8.8s.7 1.2.7 2.1v.2h-4.2c0 .6.2 1.1.5 1.4s.7.5 1.2.5c.3 0 .6-.1.9-.3.2 0 .4-.3.6-.7zm-3.1-1.5h3.1c0-.5-.2-.8-.4-1-.3-.4-.7-.5-1.2-.5-.4 0-.8.1-1.1.4-.2.2-.4.6-.4 1.1zm5.2 3.3v-5.5h.8v.8c.2-.4.4-.7.6-.8s.4-.2.6-.2c.3 0 .6.1 1 .3l-.3.9c-.2-.1-.5-.2-.7-.2s-.4.1-.6.2-.3.3-.3.5c-.1.3-.2.7-.2 1.1v2.9zm6.5 0v-7.6h.9v7.6zm2.3-6.7v-1.1h1v.9c0 .5-.1.8-.2 1-.1.3-.4.5-.7.6l-.2-.4c.2-.1.3-.2.4-.4s.1-.4.2-.7h-.5zm2.1 3.9c0-1 .3-1.8.8-2.3.5-.4 1.1-.6 1.7-.6.8 0 1.4.2 1.9.8.5.5.7 1.2.7 2.1 0 .7-.1 1.3-.3 1.7s-.5.7-.9 1c-.4.2-.9.3-1.3.3-.8 0-1.4-.2-1.9-.7-.4-.7-.7-1.4-.7-2.3zm1 0c0 .7.2 1.2.5 1.6s.7.5 1.2.5.9-.2 1.2-.5c.3-.4.5-.9.5-1.6s-.2-1.2-.5-1.5c-.3-.4-.7-.5-1.2-.5s-.8.2-1.2.5-.5.8-.5 1.5zm5.3 2.8v-5.5h.8v.8c.2-.4.4-.7.6-.8s.4-.2.6-.2c.3 0 .6.1 1 .3l-.3.9c-.2-.1-.5-.2-.7-.2s-.4.1-.6.2-.3.3-.3.5c-.1.3-.2.7-.2 1.1v2.9zm7.1 0v-.7c-.3.6-.9.8-1.5.8-.4 0-.8-.1-1.2-.4-.4-.2-.7-.6-.9-1s-.3-.9-.3-1.5.1-1.1.3-1.5c.2-.5.5-.8.8-1 .4-.2.8-.4 1.2-.4.3 0 .6.1.9.2s.5.3.6.5v-2.7h.9v7.6h-.8zm-2.9-2.8c0 .7.1 1.2.4 1.6s.7.5 1.1.5.8-.2 1-.5c.3-.3.4-.9.4-1.5 0-.8-.1-1.3-.4-1.7s-.7-.5-1.1-.5-.7.2-1 .5-.4.9-.4 1.6zm5.2 2.8v-5.5h.8v.8c.2-.4.4-.7.6-.8s.4-.2.6-.2c.3 0 .6.1 1 .3l-.3.9c-.2-.1-.5-.2-.7-.2s-.4.1-.6.2-.3.3-.3.5c-.1.3-.2.7-.2 1.1v2.9zm7.4-1.8 1 .1c-.2.6-.4 1-.9 1.3-.4.3-.9.5-1.6.5-.8 0-1.4-.2-1.9-.8-.5-.5-.7-1.2-.7-2.1s.2-1.6.7-2.2c.5-.5 1.1-.8 1.9-.8.7 0 1.3.3 1.8.8s.7 1.2.7 2.1v.2h-4.1c0 .6.2 1.1.5 1.4s.7.5 1.2.5c.3 0 .6-.1.9-.3.2 0 .3-.3.5-.7zm-3.1-1.5h3.1c0-.5-.2-.8-.4-1-.3-.4-.7-.5-1.2-.5-.4 0-.8.1-1.1.4-.2.2-.4.6-.4 1.1zm11.8 3.3v-.7c-.3.6-.9.8-1.5.8-.4 0-.8-.1-1.2-.4-.4-.2-.7-.6-.9-1s-.3-.9-.3-1.5.1-1.1.3-1.5c.2-.5.5-.8.8-1 .4-.2.8-.4 1.2-.4.3 0 .6.1.9.2s.5.3.6.5v-2.7h.9v7.6h-.8zm-3-2.8c0 .7.1 1.2.4 1.6s.7.5 1.1.5.8-.2 1-.5c.3-.3.4-.9.4-1.5 0-.8-.1-1.3-.4-1.7s-.7-.5-1.1-.5-.8.2-1 .5-.4.9-.4 1.6zm8.9 2.8v-.8c-.4.6-1 .9-1.8.9-.3 0-.6-.1-.9-.2s-.5-.3-.6-.5-.2-.4-.3-.7c0-.2 0-.5 0-.9v-3.4h.9v3.1 1c.1.2.2.4.4.6.2.1.4.2.7.2s.5-.1.8-.2c.2-.1.4-.3.5-.6.1-.2.2-.6.2-1.1v-3h.9v5.5h-.8z"/><path d="m47.6 28.9v-1.1h.9v1.1zm-1.2 8.7.2-.8c.2.1.3.1.4.1.2 0 .3-.1.4-.2s.1-.4.1-1v-5.8h.9v5.8c0 .7-.1 1.2-.3 1.4-.2.4-.6.5-1.1.5-.1.1-.4.1-.6 0zm3.2-4.9c0-1 .3-1.8.8-2.3.5-.4 1.1-.6 1.7-.6.8 0 1.4.2 1.9.8.5.5.7 1.2.7 2.1 0 .7-.1 1.3-.3 1.7s-.5.7-.9 1c-.4.2-.9.3-1.3.3-.8 0-1.4-.2-1.9-.7-.5-.7-.7-1.4-.7-2.3zm1 0c0 .7.2 1.2.5 1.6s.7.5 1.2.5.9-.2 1.2-.5c.3-.4.5-.9.5-1.6s-.2-1.2-.5-1.5c-.3-.4-.7-.5-1.2-.5s-.8.2-1.2.5-.5.8-.5 1.5zm8.9 2.8v-.8c-.4.6-1 .9-1.8.9-.3 0-.6-.1-.9-.2s-.5-.3-.6-.5-.2-.4-.3-.7c0-.2 0-.5 0-.9v-3.4h.9v3.1 1c.1.2.2.4.4.6.2.1.4.2.7.2s.5-.1.8-.2c.2-.1.4-.3.5-.6.1-.2.2-.6.2-1.1v-3h.9v5.5h-.8zm2.3 0v-5.5h.8v.8c.2-.4.4-.7.6-.8s.4-.2.6-.2c.3 0 .6.1 1 .3l-.3.9c-.2-.1-.5-.2-.7-.2s-.4.1-.6.2-.3.3-.3.5c-.1.3-.2.7-.2 1.1v2.9zm3.2 0v-1.1h1.1v1.1c0 .4-.1.7-.2 1-.1.2-.4.4-.7.6l-.2-.4c.2-.1.3-.2.4-.4s.1-.4.2-.7h-.6zm5.7 0v-7.6h.9v7.6zm6.1-1.8 1 .1c-.2.6-.4 1-.9 1.3-.4.3-.9.5-1.6.5-.8 0-1.4-.2-1.9-.8-.5-.5-.7-1.2-.7-2.1s.2-1.6.7-2.2c.5-.5 1.1-.8 1.9-.8.7 0 1.3.3 1.8.8s.7 1.2.7 2.1v.2h-4.1c0 .6.2 1.1.5 1.4s.7.5 1.2.5c.3 0 .6-.1.9-.3.2 0 .4-.3.5-.7zm-3.1-1.5h3.1c0-.5-.2-.8-.4-1-.3-.4-.7-.5-1.2-.5-.4 0-.8.1-1.1.4-.2.2-.3.6-.4 1.1zm4.9 1.6.9-.1c.1.4.2.7.4.9s.6.3 1 .3.7-.1 1-.3c.2-.2.3-.4.3-.6s-.1-.4-.3-.5c-.1-.1-.4-.2-1-.3-.7-.2-1.2-.3-1.4-.5-.3-.1-.5-.3-.6-.5s-.2-.5-.2-.8c0-.2.1-.5.2-.7s.3-.4.5-.5c.1-.1.3-.2.6-.3s.5-.1.8-.1c.4 0 .8.1 1.1.2s.6.3.7.5c.2.2.3.5.3.9l-.9.1c0-.3-.2-.5-.4-.7s-.5-.2-.8-.2c-.4 0-.7.1-.9.2s-.3.3-.3.5c0 .1 0 .2.1.3s.2.2.4.2c.1 0 .4.1.8.2.7.2 1.1.3 1.4.4s.5.3.6.5c.2.2.2.5.2.8s-.1.6-.3.9-.4.5-.8.6c-.3.1-.7.2-1.2.2-.7 0-1.3-.1-1.6-.4-.3-.2-.5-.6-.6-1.2z"/><path d="m23 48.5v-5.5h.8v.8c.2-.4.4-.7.6-.8s.4-.2.6-.2c.3 0 .6.1 1 .3l-.3.9c-.2-.1-.5-.2-.7-.2s-.4.1-.6.2-.3.3-.3.5c-.1.3-.2.7-.2 1.1v2.9zm7.3-1.8 1 .1c-.2.6-.4 1-.9 1.3-.4.3-.9.5-1.6.5-.8 0-1.4-.2-1.9-.8-.5-.5-.7-1.2-.7-2.1s.2-1.6.7-2.2c.5-.5 1.1-.8 1.9-.8.7 0 1.3.3 1.8.8s.7 1.2.7 2.1v.2h-4.1c0 .6.2 1.1.5 1.4s.7.5 1.2.5c.3 0 .6-.1.9-.3.2 0 .4-.3.5-.7zm-3.1-1.5h3.1c0-.5-.2-.8-.4-1-.3-.4-.7-.5-1.2-.5-.4 0-.8.1-1.1.4-.2.2-.3.6-.4 1.1zm4.9 1.6.9-.1c.1.4.2.7.4.9s.6.3 1 .3.7-.1 1-.3c.2-.2.3-.4.3-.6s-.1-.4-.3-.5c-.1-.1-.4-.2-1-.3-.7-.2-1.2-.3-1.4-.5-.3-.1-.5-.3-.6-.5s-.2-.5-.2-.8c0-.2.1-.5.2-.7s.3-.4.5-.5c.1-.1.3-.2.6-.3s.5-.1.8-.1c.4 0 .8.1 1.1.2s.6.3.7.5c.2.2.3.5.3.9l-.9.1c0-.3-.2-.5-.4-.7s-.5-.2-.8-.2c-.4 0-.8.1-.9.2-.2.1-.3.3-.3.5 0 .1 0 .2.1.3s.2.2.4.2c.1 0 .4.1.8.2.7.2 1.1.3 1.4.4s.5.3.6.5c.2.2.2.5.2.8s-.1.6-.3.9-.4.5-.8.6c-.3.1-.7.2-1.2.2-.7 0-1.3-.1-1.6-.4-.3-.2-.5-.6-.6-1.2zm5.7 3.8v-7.7h.9v.7c.2-.3.4-.5.7-.6s.6-.2.9-.2c.5 0 .9.1 1.2.4.4.2.6.6.8 1s.3.9.3 1.5-.1 1.1-.3 1.5-.5.8-.9 1-.8.4-1.2.4c-.3 0-.6-.1-.8-.2s-.5-.3-.6-.5v2.7zm.8-4.9c0 .7.1 1.2.4 1.6s.6.5 1 .5.8-.2 1.1-.5c.3-.4.5-.9.5-1.6s-.1-1.2-.4-1.6-.6-.5-1-.5-.8.2-1.1.6c-.3.3-.5.8-.5 1.5zm4.8 0c0-1 .3-1.8.8-2.3.5-.4 1.1-.6 1.7-.6.8 0 1.4.2 1.9.8.5.5.7 1.2.7 2.1 0 .7-.1 1.3-.3 1.7s-.5.7-.9 1c-.4.2-.9.3-1.3.3-.8 0-1.4-.2-1.9-.7-.5-.7-.7-1.4-.7-2.3zm.9 0c0 .7.2 1.2.5 1.6s.7.5 1.2.5.9-.2 1.2-.5c.3-.4.5-.9.5-1.6s-.2-1.2-.5-1.5c-.3-.4-.7-.5-1.2-.5s-.8.2-1.2.5c-.3.3-.5.8-.5 1.5zm5.3 2.8v-5.5h.8v.8c.4-.6 1-.9 1.8-.9.3 0 .6.1.9.2s.5.3.6.5.2.4.3.7v.9 3.4h-.9v-3.4c0-.4 0-.7-.1-.9s-.2-.3-.4-.5c-.2-.1-.4-.2-.6-.2-.4 0-.7.1-1 .4-.3.2-.4.7-.4 1.4v3h-1zm5.6-1.7.9-.1c.1.4.2.7.4.9s.6.3 1 .3.7-.1 1-.3c.2-.2.3-.4.3-.6s-.1-.4-.3-.5c-.1-.1-.4-.2-1-.3-.7-.2-1.2-.3-1.4-.5-.3-.1-.5-.3-.6-.5s-.2-.5-.2-.8c0-.2.1-.5.2-.7s.3-.4.5-.5c.1-.1.3-.2.6-.3s.5-.1.8-.1c.4 0 .8.1 1.1.2s.6.3.7.5c.2.2.3.5.3.9l-.9.1c0-.3-.2-.5-.4-.7s-.5-.2-.8-.2c-.4 0-.8.1-.9.2-.2.1-.3.3-.3.5 0 .1 0 .2.1.3s.2.2.4.2c.1 0 .4.1.8.2.7.2 1.1.3 1.4.4s.5.3.6.5c.2.2.2.5.2.8s-.1.6-.3.9-.4.5-.8.6c-.3.1-.7.2-1.2.2-.7 0-1.3-.1-1.6-.4-.3-.2-.5-.6-.6-1.2zm9.3 1c-.4.3-.7.5-1 .6s-.7.2-1 .2c-.6 0-1.1-.1-1.4-.4s-.5-.7-.5-1.1c0-.3.1-.5.2-.7s.3-.4.5-.5.4-.2.7-.3c.2 0 .5-.1.8-.1.7-.1 1.3-.2 1.7-.3 0-.1 0-.2 0-.2 0-.4-.1-.7-.3-.8-.2-.2-.6-.3-1.1-.3-.4 0-.8.1-1 .2-.2.2-.4.4-.5.8l-.9-.1c.1-.4.2-.7.4-.9s.5-.4.8-.6c.4-.1.8-.2 1.2-.2.5 0 .9.1 1.2.2s.5.3.6.4c.1.2.2.4.3.6v.9 1.2c0 .9 0 1.4.1 1.7 0 .2.1.4.2.7h-1c.1-.5 0-.8 0-1zm-.1-2.1c-.3.1-.9.2-1.5.3-.4.1-.7.1-.8.2-.2.1-.3.2-.4.3s-.1.3-.1.4c0 .2.1.5.3.6.2.2.5.2.8.2.4 0 .7-.1 1-.2.3-.2.5-.4.6-.7.1-.2.2-.5.2-.9v-.2zm3.3 2.8h-.9v-7.6h.9v2.7c.4-.5.9-.8 1.5-.8.3 0 .7.1 1 .2s.6.3.8.6c.2.2.3.5.5.9.1.4.2.7.2 1.1 0 .9-.2 1.7-.7 2.2s-1 .8-1.7.8c-.6 0-1.2-.3-1.5-.8v.7zm0-2.8c0 .7.1 1.1.3 1.4.3.5.7.7 1.2.7.4 0 .8-.2 1.1-.5.3-.4.5-.9.5-1.6s-.1-1.2-.4-1.6c-.3-.3-.6-.5-1-.5s-.8.2-1.1.5c-.5.4-.6.9-.6 1.6zm5.1-3.8v-1.1h.9v1.1zm0 6.6v-5.5h.9v5.5zm2.3 0v-7.6h.9v7.6zm2.4-6.6v-1.1h.9v1.1zm0 6.6v-5.5h.9v5.5zm4.4-.9.1.8c-.3.1-.5.1-.7.1-.3 0-.6-.1-.8-.2s-.3-.3-.4-.4c-.1-.2-.1-.5-.1-1.1v-3.2h-.7v-.7h.7v-1.4l1-.5v1.9h.9v.7h-.9v3.2.5c0 .1.1.1.2.2.1 0 .2.1.3.1.1.1.2 0 .4 0zm4.7-.9 1 .1c-.2.6-.4 1-.9 1.3-.4.3-.9.5-1.6.5-.8 0-1.4-.2-1.9-.8-.5-.5-.7-1.2-.7-2.1s.2-1.6.7-2.2c.5-.5 1.1-.8 1.9-.8.7 0 1.3.3 1.8.8s.7 1.2.7 2.1v.2h-4.1c0 .6.2 1.1.5 1.4s.7.5 1.2.5c.3 0 .6-.1.9-.3.2 0 .4-.3.5-.7zm-3.1-1.5h3.1c0-.5-.2-.8-.4-1-.3-.4-.7-.5-1.2-.5-.4 0-.8.1-1.1.4-.2.2-.4.6-.4 1.1zm.8-3 .7-1.5h1.2l-1.2 1.5zm4.1 4.6.9-.1c.1.4.2.7.4.9s.6.3 1 .3.7-.1 1-.3c.2-.2.3-.4.3-.6s-.1-.4-.3-.5c-.1-.1-.4-.2-1-.3-.7-.2-1.2-.3-1.4-.5-.3-.1-.5-.3-.6-.5s-.2-.5-.2-.8c0-.2.1-.5.2-.7s.3-.4.5-.5c.1-.1.3-.2.6-.3s.5-.1.8-.1c.4 0 .8.1 1.1.2s.6.3.7.5c.2.2.3.5.3.9l-.9.1c0-.3-.2-.5-.4-.7s-.5-.2-.8-.2c-.4 0-.8.1-.9.2-.2.1-.3.3-.3.5 0 .1 0 .2.1.3s.2.2.4.2c.1 0 .4.1.8.2.7.2 1.1.3 1.4.4s.5.3.6.5c.2.2.2.5.2.8s-.1.6-.3.9-.4.5-.8.6c-.3.1-.7.2-1.2.2-.7 0-1.3-.1-1.6-.4-.3-.2-.5-.6-.6-1.2zm12.2 1.7v-.7c-.3.6-.9.8-1.5.8-.4 0-.8-.1-1.2-.4-.4-.2-.7-.6-.9-1s-.3-.9-.3-1.5.1-1.1.3-1.5c.2-.5.5-.8.8-1 .4-.2.8-.4 1.2-.4.3 0 .6.1.9.2s.5.3.6.5v-2.7h.9v7.6h-.8zm-2.9-2.8c0 .7.1 1.2.4 1.6s.7.5 1.1.5.8-.2 1-.5c.3-.3.4-.9.4-1.5 0-.8-.1-1.3-.4-1.7s-.7-.5-1.1-.5-.8.2-1 .5c-.3.3-.4.9-.4 1.6zm9 1 1 .1c-.2.6-.4 1-.9 1.3-.4.3-.9.5-1.6.5-.8 0-1.4-.2-1.9-.8-.5-.5-.7-1.2-.7-2.1s.2-1.6.7-2.2c.5-.5 1.1-.8 1.9-.8.7 0 1.3.3 1.8.8s.7 1.2.7 2.1v.2h-4.1c0 .6.2 1.1.5 1.4s.7.5 1.2.5c.3 0 .6-.1.9-.3.2 0 .4-.3.5-.7zm-3-1.5h3.1c0-.5-.2-.8-.4-1-.3-.4-.7-.5-1.2-.5-.4 0-.8.1-1.1.4-.2.2-.4.6-.4 1.1z"/><path d="m26.5 63.6v-7.7h.9v.7c.2-.3.4-.5.7-.6s.6-.2.9-.2c.5 0 .9.1 1.2.4.4.2.6.6.8 1s.3.9.3 1.5-.1 1.1-.3 1.5-.5.8-.9 1-.8.4-1.2.4c-.3 0-.6-.1-.8-.2-.3-.1-.5-.3-.6-.5v2.7zm.9-4.9c0 .7.1 1.2.4 1.6.3.3.6.5 1 .5s.8-.2 1.1-.5c.3-.4.5-.9.5-1.6s-.1-1.2-.4-1.6-.6-.5-1-.5-.8.2-1.1.6c-.4.3-.5.8-.5 1.5zm5 2.8v-5.5h.8v.8c.2-.4.4-.7.6-.8s.4-.2.6-.2c.3 0 .6.1 1 .3l-.3.9c-.2-.1-.5-.2-.7-.2s-.4.1-.6.2-.3.3-.3.5c-.1.3-.2.7-.2 1.1v2.9zm7.4-1.8 1 .1c-.2.6-.4 1-.9 1.3-.4.3-.9.5-1.6.5-.8 0-1.4-.2-1.9-.8-.5-.5-.7-1.2-.7-2.1s.2-1.6.7-2.2c.5-.5 1.1-.8 1.9-.8.7 0 1.3.3 1.8.8s.7 1.2.7 2.1v.2h-4.1c0 .6.2 1.1.5 1.4s.7.5 1.2.5c.3 0 .6-.1.9-.3.2 0 .3-.3.5-.7zm-3.1-1.5h3.1c0-.5-.2-.8-.4-1-.3-.4-.7-.5-1.2-.5-.4 0-.8.1-1.1.4-.2.2-.4.6-.4 1.1zm.8-3 .7-1.5h1.2l-1.1 1.5zm4.1 4.6.9-.1c.1.4.2.7.4.9s.6.3 1 .3.7-.1 1-.3c.2-.2.3-.4.3-.6s-.1-.4-.3-.5c-.1-.1-.4-.2-1-.3-.7-.2-1.2-.3-1.4-.5-.3-.1-.5-.3-.6-.5s-.2-.5-.2-.8c0-.2.1-.5.2-.7s.3-.4.5-.5c.1-.1.3-.2.6-.3s.5-.1.8-.1c.4 0 .8.1 1.1.2s.6.3.7.5c.2.2.3.5.3.9l-.9.1c0-.3-.2-.5-.4-.7s-.5-.2-.8-.2c-.4 0-.8.1-.9.2-.2.1-.3.3-.3.5 0 .1 0 .2.1.3s.2.2.4.2c.1 0 .4.1.8.2.7.2 1.1.3 1.4.4s.5.3.6.5c.2.2.2.5.2.8s-.1.6-.3.9-.4.5-.8.6c-.3.1-.7.2-1.2.2-.7 0-1.3-.1-1.6-.4-.3-.2-.5-.6-.6-1.2zm5.7-4.9v-1.1h.9v1.1zm0 6.6v-5.5h.9v5.5zm5.9 0v-.7c-.3.6-.9.8-1.5.8-.4 0-.8-.1-1.2-.4-.4-.2-.7-.6-.9-1s-.3-.9-.3-1.5.1-1.1.3-1.5c.2-.5.5-.8.8-1 .4-.2.8-.4 1.2-.4.3 0 .6.1.9.2s.5.3.6.5v-2.7h.9v7.6h-.8zm-2.9-2.8c0 .7.1 1.2.4 1.6s.7.5 1.1.5.8-.2 1-.5c.3-.3.4-.9.4-1.5 0-.8-.1-1.3-.4-1.7s-.7-.5-1.1-.5-.8.2-1 .5c-.3.3-.4.9-.4 1.6zm9 1 1 .1c-.2.6-.4 1-.9 1.3-.4.3-.9.5-1.6.5-.8 0-1.4-.2-1.9-.8-.5-.5-.7-1.2-.7-2.1s.2-1.6.7-2.2c.5-.5 1.1-.8 1.9-.8.7 0 1.3.3 1.8.8s.7 1.2.7 2.1v.2h-4.1c0 .6.2 1.1.5 1.4s.7.5 1.2.5c.3 0 .6-.1.9-.3.2 0 .4-.3.5-.7zm-3-1.5h3.1c0-.5-.2-.8-.4-1-.3-.4-.7-.5-1.2-.5-.4 0-.8.1-1.1.4-.2.2-.4.6-.4 1.1zm5.2 3.3v-5.5h.8v.8c.4-.6 1-.9 1.8-.9.3 0 .6.1.9.2s.5.3.6.5.2.4.3.7v.9 3.4h-.9v-3.4c0-.4 0-.7-.1-.9s-.2-.3-.4-.5c-.2-.1-.4-.2-.6-.2-.4 0-.7.1-1 .4-.3.2-.4.7-.4 1.4v3h-1zm9.5-2.1.9.1c-.1.6-.4 1.1-.8 1.5s-.9.5-1.5.5c-.8 0-1.4-.2-1.8-.7-.5-.5-.7-1.2-.7-2.1 0-.6.1-1.1.3-1.6.2-.4.5-.8.9-1s.8-.3 1.3-.3c.6 0 1.1.2 1.5.5s.6.7.7 1.3l-.9.1c-.1-.4-.2-.6-.5-.8s-.5-.3-.8-.3c-.5 0-.9.2-1.2.5s-.4.9-.4 1.6.1 1.3.4 1.6.7.5 1.1.5.7-.1.9-.3c.4-.3.6-.6.6-1.1zm5.5.3 1 .1c-.2.6-.4 1-.9 1.3-.4.3-.9.5-1.6.5-.8 0-1.4-.2-1.9-.8-.5-.5-.7-1.2-.7-2.1s.2-1.6.7-2.2c.5-.5 1.1-.8 1.9-.8.7 0 1.3.3 1.8.8s.7 1.2.7 2.1v.2h-4.1c0 .6.2 1.1.5 1.4s.7.5 1.2.5c.3 0 .6-.1.9-.3.2 0 .4-.3.5-.7zm-3.1-1.5h3.1c0-.5-.2-.8-.4-1-.3-.4-.7-.5-1.2-.5-.4 0-.8.1-1.1.4-.2.2-.3.6-.4 1.1zm12 1.5 1 .1c-.2.6-.4 1-.9 1.3-.4.3-.9.5-1.6.5-.8 0-1.4-.2-1.9-.8-.5-.5-.7-1.2-.7-2.1s.2-1.6.7-2.2c.5-.5 1.1-.8 1.9-.8.7 0 1.3.3 1.8.8s.7 1.2.7 2.1v.2h-4.1c0 .6.2 1.1.5 1.4s.7.5 1.2.5c.3 0 .6-.1.9-.3.2 0 .4-.3.5-.7zm-3.1-1.5h3.1c0-.5-.2-.8-.4-1-.3-.4-.7-.5-1.2-.5-.4 0-.8.1-1.1.4-.2.2-.3.6-.4 1.1zm7.3 2.4.1.8c-.3.1-.5.1-.7.1-.3 0-.6-.1-.8-.2s-.3-.3-.4-.4c-.1-.2-.1-.5-.1-1.1v-3.2h-.7v-.7h.7v-1.4l.9-.6v1.9h.9v.7h-.9v3.2.5c0 .1.1.1.2.2.1 0 .2.1.3.1.2.2.3.1.5.1zm7.5.9v-.7c-.3.6-.9.8-1.5.8-.4 0-.8-.1-1.2-.4-.4-.2-.7-.6-.9-1s-.3-.9-.3-1.5.1-1.1.3-1.5c.2-.5.5-.8.8-1 .4-.2.8-.4 1.2-.4.3 0 .6.1.9.2s.5.3.6.5v-2.7h.9v7.6h-.8zm-3-2.8c0 .7.1 1.2.4 1.6s.7.5 1.1.5.8-.2 1-.5c.3-.3.4-.9.4-1.5 0-.8-.1-1.3-.4-1.7s-.7-.5-1.1-.5-.8.2-1 .5c-.3.3-.4.9-.4 1.6zm9.1 1 1 .1c-.2.6-.4 1-.9 1.3-.4.3-.9.5-1.6.5-.8 0-1.4-.2-1.9-.8-.5-.5-.7-1.2-.7-2.1s.2-1.6.7-2.2c.5-.5 1.1-.8 1.9-.8.7 0 1.3.3 1.8.8s.7 1.2.7 2.1v.2h-4.1c0 .6.2 1.1.5 1.4s.7.5 1.2.5c.3 0 .6-.1.9-.3.1 0 .3-.3.5-.7zm-3.1-1.5h3.1c0-.5-.2-.8-.4-1-.3-.4-.7-.5-1.2-.5-.4 0-.8.1-1.1.4-.2.2-.4.6-.4 1.1z"/><path d="m25.4 76.6v-7.7h.9v.7c.2-.3.4-.5.7-.6s.6-.2.9-.2c.5 0 .9.1 1.2.4.4.2.6.6.8 1s.3.9.3 1.5-.1 1.1-.3 1.5-.5.8-.9 1-.8.4-1.2.4c-.3 0-.6-.1-.8-.2s-.5-.3-.6-.5v2.7zm.8-4.9c0 .7.1 1.2.4 1.6s.6.5 1 .5.8-.2 1.1-.5c.3-.4.5-.9.5-1.6s-.1-1.2-.4-1.6-.6-.5-1-.5-.8.2-1.1.6c-.3.3-.5.8-.5 1.5zm5.1 2.8v-5.5h.8v.8c.2-.4.4-.7.6-.8s.4-.2.6-.2c.3 0 .6.1 1 .3l-.3.9c-.2-.1-.5-.2-.7-.2s-.4.1-.6.2-.3.3-.3.5c-.1.3-.2.7-.2 1.1v2.9zm3.2-2.8c0-1 .3-1.8.8-2.3.5-.4 1.1-.6 1.7-.6.8 0 1.4.2 1.9.8.5.5.7 1.2.7 2.1 0 .7-.1 1.3-.3 1.7s-.5.7-.9 1c-.4.2-.9.3-1.3.3-.8 0-1.4-.2-1.9-.7-.5-.7-.7-1.4-.7-2.3zm1 0c0 .7.2 1.2.5 1.6s.7.5 1.2.5.9-.2 1.2-.5c.3-.4.5-.9.5-1.6s-.2-1.2-.5-1.5c-.3-.4-.7-.5-1.2-.5s-.8.2-1.2.5-.5.8-.5 1.5zm8.9.7.9.1c-.1.6-.4 1.1-.8 1.5s-.9.5-1.5.5c-.8 0-1.4-.2-1.8-.7-.5-.5-.7-1.2-.7-2.1 0-.6.1-1.1.3-1.6s.5-.8.9-1 .8-.3 1.3-.3c.6 0 1.1.2 1.5.5s.6.7.7 1.3l-.9.1c-.1-.4-.2-.6-.5-.8s-.5-.3-.8-.3c-.5 0-.9.2-1.2.5s-.4.9-.4 1.6.1 1.3.4 1.6.7.5 1.1.5.7-.1.9-.3c.3-.3.5-.6.6-1.1zm5.5.3 1 .1c-.2.6-.4 1-.9 1.3-.4.3-.9.5-1.6.5-.8 0-1.4-.2-1.9-.8-.5-.5-.7-1.2-.7-2.1s.2-1.6.7-2.2c.5-.5 1.1-.8 1.9-.8.7 0 1.3.3 1.8.8s.7 1.2.7 2.1v.2h-4.1c0 .6.2 1.1.5 1.4s.7.5 1.2.5c.3 0 .6-.1.9-.3.1 0 .3-.3.5-.7zm-3.1-1.5h3.1c0-.5-.2-.8-.4-1-.3-.4-.7-.5-1.2-.5-.4 0-.8.1-1.1.4-.2.2-.4.6-.4 1.1zm2-3h-.8l-1.2-1.5h1.2zm2.8 4.6.9-.1c.1.4.2.7.4.9s.6.3 1 .3.7-.1 1-.3c.2-.2.3-.4.3-.6s-.1-.4-.3-.5c-.1-.1-.4-.2-1-.3-.7-.2-1.2-.3-1.4-.5-.3-.1-.5-.3-.6-.5s-.2-.5-.2-.8c0-.2.1-.5.2-.7s.3-.4.5-.5c.1-.1.3-.2.6-.3s.5-.1.8-.1c.4 0 .8.1 1.1.2s.6.3.7.5c.2.2.3.5.3.9l-.9.1c0-.3-.2-.5-.4-.7s-.5-.2-.8-.2c-.4 0-.8.1-.9.2-.2.1-.3.3-.3.5 0 .1 0 .2.1.3s.2.2.4.2c.1 0 .4.1.8.2.7.2 1.1.3 1.4.4s.5.3.6.5c.2.2.2.5.2.8s-.1.6-.3.9-.4.5-.8.6c-.3.1-.7.2-1.2.2-.7 0-1.3-.1-1.6-.4-.2-.2-.4-.6-.6-1.2zm5.4-.6v-.9h2.9v.9zm5.4 2.3-2.1-5.5h1l1.2 3.3c.1.4.2.7.4 1.1.1-.3.2-.6.3-1l1.2-3.4h1l-2.1 5.5zm7.6-1.8 1 .1c-.2.6-.4 1-.9 1.3-.4.3-.9.5-1.6.5-.8 0-1.4-.2-1.9-.8-.5-.5-.7-1.2-.7-2.1s.2-1.6.7-2.2c.5-.5 1.1-.8 1.9-.8.7 0 1.3.3 1.8.8s.7 1.2.7 2.1v.2h-4.1c0 .6.2 1.1.5 1.4s.7.5 1.2.5c.3 0 .6-.1.9-.3.2 0 .4-.3.5-.7zm-3.1-1.5h3.1c0-.5-.2-.8-.4-1-.3-.4-.7-.5-1.2-.5-.4 0-.8.1-1.1.4-.2.2-.3.6-.4 1.1zm5.2 3.3v-5.5h.9v.8c.2-.4.4-.7.6-.8s.4-.2.6-.2c.3 0 .6.1 1 .3l-.4.9c-.2-.1-.5-.2-.7-.2s-.4.1-.6.2-.3.3-.3.5c-.1.3-.2.7-.2 1.1v2.9zm4.5 0h-.9v-7.6h.9v2.7c.4-.5.9-.8 1.5-.8.3 0 .7.1 1 .2s.6.3.8.6c.2.2.3.5.5.9.1.4.2.7.2 1.1 0 .9-.2 1.7-.7 2.2s-1 .8-1.7.8c-.6 0-1.2-.3-1.5-.8v.7zm0-2.8c0 .7.1 1.1.3 1.4.3.5.7.7 1.2.7.4 0 .8-.2 1.1-.5.3-.4.5-.9.5-1.6s-.1-1.2-.4-1.6c-.3-.3-.6-.5-1-.5s-.8.2-1.1.5c-.5.4-.6.9-.6 1.6zm8.6 2.1c-.4.3-.7.5-1 .6s-.7.2-1 .2c-.6 0-1.1-.1-1.4-.4s-.5-.7-.5-1.1c0-.3.1-.5.2-.7s.3-.4.5-.5.4-.2.7-.3c.2 0 .5-.1.8-.1.7-.1 1.3-.2 1.7-.3 0-.1 0-.2 0-.2 0-.4-.1-.7-.3-.8-.2-.2-.6-.3-1.1-.3-.4 0-.8.1-1 .2-.2.2-.4.4-.5.8l-.9-.1c.1-.4.2-.7.4-.9s.5-.4.8-.6c.4-.1.8-.2 1.2-.2.5 0 .9.1 1.2.2s.5.3.6.4c.1.2.2.4.3.6v.9 1.2c0 .9 0 1.4.1 1.7 0 .2.1.4.2.7h-1c.1-.5.1-.8 0-1zm0-2.1c-.3.1-.9.2-1.5.3-.4.1-.7.1-.8.2-.2.1-.3.2-.4.3s-.1.3-.1.4c0 .2.1.5.3.6.2.2.5.2.8.2.4 0 .7-.1 1-.2.3-.2.5-.4.6-.7.1-.2.2-.5.2-.9v-.2zm2.3 2.8v-7.6h.9v7.6zm2.4-6.6v-1.1h.9v1.1zm0 6.6v-5.5h.9v5.5zm2-1.7.9-.1c.1.4.2.7.4.9s.6.3 1 .3.7-.1 1-.3.3-.4.3-.6-.1-.4-.3-.5c-.1-.1-.4-.2-1-.3-.7-.2-1.2-.3-1.4-.5-.3-.1-.5-.3-.6-.5s-.2-.5-.2-.8c0-.2.1-.5.2-.7s.3-.4.5-.5c.1-.1.3-.2.6-.3s.5-.1.8-.1c.4 0 .8.1 1.1.2s.6.3.7.5c.2.2.3.5.3.9l-.9.1c0-.3-.2-.5-.4-.7s-.5-.2-.8-.2c-.4 0-.8.1-.9.2-.2.1-.3.3-.3.5 0 .1 0 .2.1.3s.2.2.4.2c.1 0 .4.1.8.2.7.2 1.1.3 1.4.4s.5.3.6.5c.2.2.2.5.2.8s-.1.6-.3.9-.4.5-.8.6c-.3.1-.7.2-1.2.2-.7 0-1.3-.1-1.6-.4-.2-.2-.5-.6-.6-1.2zm7.8.8.1.8c-.3.1-.5.1-.7.1-.3 0-.6-.1-.8-.2s-.3-.3-.4-.4c-.1-.2-.1-.5-.1-1.1v-3.2h-.7v-.7h.7v-1.4l.9-.6v1.9h.9v.7h-.9v3.2.5c0 .1.1.1.2.2.1 0 .2.1.3.1.2.2.3.1.5.1zm4.7-.9 1 .1c-.2.6-.4 1-.9 1.3-.4.3-.9.5-1.6.5-.8 0-1.4-.2-1.9-.8-.5-.5-.7-1.2-.7-2.1s.2-1.6.7-2.2c.5-.5 1.1-.8 1.9-.8.7 0 1.3.3 1.8.8s.7 1.2.7 2.1v.2h-4.1c0 .6.2 1.1.5 1.4s.7.5 1.2.5c.3 0 .6-.1.9-.3.1 0 .3-.3.5-.7zm-3.1-1.5h3.1c0-.5-.2-.8-.4-1-.3-.4-.7-.5-1.2-.5-.4 0-.8.1-1.1.4-.2.2-.4.6-.4 1.1z"/><path clip-rule="evenodd" d="m171 .5h122.8v84.6h-122.8z" fill="none"/><path d="m182.1 27 2.9-7.6h1.1l3.1 7.6h-1.2l-.9-2.3h-3.1l-.8 2.3zm2.2-3.1h2.6l-.8-2.1c-.2-.6-.4-1.2-.5-1.6-.1.5-.2 1-.4 1.5zm5.2 1.5.9-.1c.1.4.2.7.4.9s.6.3 1 .3.7-.1 1-.3c.2-.2.3-.4.3-.6s-.1-.4-.3-.5c-.1-.1-.4-.2-1-.3-.7-.2-1.2-.3-1.4-.5-.3-.1-.5-.3-.6-.5s-.2-.5-.2-.8c0-.2.1-.5.2-.7s.3-.4.5-.5c.1-.1.3-.2.6-.3s.5-.1.8-.1c.4 0 .8.1 1.1.2s.6.3.7.5c.2.2.3.5.3.9l-.9.1c0-.3-.2-.5-.4-.7s-.5-.2-.8-.2c-.4 0-.8.1-.9.2-.2.1-.3.3-.3.5 0 .1 0 .2.1.3s.2.2.4.2c.1 0 .4.1.8.2.7.2 1.1.3 1.4.4s.5.3.6.5c.2.2.2.5.2.8s-.1.6-.3.9-.4.5-.8.6c-.3.1-.7.2-1.2.2-.7 0-1.3-.1-1.6-.4-.2-.2-.5-.6-.6-1.2zm5.3 0 .9-.1c.1.4.2.7.4.9s.6.3 1 .3.7-.1 1-.3c.2-.2.3-.4.3-.6s-.1-.4-.3-.5c-.1-.1-.4-.2-1-.3-.7-.2-1.2-.3-1.4-.5-.3-.1-.5-.3-.6-.5s-.2-.5-.2-.8c0-.2.1-.5.2-.7s.3-.4.5-.5c.1-.1.3-.2.6-.3s.5-.1.8-.1c.4 0 .8.1 1.1.2s.6.3.7.5c.2.2.3.5.3.9l-.9.1c0-.3-.2-.5-.4-.7s-.5-.2-.8-.2c-.4 0-.8.1-.9.2-.2.1-.3.3-.3.5 0 .1 0 .2.1.3s.2.2.4.2c.1 0 .4.1.8.2.7.2 1.1.3 1.4.4s.5.3.6.5c.2.2.2.5.2.8s-.1.6-.3.9-.4.5-.8.6c-.3.1-.7.2-1.2.2-.7 0-1.3-.1-1.6-.4-.2-.2-.4-.6-.6-1.2zm9.4 1.6v-.8c-.4.6-1 .9-1.8.9-.3 0-.6-.1-.9-.2s-.5-.3-.6-.5-.2-.4-.3-.7c0-.2 0-.5 0-.9v-3.4h.9v3.1 1c.1.2.2.4.4.6.2.1.4.2.7.2s.5-.1.8-.2c.2-.1.4-.3.5-.6.1-.2.2-.6.2-1.1v-3h.9v5.6zm2.3 0v-5.5h.8v.8c.2-.4.4-.7.6-.8s.4-.2.6-.2c.3 0 .6.1 1 .3l-.3.9c-.2-.1-.5-.2-.7-.2s-.4.1-.6.2-.3.3-.3.5c-.1.3-.2.7-.2 1.1v2.9zm7.3-1.8 1 .1c-.2.6-.4 1-.9 1.3-.4.3-.9.5-1.6.5-.8 0-1.4-.2-1.9-.8-.5-.5-.7-1.2-.7-2.1s.2-1.6.7-2.2c.5-.5 1.1-.8 1.9-.8.7 0 1.3.3 1.8.8s.7 1.2.7 2.1v.2h-4.1c0 .6.2 1.1.5 1.4s.7.5 1.2.5c.3 0 .6-.1.9-.3.2 0 .4-.3.5-.7zm-3.1-1.5h3.1c0-.5-.2-.8-.4-1-.3-.4-.7-.5-1.2-.5-.4 0-.8.1-1.1.4-.2.3-.3.6-.4 1.1zm5.2 3.3v-5.5h.8v.8c.2-.4.4-.7.6-.8s.4-.2.6-.2c.3 0 .6.1 1 .3l-.3.9c-.2-.1-.5-.2-.7-.2s-.4.1-.6.2-.3.3-.3.5c-.1.3-.2.7-.2 1.1v2.9zm6.5 0v-7.6h.9v7.6zm6-.7c-.4.3-.7.5-1 .6s-.7.2-1 .2c-.6 0-1.1-.1-1.4-.4s-.5-.7-.5-1.1c0-.3.1-.5.2-.7s.3-.4.5-.5.4-.2.7-.3c.2 0 .5-.1.8-.1.8-.1 1.3-.2 1.7-.3 0-.1 0-.2 0-.2 0-.4-.1-.7-.3-.8-.2-.2-.6-.3-1.1-.3-.4 0-.8.1-1 .2-.2.2-.4.4-.5.8l-.9-.1c.1-.4.2-.7.4-.9s.5-.4.8-.6c.4-.1.8-.2 1.2-.2.5 0 .9.1 1.2.2s.5.3.6.4c.1.2.2.4.3.6v.9 1.2c0 .9 0 1.4.1 1.7 0 .2.1.4.2.7h-1c.1-.5.1-.7 0-1zm0-2c-.3.1-.9.2-1.5.3-.4.1-.7.1-.8.2-.2.1-.3.2-.4.3s-.1.3-.1.4c0 .2.1.5.3.6s.5.2.8.2c.4 0 .7-.1 1-.2s.5-.4.6-.7c.1-.2.2-.5.2-.9v-.2zm5.3 4.8v-7.7h.9v.7c.2-.3.4-.5.7-.6s.6-.2.9-.2c.5 0 .9.1 1.2.4.4.2.6.6.8 1s.3.9.3 1.5-.1 1.1-.3 1.5-.5.8-.9 1-.8.4-1.2.4c-.3 0-.6-.1-.8-.2s-.5-.3-.6-.5v2.7zm.9-4.8c0 .7.1 1.2.4 1.6s.6.5 1 .5.8-.2 1.1-.5c.3-.4.5-.9.5-1.6s-.1-1.2-.4-1.6-.6-.5-1-.5-.8.2-1.1.6c-.4.2-.5.8-.5 1.5zm8.8.9 1 .1c-.2.6-.4 1-.9 1.3-.4.3-.9.5-1.6.5-.8 0-1.4-.2-1.9-.8-.5-.5-.7-1.2-.7-2.1s.2-1.6.7-2.2c.5-.5 1.1-.8 1.9-.8.7 0 1.3.3 1.8.8s.7 1.2.7 2.1v.2h-4.1c0 .6.2 1.1.5 1.4s.7.5 1.2.5c.3 0 .6-.1.9-.3.2 0 .4-.3.5-.7zm-3.1-1.5h3.1c0-.5-.2-.8-.4-1-.3-.4-.7-.5-1.2-.5-.4 0-.8.1-1.1.4-.2.3-.3.6-.4 1.1zm5.3 3.3v-5.5h.8v.8c.2-.4.4-.7.6-.8s.4-.2.6-.2c.3 0 .6.1 1 .3l-.3.9c-.2-.1-.5-.2-.7-.2s-.4.1-.6.2-.3.3-.3.5c-.1.3-.2.7-.2 1.1v2.9zm5.6-.8.1.8c-.3.1-.5.1-.7.1-.3 0-.6-.1-.8-.2s-.3-.3-.4-.4c-.1-.2-.1-.5-.1-1.1v-3.2h-.7v-.7h.7v-1.4l.9-.6v1.9h.9v.7h-.9v3.2.5c0 .1.1.1.2.2.1 0 .2.1.3.1.2.1.3.1.5.1zm.9-5.7v-1.1h.9v1.1zm0 6.5v-5.5h.9v5.5zm2.3 0v-5.5h.8v.8c.4-.6 1-.9 1.8-.9.3 0 .6.1.9.2s.5.3.6.5.2.4.3.7v.9 3.3h-.8v-3.4c0-.4 0-.7-.1-.9s-.2-.3-.4-.5c-.2-.1-.4-.2-.6-.2-.4 0-.7.1-1 .4-.3.2-.4.7-.4 1.4v3h-1.1zm9.8-1.8 1 .1c-.2.6-.4 1-.9 1.3-.4.3-.9.5-1.6.5-.8 0-1.4-.2-1.9-.8-.5-.5-.7-1.2-.7-2.1s.2-1.6.7-2.2c.5-.5 1.1-.8 1.9-.8.7 0 1.3.3 1.8.8s.7 1.2.7 2.1v.2h-4.2c0 .6.2 1.1.5 1.4s.7.5 1.2.5c.3 0 .6-.1.9-.3.2 0 .4-.3.6-.7zm-3.1-1.5h3.1c0-.5-.2-.8-.4-1-.3-.4-.7-.5-1.2-.5-.4 0-.8.1-1.1.4-.2.3-.4.6-.4 1.1zm5.2 3.3v-5.5h.8v.8c.4-.6 1-.9 1.8-.9.3 0 .6.1.9.2s.5.3.6.5.2.4.3.7v.9 3.3h-.9v-3.4c0-.4 0-.7-.1-.9s-.2-.3-.4-.5c-.2-.1-.4-.2-.6-.2-.4 0-.7.1-1 .4-.3.2-.4.7-.4 1.4v3h-1zm9.5-2 .9.1c-.1.6-.4 1.1-.8 1.5s-.9.5-1.5.5c-.8 0-1.4-.2-1.8-.7-.5-.5-.7-1.2-.7-2.1 0-.6.1-1.1.3-1.6s.5-.8.9-1 .8-.3 1.3-.3c.6 0 1.1.2 1.5.5s.6.7.7 1.3l-.9.1c-.1-.4-.2-.6-.5-.8s-.5-.3-.8-.3c-.5 0-.9.2-1.2.5s-.4.9-.4 1.6.1 1.3.4 1.6.7.5 1.1.5.7-.1.9-.3c.4-.3.6-.6.6-1.1zm5.5.2 1 .1c-.2.6-.4 1-.9 1.3-.4.3-.9.5-1.6.5-.8 0-1.4-.2-1.9-.8-.5-.5-.7-1.2-.7-2.1s.2-1.6.7-2.2c.5-.5 1.1-.8 1.9-.8.7 0 1.3.3 1.8.8s.7 1.2.7 2.1v.2h-4.1c0 .6.2 1.1.5 1.4s.7.5 1.2.5c.3 0 .6-.1.9-.3.2 0 .4-.3.5-.7zm-3-1.5h3.1c0-.5-.2-.8-.4-1-.3-.4-.7-.5-1.2-.5-.4 0-.8.1-1.1.4s-.4.6-.4 1.1z"/><path d="m199.6 38.2 1 .1c-.2.6-.4 1-.9 1.3-.4.3-.9.5-1.6.5-.8 0-1.4-.2-1.9-.8-.5-.5-.7-1.2-.7-2.1s.2-1.6.7-2.2c.5-.5 1.1-.8 1.9-.8.7 0 1.3.3 1.8.8s.7 1.2.7 2.1v.2h-4.1c0 .6.2 1.1.5 1.4s.7.5 1.2.5c.3 0 .6-.1.9-.3.2 0 .3-.3.5-.7zm-3.1-1.5h3.1c0-.5-.2-.8-.4-1-.3-.4-.7-.5-1.2-.5-.4 0-.8.1-1.1.4-.2.3-.4.6-.4 1.1zm7.3 2.5.1.8c-.3.1-.5.1-.7.1-.3 0-.6-.1-.8-.2s-.3-.3-.4-.4c-.1-.2-.1-.5-.1-1.1v-3.2h-.7v-.7h.7v-1.4l.9-.6v1.9h.9v.7h-.9v3.2.5c0 .1.1.1.2.2.1 0 .2.1.3.1.2.1.3.1.5.1zm3.8.8v-7.6h.9v7.6zm6-.7c-.4.3-.7.5-1 .6s-.7.2-1 .2c-.6 0-1.1-.1-1.4-.4s-.5-.7-.5-1.1c0-.3.1-.5.2-.7s.3-.4.5-.5.4-.2.7-.3c.2 0 .5-.1.8-.1.8-.1 1.3-.2 1.7-.3 0-.1 0-.2 0-.2 0-.4-.1-.7-.3-.8-.2-.2-.6-.3-1.1-.3-.4 0-.8.1-1 .2-.2.2-.4.4-.5.8l-.9-.1c.1-.4.2-.7.4-.9s.5-.4.8-.6c.4-.1.8-.2 1.2-.2.5 0 .9.1 1.2.2s.5.3.6.4c.1.2.2.4.3.6v.9 1.2c0 .9 0 1.4.1 1.7 0 .2.1.4.2.7h-1c.1-.5.1-.7 0-1zm0-2c-.3.1-.9.2-1.5.3-.4.1-.7.1-.8.2-.2.1-.3.2-.4.3s-.1.3-.1.4c0 .2.1.5.3.6s.5.2.8.2c.4 0 .7-.1 1-.2s.5-.4.6-.7c.1-.2.2-.5.2-.9v-.2zm8.8 4.8v-2.7c-.1.2-.3.4-.6.5s-.5.2-.8.2c-.7 0-1.2-.3-1.7-.8s-.7-1.2-.7-2.2c0-.6.1-1 .3-1.5.2-.4.5-.8.8-1 .4-.2.8-.3 1.2-.3.7 0 1.2.3 1.6.9v-.8h.8v7.7zm-2.8-4.9c0 .7.1 1.2.4 1.6s.7.5 1.1.5.7-.2 1-.5.4-.9.4-1.5c0-.7-.2-1.3-.5-1.7s-.7-.6-1.1-.6-.8.2-1 .5-.3 1-.3 1.7zm8.9 2.8v-.8c-.4.6-1 .9-1.8.9-.3 0-.6-.1-.9-.2s-.5-.3-.6-.5-.2-.4-.3-.7c0-.2 0-.5 0-.9v-3.4h.9v3.1 1c.1.2.2.4.4.6.2.1.4.2.7.2s.5-.1.8-.2c.2-.1.4-.3.5-.6.1-.2.2-.6.2-1.1v-3h.9v5.6zm5.9-.7c-.4.3-.7.5-1 .6s-.7.2-1 .2c-.6 0-1.1-.1-1.4-.4s-.5-.7-.5-1.1c0-.3.1-.5.2-.7s.3-.4.5-.5.4-.2.7-.3c.2 0 .5-.1.8-.1.8-.1 1.3-.2 1.7-.3 0-.1 0-.2 0-.2 0-.4-.1-.7-.3-.8-.2-.2-.6-.3-1.1-.3-.4 0-.8.1-1 .2-.2.2-.4.4-.5.8l-.9-.1c.1-.4.2-.7.4-.9s.5-.4.8-.6c.4-.1.8-.2 1.2-.2.5 0 .9.1 1.2.2s.5.3.6.4c.1.2.2.4.3.6v.9 1.2c0 .9 0 1.4.1 1.7 0 .2.1.4.2.7h-1c.1-.5 0-.7 0-1zm-.1-2c-.3.1-.9.2-1.5.3-.4.1-.7.1-.8.2-.2.1-.3.2-.4.3s-.1.3-.1.4c0 .2.1.5.3.6s.5.2.8.2c.4 0 .7-.1 1-.2s.5-.4.6-.7c.1-.2.2-.5.2-.9v-.2zm2.4 2.7v-7.6h.9v7.6zm2.4-6.5v-1.1h.9v1.1zm0 6.5v-5.5h.9v5.5zm4.4-.8.1.8c-.3.1-.5.1-.7.1-.3 0-.6-.1-.8-.2s-.3-.3-.4-.4c-.1-.2-.1-.5-.1-1.1v-3.2h-.7v-.7h.7v-1.4l.9-.6v1.9h.9v.7h-.9v3.2.5c0 .1.1.1.2.2.1 0 .2.1.3.1.2.1.3.1.5.1zm4.7-1 1 .1c-.2.6-.4 1-.9 1.3-.4.3-.9.5-1.6.5-.8 0-1.4-.2-1.9-.8-.5-.5-.7-1.2-.7-2.1s.2-1.6.7-2.2c.5-.5 1.1-.8 1.9-.8.7 0 1.3.3 1.8.8s.7 1.2.7 2.1v.2h-4.2c0 .6.2 1.1.5 1.4s.7.5 1.2.5c.3 0 .6-.1.9-.3.2 0 .4-.3.6-.7zm-3.1-1.5h3.1c0-.5-.2-.8-.4-1-.3-.4-.7-.5-1.2-.5-.4 0-.8.1-1.1.4-.2.3-.4.6-.4 1.1zm.7-2.9.7-1.5h1.2l-1.1 1.5zm11.1 6.2v-.7c-.3.6-.9.8-1.5.8-.4 0-.8-.1-1.2-.4-.4-.2-.7-.6-.9-1s-.3-.9-.3-1.5.1-1.1.3-1.5c.2-.5.5-.8.8-1 .4-.2.8-.4 1.2-.4.3 0 .6.1.9.2s.5.3.6.5v-2.7h.9v7.7zm-3-2.7c0 .7.1 1.2.4 1.6s.7.5 1.1.5.8-.2 1-.5c.3-.3.4-.9.4-1.5 0-.8-.1-1.3-.4-1.7s-.7-.5-1.1-.5-.8.2-1 .5c-.3.3-.4.8-.4 1.6zm9.1.9 1 .1c-.2.6-.4 1-.9 1.3-.4.3-.9.5-1.6.5-.8 0-1.4-.2-1.9-.8-.5-.5-.7-1.2-.7-2.1s.2-1.6.7-2.2c.5-.5 1.1-.8 1.9-.8.7 0 1.3.3 1.8.8s.7 1.2.7 2.1v.2h-4.1c0 .6.2 1.1.5 1.4s.7.5 1.2.5c.3 0 .6-.1.9-.3.1 0 .3-.3.5-.7zm-3.1-1.5h3.1c0-.5-.2-.8-.4-1-.3-.4-.7-.5-1.2-.5-.4 0-.8.1-1.1.4-.2.3-.4.6-.4 1.1zm4.9 1.7.9-.1c.1.4.2.7.4.9s.6.3 1 .3.7-.1 1-.3.3-.4.3-.6-.1-.4-.3-.5c-.1-.1-.4-.2-1-.3-.7-.2-1.2-.3-1.4-.5-.3-.1-.5-.3-.6-.5s-.2-.5-.2-.8c0-.2.1-.5.2-.7s.3-.4.5-.5c.1-.1.3-.2.6-.3s.5-.1.8-.1c.4 0 .8.1 1.1.2s.6.3.7.5c.2.2.3.5.3.9l-.9.1c0-.3-.2-.5-.4-.7s-.5-.2-.8-.2c-.4 0-.8.1-.9.2-.2.1-.3.3-.3.5 0 .1 0 .2.1.3s.2.2.4.2c.1 0 .4.1.8.2.7.2 1.1.3 1.4.4s.5.3.6.5c.2.2.2.5.2.8s-.1.6-.3.9-.4.5-.8.6c-.3.1-.7.2-1.2.2-.7 0-1.3-.1-1.6-.4-.3-.2-.5-.6-.6-1.2z"/><path d="m204.9 51.2 1 .1c-.2.6-.4 1-.9 1.3-.4.3-.9.5-1.6.5-.8 0-1.4-.2-1.9-.8-.5-.5-.7-1.2-.7-2.1s.2-1.6.7-2.2c.5-.5 1.1-.8 1.9-.8.7 0 1.3.3 1.8.8s.7 1.2.7 2.1v.2h-4.1c0 .6.2 1.1.5 1.4s.7.5 1.2.5c.3 0 .6-.1.9-.3.2 0 .4-.3.5-.7zm-3.1-1.5h3.1c0-.5-.2-.8-.4-1-.3-.4-.7-.5-1.2-.5-.4 0-.8.1-1.1.4-.2.3-.3.6-.4 1.1zm.8-2.9.7-1.5h1.2l-1.1 1.5zm8.1 4.2.9.1c-.1.6-.4 1.1-.8 1.5s-.9.5-1.5.5c-.8 0-1.4-.2-1.8-.7-.5-.5-.7-1.2-.7-2.1 0-.6.1-1.1.3-1.6.2-.4.5-.8.9-1s.8-.3 1.3-.3c.6 0 1.1.2 1.5.5s.6.7.7 1.3l-.9.1c-.1-.4-.2-.6-.5-.8s-.5-.3-.8-.3c-.5 0-.9.2-1.2.5s-.4.9-.4 1.6.1 1.3.4 1.6.7.5 1.1.5.7-.1.9-.3c.3-.3.5-.6.6-1.1zm1.7 2v-7.6h.9v2.7c.4-.5 1-.8 1.7-.8.4 0 .8.1 1.1.2.3.2.5.4.6.7s.2.7.2 1.2v3.6h-.9v-3.5c0-.5-.1-.8-.3-1s-.5-.3-.9-.3c-.3 0-.5.1-.8.2-.2.1-.4.3-.5.6-.1.2-.2.6-.2 1v3zm9.5-.7c-.4.3-.7.5-1 .6s-.7.2-1 .2c-.6 0-1.1-.1-1.4-.4s-.5-.7-.5-1.1c0-.3.1-.5.2-.7s.3-.4.5-.5.4-.2.7-.3c.2 0 .5-.1.8-.1.7-.1 1.3-.2 1.7-.3 0-.1 0-.2 0-.2 0-.4-.1-.7-.3-.8-.2-.2-.6-.3-1.1-.3-.4 0-.8.1-1 .2-.2.2-.4.4-.5.8l-.9-.1c.1-.4.2-.7.4-.9s.5-.4.8-.6c.4-.1.8-.2 1.2-.2.5 0 .9.1 1.2.2s.5.3.6.4c.1.2.2.4.3.6v.9 1.2c0 .9 0 1.4.1 1.7 0 .2.1.4.2.7h-1c.1-.5.1-.7 0-1zm0-2c-.3.1-.9.2-1.5.3-.4.1-.7.1-.8.2-.2.1-.3.2-.4.3s-.1.3-.1.4c0 .2.1.5.3.6.2.2.5.2.8.2.4 0 .7-.1 1-.2.3-.2.5-.4.6-.7.1-.2.2-.5.2-.9v-.2zm2.4 2.7v-5.5h.8v.8c.4-.6 1-.9 1.8-.9.3 0 .6.1.9.2s.5.3.6.5.2.4.3.7v.9 3.3h-.9v-3.4c0-.4 0-.7-.1-.9s-.2-.3-.4-.5c-.2-.1-.4-.2-.6-.2-.4 0-.7.1-1 .4-.3.2-.4.7-.4 1.4v3h-1zm5.7.5.9.1c0 .3.2.5.3.6.2.2.5.3.9.3s.8-.1 1-.3.4-.4.5-.7c.1-.2.1-.6.1-1.2-.4.5-.9.7-1.5.7-.8 0-1.3-.3-1.8-.8-.4-.6-.6-1.2-.6-2 0-.5.1-1 .3-1.5.2-.4.5-.8.8-1 .4-.2.8-.4 1.3-.4.7 0 1.2.3 1.6.8v-.7h.9v4.8c0 .9-.1 1.5-.3 1.8-.2.4-.5.7-.8.9-.4.2-.8.3-1.4.3-.7 0-1.2-.2-1.6-.5-.4-.2-.6-.6-.6-1.2zm.8-3.3c0 .7.1 1.2.4 1.6.3.3.7.5 1.1.5s.8-.2 1.1-.5.4-.9.4-1.6-.2-1.2-.5-1.5-.7-.5-1.1-.5-.8.2-1 .5c-.3.3-.4.8-.4 1.5zm9.1 1 1 .1c-.2.6-.4 1-.9 1.3-.4.3-.9.5-1.6.5-.8 0-1.4-.2-1.9-.8-.5-.5-.7-1.2-.7-2.1s.2-1.6.7-2.2c.5-.5 1.1-.8 1.9-.8.7 0 1.3.3 1.8.8s.7 1.2.7 2.1v.2h-4.1c0 .6.2 1.1.5 1.4s.7.5 1.2.5c.3 0 .6-.1.9-.3.1 0 .3-.3.5-.7zm-3.1-1.5h3.1c0-.5-.2-.8-.4-1-.3-.4-.7-.5-1.2-.5-.4 0-.8.1-1.1.4-.2.3-.4.6-.4 1.1zm4.9 1.7.9-.1c.1.4.2.7.4.9s.6.3 1 .3.7-.1 1-.3c.2-.2.3-.4.3-.6s-.1-.4-.3-.5c-.1-.1-.4-.2-1-.3-.7-.2-1.2-.3-1.4-.5-.3-.1-.5-.3-.6-.5s-.2-.5-.2-.8c0-.2.1-.5.2-.7s.3-.4.5-.5c.1-.1.3-.2.6-.3s.5-.1.8-.1c.4 0 .8.1 1.1.2s.6.3.7.5c.2.2.3.5.3.9l-.9.1c0-.3-.2-.5-.4-.7s-.5-.2-.8-.2c-.4 0-.8.1-.9.2-.2.1-.3.3-.3.5 0 .1 0 .2.1.3s.2.2.4.2c.1 0 .4.1.8.2.7.2 1.1.3 1.4.4s.5.3.6.5c.2.2.2.5.2.8s-.1.6-.3.9-.4.5-.8.6c-.3.1-.7.2-1.2.2-.7 0-1.3-.1-1.6-.4-.3-.2-.5-.6-.6-1.2zm8.2 0 .9-.1c.1.4.2.7.4.9s.6.3 1 .3.7-.1 1-.3c.2-.2.3-.4.3-.6s-.1-.4-.3-.5c-.1-.1-.4-.2-1-.3-.7-.2-1.2-.3-1.4-.5-.3-.1-.5-.3-.6-.5s-.2-.5-.2-.8c0-.2.1-.5.2-.7s.3-.4.5-.5c.1-.1.3-.2.6-.3s.5-.1.8-.1c.4 0 .8.1 1.1.2s.6.3.7.5c.2.2.3.5.3.9l-.9.1c0-.3-.2-.5-.4-.7s-.5-.2-.8-.2c-.4 0-.8.1-.9.2-.2.1-.3.3-.3.5 0 .1 0 .2.1.3s.2.2.4.2c.1 0 .4.1.8.2.7.2 1.1.3 1.4.4s.5.3.6.5c.2.2.2.5.2.8s-.1.6-.3.9-.4.5-.8.6c-.3.1-.7.2-1.2.2-.7 0-1.3-.1-1.6-.4-.2-.2-.5-.6-.6-1.2zm9.4 1.6v-.8c-.4.6-1 .9-1.8.9-.3 0-.6-.1-.9-.2s-.5-.3-.6-.5-.2-.4-.3-.7c0-.2 0-.5 0-.9v-3.4h.9v3.1 1c.1.2.2.4.4.6.2.1.4.2.7.2s.5-.1.8-.2c.2-.1.4-.3.5-.6.1-.2.2-.6.2-1.1v-3h.9v5.6zm2.3 0v-5.5h.8v.8c.2-.4.4-.7.6-.8s.4-.2.6-.2c.3 0 .6.1 1 .3l-.3.9c-.2-.1-.5-.2-.7-.2s-.4.1-.6.2-.3.3-.3.5c-.1.3-.2.7-.2 1.1v2.9z"/><path d="m182.2 66v-7.6h.9v7.6zm2.3-6.6v-1.1h1v.9c0 .5-.1.8-.2 1-.1.3-.4.5-.7.6l-.2-.4c.2-.1.3-.2.4-.4s.1-.4.2-.7h-.5zm6.2 4.8 1 .1c-.2.6-.4 1-.9 1.3-.4.3-.9.5-1.6.5-.8 0-1.4-.2-1.9-.8-.5-.5-.7-1.2-.7-2.1s.2-1.6.7-2.2c.5-.5 1.1-.8 1.9-.8.7 0 1.3.3 1.8.8s.7 1.2.7 2.1v.2h-4.1c0 .6.2 1.1.5 1.4s.7.5 1.2.5c.3 0 .6-.1.9-.3.2 0 .4-.3.5-.7zm-3.1-1.5h3.1c0-.5-.2-.8-.4-1-.3-.4-.7-.5-1.2-.5-.4 0-.8.1-1.1.4-.2.3-.3.6-.4 1.1zm5.3 3.3v-5.5h.8v.8c.4-.6 1-.9 1.8-.9.3 0 .6.1.9.2s.5.3.6.5.2.4.3.7v.9 3.3h-.9v-3.4c0-.4 0-.7-.1-.9s-.2-.3-.4-.5c-.2-.1-.4-.2-.6-.2-.4 0-.7.1-1 .4-.3.2-.4.7-.4 1.4v3h-1zm5.5-1.6.9-.1c.1.4.2.7.4.9s.6.3 1 .3.7-.1 1-.3c.2-.2.3-.4.3-.6s-.1-.4-.3-.5c-.1-.1-.4-.2-1-.3-.7-.2-1.2-.3-1.4-.5-.3-.1-.5-.3-.6-.5s-.2-.5-.2-.8c0-.2.1-.5.2-.7s.3-.4.5-.5c.1-.1.3-.2.6-.3s.5-.1.8-.1c.4 0 .8.1 1.1.2s.6.3.7.5c.2.2.3.5.3.9l-.9.1c0-.3-.2-.5-.4-.7s-.5-.2-.8-.2c-.4 0-.7.1-.9.2s-.3.3-.3.5c0 .1 0 .2.1.3s.2.2.4.2c.1 0 .4.1.8.2.7.2 1.1.3 1.4.4s.5.3.6.5c.2.2.2.5.2.8s-.1.6-.3.9-.4.5-.8.6c-.3.1-.7.2-1.2.2-.7 0-1.3-.1-1.6-.4-.3-.2-.5-.6-.6-1.2zm9.5-.2 1 .1c-.2.6-.4 1-.9 1.3-.4.3-.9.5-1.6.5-.8 0-1.4-.2-1.9-.8-.5-.5-.7-1.2-.7-2.1s.2-1.6.7-2.2c.5-.5 1.1-.8 1.9-.8.7 0 1.3.3 1.8.8s.7 1.2.7 2.1v.2h-4.1c0 .6.2 1.1.5 1.4s.7.5 1.2.5c.3 0 .6-.1.9-.3.2 0 .3-.3.5-.7zm-3.1-1.5h3.1c0-.5-.2-.8-.4-1-.3-.4-.7-.5-1.2-.5-.4 0-.8.1-1.1.4-.2.3-.4.6-.4 1.1zm5.2 3.3v-5.5h.8v.8c.2-.3.4-.5.7-.7s.6-.2 1-.2.7.1 1 .3.4.4.6.7c.4-.6 1-1 1.7-1 .6 0 1 .2 1.3.5s.4.8.4 1.4v3.7h-.9v-3.5c0-.4 0-.6-.1-.8s-.2-.3-.3-.4c-.2-.1-.3-.2-.5-.2-.4 0-.7.1-1 .4-.2.3-.4.7-.4 1.2v3.3h-.9v-3.6c0-.4-.1-.7-.2-.9s-.4-.3-.8-.3c-.3 0-.5.1-.7.2s-.4.3-.5.6-.1.6-.1 1.2v2.8zm9.8 0h-.9v-7.6h.9v2.7c.4-.5.9-.8 1.5-.8.3 0 .7.1 1 .2s.6.3.8.6c.2.2.3.5.5.9.1.4.2.7.2 1.1 0 .9-.2 1.7-.7 2.2s-1 .8-1.7.8c-.6 0-1.2-.3-1.5-.8v.7zm0-2.8c0 .7.1 1.1.3 1.4.3.5.7.7 1.2.7.4 0 .8-.2 1.1-.5.3-.4.5-.9.5-1.6s-.1-1.2-.4-1.6c-.3-.3-.6-.5-1-.5s-.8.2-1.1.5c-.5.4-.6.9-.6 1.6zm5 2.8v-7.6h.9v7.6zm6.2-1.8 1 .1c-.2.6-.4 1-.9 1.3-.4.3-.9.5-1.6.5-.8 0-1.4-.2-1.9-.8-.5-.5-.7-1.2-.7-2.1s.2-1.6.7-2.2c.5-.5 1.1-.8 1.9-.8.7 0 1.3.3 1.8.8s.7 1.2.7 2.1v.2h-4.1c0 .6.2 1.1.5 1.4s.7.5 1.2.5c.3 0 .6-.1.9-.3.1 0 .3-.3.5-.7zm-3.1-1.5h3.1c0-.5-.2-.8-.4-1-.3-.4-.7-.5-1.2-.5-.4 0-.8.1-1.1.4-.2.3-.4.6-.4 1.1zm11.8 3.3v-.7c-.3.6-.9.8-1.5.8-.4 0-.8-.1-1.2-.4s-.7-.6-.9-1-.3-.9-.3-1.5.1-1.1.3-1.5c.2-.5.5-.8.8-1 .4-.2.8-.4 1.2-.4.3 0 .6.1.9.2s.5.3.6.5v-2.7h.9v7.7zm-3-2.7c0 .7.1 1.2.4 1.6s.7.5 1.1.5.8-.2 1-.5c.3-.3.4-.9.4-1.5 0-.8-.1-1.3-.4-1.7s-.7-.5-1.1-.5-.8.2-1 .5-.4.8-.4 1.6zm9.1.9 1 .1c-.2.6-.4 1-.9 1.3-.4.3-.9.5-1.6.5-.8 0-1.4-.2-1.9-.8-.5-.5-.7-1.2-.7-2.1s.2-1.6.7-2.2c.5-.5 1.1-.8 1.9-.8.7 0 1.3.3 1.8.8s.7 1.2.7 2.1v.2h-4.1c0 .6.2 1.1.5 1.4s.7.5 1.2.5c.3 0 .6-.1.9-.3.2 0 .4-.3.5-.7zm-3.1-1.5h3.1c0-.5-.2-.8-.4-1-.3-.4-.7-.5-1.2-.5-.4 0-.8.1-1.1.4-.2.3-.3.6-.4 1.1zm4.9 1.7.9-.1c.1.4.2.7.4.9s.6.3 1 .3.7-.1 1-.3c.2-.2.3-.4.3-.6s-.1-.4-.3-.5c-.1-.1-.4-.2-1-.3-.7-.2-1.2-.3-1.4-.5-.3-.1-.5-.3-.6-.5s-.2-.5-.2-.8c0-.2.1-.5.2-.7s.3-.4.5-.5c.1-.1.3-.2.6-.3s.5-.1.8-.1c.4 0 .8.1 1.1.2s.6.3.7.5c.2.2.3.5.3.9l-.9.1c0-.3-.2-.5-.4-.7s-.5-.2-.8-.2c-.4 0-.8.1-.9.2-.2.1-.3.3-.3.5 0 .1 0 .2.1.3s.2.2.4.2c.1 0 .4.1.8.2.7.2 1.1.3 1.4.4s.5.3.6.5c.2.2.2.5.2.8s-.1.6-.3.9-.4.5-.8.6c-.3.1-.7.2-1.2.2-.7 0-1.3-.1-1.6-.4-.3-.2-.5-.6-.6-1.2zm8.3 0 .9-.1c.1.4.2.7.4.9s.6.3 1 .3.7-.1 1-.3c.2-.2.3-.4.3-.6s-.1-.4-.3-.5c-.1-.1-.4-.2-1-.3-.7-.2-1.2-.3-1.4-.5-.3-.1-.5-.3-.6-.5s-.2-.5-.2-.8c0-.2.1-.5.2-.7s.3-.4.5-.5c.1-.1.3-.2.6-.3s.5-.1.8-.1c.4 0 .8.1 1.1.2s.6.3.7.5c.2.2.3.5.3.9l-.9.1c0-.3-.2-.5-.4-.7s-.5-.2-.8-.2c-.4 0-.8.1-.9.2-.2.1-.3.3-.3.5 0 .1 0 .2.1.3s.2.2.4.2c.1 0 .4.1.8.2.7.2 1.1.3 1.4.4s.5.3.6.5c.2.2.2.5.2.8s-.1.6-.3.9-.4.5-.8.6c-.3.1-.7.2-1.2.2-.7 0-1.3-.1-1.6-.4-.3-.2-.5-.6-.6-1.2zm9.3 1.6v-.8c-.4.6-1 .9-1.8.9-.3 0-.6-.1-.9-.2s-.5-.3-.6-.5-.2-.4-.3-.7c0-.2 0-.5 0-.9v-3.4h.9v3.1 1c.1.2.2.4.4.6.2.1.4.2.7.2s.5-.1.8-.2c.2-.1.4-.3.5-.6.1-.2.2-.6.2-1.1v-3h.9v5.6zm2.3-6.5v-1.1h.9v1.1zm-1.2 8.7.2-.8c.2.1.3.1.4.1.2 0 .3-.1.4-.2s.1-.4.1-1v-5.8h.9v5.8c0 .7-.1 1.2-.3 1.4-.2.4-.6.5-1.1.5-.1.1-.4 0-.6 0zm7.3-4 1 .1c-.2.6-.4 1-.9 1.3-.4.3-.9.5-1.6.5-.8 0-1.4-.2-1.9-.8-.5-.5-.7-1.2-.7-2.1s.2-1.6.7-2.2c.5-.5 1.1-.8 1.9-.8.7 0 1.3.3 1.8.8s.7 1.2.7 2.1v.2h-4.1c0 .6.2 1.1.5 1.4s.7.5 1.2.5c.3 0 .6-.1.9-.3.2 0 .4-.3.5-.7zm-3-1.5h3.1c0-.5-.2-.8-.4-1-.3-.4-.7-.5-1.2-.5-.4 0-.8.1-1.1.4-.2.3-.4.6-.4 1.1zm7.2 2.5.2.8c-.3.1-.5.1-.7.1-.3 0-.6-.1-.8-.2s-.3-.3-.4-.4c-.1-.2-.1-.5-.1-1.1v-3.2h-.7v-.7h.7v-1.4l.9-.6v1.9h.9v.7h-.9v3.2.5c0 .1.1.1.2.2.1 0 .2.1.3.1.1.1.3.1.4.1zm.6-.8.9-.1c.1.4.2.7.4.9s.6.3 1 .3.7-.1 1-.3c.2-.2.3-.4.3-.6s-.1-.4-.3-.5c-.1-.1-.4-.2-1-.3-.7-.2-1.2-.3-1.4-.5-.3-.1-.5-.3-.6-.5s-.2-.5-.2-.8c0-.2.1-.5.2-.7s.3-.4.5-.5c.1-.1.3-.2.6-.3s.5-.1.8-.1c.4 0 .8.1 1.1.2s.6.3.7.5c.2.2.3.5.3.9l-.9.1c0-.3-.2-.5-.4-.7s-.5-.2-.8-.2c-.4 0-.8.1-.9.2-.2.1-.3.3-.3.5 0 .1 0 .2.1.3s.2.2.4.2c.1 0 .4.1.8.2.7.2 1.1.3 1.4.4s.5.3.6.5c.2.2.2.5.2.8s-.1.6-.3.9-.4.5-.8.6c-.3.1-.7.2-1.2.2-.7 0-1.3-.1-1.6-.4-.3-.2-.5-.6-.6-1.2z"/><path clip-rule="evenodd" d="m126 40.5h36.6v-4.2l8.4 8.4-8.4 8.4v-4.2h-36.6z" fill="#cfe2f3" fill-rule="evenodd"/><path d="m126 40.5h36.6v-4.2l8.4 8.4-8.4 8.4v-4.2h-36.6z" fill="none" stroke="#000" stroke-linejoin="round" stroke-miterlimit="10"/><path clip-rule="evenodd" d="m296.5 40.5h36.6v-4.2l8.4 8.4-8.4 8.4v-4.2h-36.6z" fill="#cfe2f3" fill-rule="evenodd"/><path d="m296.5 40.5h36.6v-4.2l8.4 8.4-8.4 8.4v-4.2h-36.6z" fill="none" stroke="#000" stroke-linejoin="round" stroke-miterlimit="10"/></svg>