<svg enable-background="new 0 0 1024 1024" viewBox="0 0 1024 1024" xmlns="http://www.w3.org/2000/svg"><path d="m1024 512c0-282.8-229.2-512-512-512s-512 229.2-512 512c0 255.6 187.2 467.4 432 505.8v-357.8h-130v-148h130v-112.8c0-128.3 76.4-199.2 193.4-199.2 56 0 114.6 10 114.6 10v126h-64.6c-63.6 0-83.4 39.5-83.4 80v96h142l-22.7 148h-119.3v357.8c244.8-38.4 432-250.2 432-505.8z" fill="#1877f2"/><path d="m711.3 660 22.7-148h-142v-96c0-40.5 19.8-80 83.4-80h64.6v-126s-58.6-10-114.6-10c-117 0-193.4 70.9-193.4 199.2v112.8h-130v148h130v357.8c26.1 4.1 52.8 6.2 80 6.2s53.9-2.1 80-6.2v-357.8z" fill="#fff"/></svg>